SplineFontDB: 3.0
FontName: Shanti
FullName: Shanti
FamilyName: Shanti
Weight: Book
Copyright: Copyright (c) 2011 by vernon adams. All rights reserved.
Version: 1.000
ItalicAngle: 0
UnderlinePosition: -103
UnderlineWidth: 102
Ascent: 1638
Descent: 410
sfntRevision: 0x00010000
LayerCount: 2
Layer: 0 1 "Back"  1
Layer: 1 1 "Fore"  0
XUID: [1021 759 1887733602 5645881]
FSType: 256
OS2Version: 3
OS2_WeightWidthSlopeOnly: 0
OS2_UseTypoMetrics: 1
CreationTime: 1310326080
ModificationTime: 1310319511
PfmFamily: 17
TTFWeight: 400
TTFWidth: 5
LineGap: 0
VLineGap: 0
Panose: 2 0 5 3 0 0 0 2 0 3
OS2TypoAscent: 284
OS2TypoAOffset: 1
OS2TypoDescent: -67
OS2TypoDOffset: 1
OS2TypoLinegap: 0
OS2WinAscent: -108
OS2WinAOffset: 1
OS2WinDescent: -162
OS2WinDOffset: 1
HheadAscent: -108
HheadAOffset: 1
HheadDescent: 162
HheadDOffset: 1
OS2SubXSize: -28504
OS2SubYSize: -31306
OS2SubXOff: 0
OS2SubYOff: 2673
OS2SupXSize: -28504
OS2SupYSize: -31306
OS2SupXOff: 0
OS2SupYOff: 17254
OS2StrikeYSize: 102
OS2StrikeYPos: 512
OS2Vendor: 'newt'
OS2CodePages: 20000013.00000000
OS2UnicodeRanges: 800000ef.5000204b.00000000.00000000
Lookup: 258 0 0 "'kern' Horizontal Kerning in Latin lookup 0"  {"'kern' Horizontal Kerning in Latin lookup 0 subtable"  } ['kern' ('DFLT' <'dflt' > 'latn' <'dflt' > ) ]
MarkAttachClasses: 1
DEI: 91125
TtTable: prep
PUSHW_1
 0
CALL
SVTCA[y-axis]
PUSHW_3
 1
 2
 2
CALL
SVTCA[y-axis]
PUSHW_8
 1
 67
 55
 43
 31
 19
 0
 8
CALL
PUSHW_8
 2
 80
 66
 51
 37
 22
 0
 8
CALL
SVTCA[y-axis]
PUSHW_3
 3
 5
 7
CALL
PUSHW_1
 0
DUP
RCVT
RDTG
ROUND[Black]
RTG
WCVTP
EndTTInstrs
TtTable: fpgm
PUSHW_1
 0
FDEF
MPPEM
PUSHW_1
 8
LT
IF
PUSHB_2
 1
 1
INSTCTRL
EIF
PUSHW_1
 511
SCANCTRL
PUSHW_1
 48
SCVTCI
PUSHW_2
 8
 3
SDS
SDB
ENDF
PUSHW_1
 1
FDEF
DUP
DUP
RCVT
ROUND[Black]
WCVTP
PUSHB_1
 1
ADD
ENDF
PUSHW_1
 2
FDEF
PUSHW_1
 1
LOOPCALL
POP
ENDF
PUSHW_1
 3
FDEF
DUP
GC[cur]
PUSHB_1
 3
CINDEX
GC[cur]
GT
IF
SWAP
EIF
DUP
ROLL
DUP
ROLL
MD[grid]
ABS
ROLL
DUP
GC[cur]
DUP
ROUND[Grey]
SUB
ABS
PUSHB_1
 4
CINDEX
GC[cur]

StartChar: exclam
Encoding: 33 33 8
Width: 530
Flags: W
LayerCount: 2
Fore
SplineSet
321 339 m 1,0,-1
 209 339 l 1,1,-1
 209 1394 l 1,2,-1
 369 1394 l 1,3,-1
 321 339 l 1,0,-1
161 211 m 1,4,-1
 369 211 l 1,5,-1
 369 0 l 1,6,-1
 161 0 l 1,7,-1
 161 211 l 1,4,-1
EndSplineSet
EndChar

StartChar: quotedbl
Encoding: 34 34 9
Width: 762
Flags: W
LayerCount: 2
Fore
SplineSet
308 1377 m 1,0,-1
 308 875 l 1,1,-1
 169 875 l 1,2,-1
 123 1377 l 1,3,-1
 308 1377 l 1,0,-1
638 1377 m 1,4,-1
 593 875 l 1,5,-1
 474 875 l 1,6,-1
 474 1377 l 1,7,-1
 638 1377 l 1,4,-1
EndSplineSet
EndChar

StartChar: numbersign
Encoding: 35 35 10
Width: 1274
Flags: W
LayerCount: 2
Fore
SplineSet
943 824 m 1,0,-1
 888 539 l 1,1,-1
 1113 539 l 1,2,-1
 1113 393 l 1,3,-1
 861 393 l 1,4,-1
 787 0 l 1,5,-1
 627 0 l 1,6,-1
 701 393 l 1,7,-1
 459 393 l 1,8,-1
 384 0 l 1,9,-1
 226 0 l 1,10,-1
 300 393 l 1,11,-1
 85 393 l 1,12,-1
 85 539 l 1,13,-1
 327 539 l 1,14,-1
 381 824 l 1,15,-1
 159 824 l 1,16,-1
 159 971 l 1,17,-1
 409 971 l 1,18,-1
 483 1377 l 1,19,-1
 644 1377 l 1,20,-1
 568 971 l 1,21,-1
 813 971 l 1,22,-1
 888 1377 l 1,23,-1
 1048 1377 l 1,24,-1
 969 971 l 1,25,-1
 1187 971 l 1,26,-1
 1187 824 l 1,27,-1
 943 824 l 1,0,-1
486 539 m 1,28,-1
 729 539 l 1,29,-1
 784 824 l 1,30,-1
 540 824 l 1,31,-1
 486 539 l 1,28,-1
EndSplineSet
EndChar

StartChar: dollar
Encoding: 36 36 11
Width: 1099
Flags: W
LayerCount: 2
Fore
SplineSet
484 39 m 1,0,1
 418 40 418 40 358 53.5 c 128,-1,2
 298 67 298 67 246.5 96.5 c 128,-1,3
 195 126 195 126 155 172.5 c 128,-1,4
 115 219 115 219 90 285 c 1,5,6
 120 307 120 307 148.5 325.5 c 128,-1,7
 177 344 177 344 206 365 c 1,8,9
 222 339 222 339 246 312.5 c 128,-1,10
 270 286 270 286 304 263.5 c 128,-1,11
 338 241 338 241 382.5 225.5 c 128,-1,12
 427 210 427 210 484 207 c 1,13,-1
 484 629 l 1,14,15
 379 661 379 661 308 695.5 c 128,-1,16
 237 730 237 730 193.5 773.5 c 128,-1,17
 150 817 150 817 131.5 872.5 c 128,-1,18
 113 928 113 928 113 1002 c 0,19,20
 113 1081 113 1081 143.5 1140 c 128,-1,21
 174 1199 174 1199 225.5 1240 c 128,-1,22
 277 1281 277 1281 344.5 1305.5 c 128,-1,23
 412 1330 412 1330 487 1339 c 1,24,-1
 487 1503 l 1,25,-1
 611 1503 l 1,26,-1
 611 1342 l 1,27,28
 655 1339 655 1339 711 1330 c 128,-1,29
 767 1321 767 1321 821 1298 c 128,-1,30
 875 1275 875 1275 919 1233.5 c 128,-1,31
 963 1192 963 1192 983 1124 c 1,32,-1
 838 1058 l 1,33,34
 808 1118 808 1118 747.5 1144 c 128,-1,35
 687 1170 687 1170 610 1178 c 1,36,-1
 610 787 l 1,37,38
 682 765 682 765 752.5 735.5 c 128,-1,39
 823 706 823 706 879 661.5 c 128,-1,40
 935 617 935 617 970 555.5 c 128,-1,41
 1005 494 1005 494 1005 409 c 0,42,43
 1005 325 1005 325 973 261 c 128,-1,44
 941 197 941 197 886.5 152 c 128,-1,45
 832 107 832 107 760 80 c 128,-1,46
 688 53 688 53 607 43 c 1,47,-1
 607 -161 l 1,48,-1
 484 -161 l 1,49,-1
 484 39 l 1,0,1
808 396 m 0,50,51
 808 435 808 435 792 464.5 c 128,-1,52
 776 494 776 494 749 517 c 128,-1,53
 722 540 722 540 686 557.5 c 128,-1,54
 650 575 650 575 610 590 c 1,55,-1
 610 212 l 1,56,57
 662 218 662 218 699.5 236 c 128,-1,58
 737 254 737 254 761 279 c 128,-1,59
 785 304 785 304 796.5 334.5 c 128,-1,60
 808 365 808 365 808 396 c 0,50,51
305 1009 m 0,61,62
 305 970 305 970 318.5 942 c 128,-1,63
 332 914 332 914 356.5 893 c 128,-1,64
 381 872 381 872 414 856 c 128,-1,65
 447 840 447 840 486 826 c 1,66,-1
 486 1175 l 1,67,68
 428 1164 428 1164 392.5 1144.5 c 128,-1,69
 357 1125 357 1125 337.5 1101.5 c 128,-1,70
 318 1078 318 1078 311.5 1053.5 c 128,-1,71
 305 1029 305 1029 305 1009 c 0,61,62
EndSplineSet
EndChar

StartChar: percent
Encoding: 37 37 12
Width: 1643
Flags: W
LayerCount: 2
Fore
SplineSet
238 1009 m 256,0,1
 238 965 238 965 243 919 c 128,-1,2
 248 873 248 873 264 835 c 128,-1,3
 280 797 280 797 309.5 772.5 c 128,-1,4
 339 748 339 748 389 748 c 0,5,6
 437 748 437 748 466.5 773 c 128,-1,7
 496 798 496 798 511.5 836.5 c 128,-1,8
 527 875 527 875 532.5 921.5 c 128,-1,9
 538 968 538 968 538 1010 c 0,10,11
 538 1064 538 1064 531 1111.5 c 128,-1,12
 524 1159 524 1159 507 1194.5 c 128,-1,13
 490 1230 490 1230 461 1251 c 128,-1,14
 432 1272 432 1272 389 1272 c 0,15,16
 339 1272 339 1272 309.5 1247.5 c 128,-1,17
 280 1223 280 1223 264 1184.5 c 128,-1,18
 248 1146 248 1146 243 1099.5 c 128,-1,19
 238 1053 238 1053 238 1009 c 256,0,1
695 1015 m 0,20,21
 695 917 695 917 673.5 842.5 c 128,-1,22
 652 768 652 768 612 718 c 128,-1,23
 572 668 572 668 515 642 c 128,-1,24
 458 616 458 616 387 616 c 0,25,26
 319 616 319 616 263 640.5 c 128,-1,27
 207 665 207 665 167 714.5 c 128,-1,28
 127 764 127 764 104.5 837 c 128,-1,29
 82 910 82 910 82 1008 c 0,30,31
 82 1098 82 1098 101 1171 c 128,-1,32
 120 1244 120 1244 159 1296 c 128,-1,33
 198 1348 198 1348 257 1376.5 c 128,-1,34
 316 1405 316 1405 396 1405 c 0,35,36
 475 1405 475 1405 531.5 1375.5 c 128,-1,37
 588 1346 588 1346 624.5 1294 c 128,-1,38
 661 1242 661 1242 678 1170.5 c 128,-1,39
 695 1099 695 1099 695 1015 c 0,20,21
1106 362 m 0,40,41
 1106 314 1106 314 1112 268.5 c 128,-1,42
 1118 223 1118 223 1134.5 188.5 c 128,-1,43
 1151 154 1151 154 1179.5 133 c 128,-1,44
 1208 112 1208 112 1254 112 c 0,45,46
 1302 112 1302 112 1332 135 c 128,-1,47
 1362 158 1362 158 1379 195.5 c 128,-1,48
 1396 233 1396 233 1402 280 c 128,-1,49
 1408 327 1408 327 1408 375 c 0,50,51
 1408 422 1408 422 1401.5 469 c 128,-1,52
 1395 516 1395 516 1378.5 553.5 c 128,-1,53
 1362 591 1362 591 1332 614.5 c 128,-1,54
 1302 638 1302 638 1256 638 c 0,55,56
 1207 638 1207 638 1177.5 612.5 c 128,-1,57
 1148 587 1148 587 1132 546.5 c 128,-1,58
 1116 506 1116 506 1111 457 c 128,-1,59
 1106 408 1106 408 1106 362 c 0,40,41
1562 377 m 0,60,61
 1562 285 1562 285 1543.5 211.5 c 128,-1,62
 1525 138 1525 138 1487 86 c 128,-1,63
 1449 34 1449 34 1391.5 6 c 128,-1,64
 1334 -22 1334 -22 1255 -22 c 0,65,66
 1171 -22 1171 -22 1113 9.5 c 128,-1,67
 1055 41 1055 41 1018.5 94.5 c 128,-1,68
 982 148 982 148 966 219.5 c 128,-1,69
 950 291 950 291 950 372 c 0,70,71
 950 468 950 468 971.5 542 c 128,-1,72
 993 616 993 616 1033 666.5 c 128,-1,73
 1073 717 1073 717 1129.5 742.5 c 128,-1,74
 1186 768 1186 768 1255 768 c 0,75,76
 1286 768 1286 768 1321 760.5 c 128,-1,77
 1356 753 1356 753 1390 736 c 128,-1,78
 1424 719 1424 719 1455 689.5 c 128,-1,79
 1486 660 1486 660 1510 617 c 128,-1,80
 1534 574 1534 574 1548 514.5 c 128,-1,81
 1562 455 1562 455 1562 377 c 0,60,61
1305 1418 m 1,82,83
 1201 1233 1201 1233 1098.5 1051 c 128,-1,84
 996 869 996 869 893.5 688 c 128,-1,85
 791 507 791 507 688 325.5 c 128,-1,86
 585 144 585 144 480 -40 c 1,87,-1
 330 -40 l 1,88,-1
 1156 1418 l 1,89,-1
 1305 1418 l 1,82,83
EndSplineSet
EndChar

StartChar: ampersand
Encoding: 38 38 13
Width: 1452
Flags: W
LayerCount: 2
Fore
SplineSet
97 377 m 0,0,1
 97 454 97 454 119 515.5 c 128,-1,2
 141 577 141 577 179 628 c 128,-1,3
 217 679 217 679 269 722.5 c 128,-1,4
 321 766 321 766 380 807 c 1,5,6
 354 835 354 835 327.5 868.5 c 128,-1,7
 301 902 301 902 278.5 942.5 c 128,-1,8
 256 983 256 983 242 1031 c 128,-1,9
 228 1079 228 1079 228 1135 c 0,10,11
 228 1207 228 1207 252.5 1265 c 128,-1,12
 277 1323 277 1323 324 1364 c 128,-1,13
 371 1405 371 1405 440 1427 c 128,-1,14
 509 1449 509 1449 598 1449 c 0,15,16
 672 1449 672 1449 738 1431 c 128,-1,17
 804 1413 804 1413 853 1376 c 128,-1,18
 902 1339 902 1339 930.5 1282.5 c 128,-1,19
 959 1226 959 1226 959 1150 c 0,20,21
 959 1082 959 1082 933 1025.5 c 128,-1,22
 907 969 907 969 867 922.5 c 128,-1,23
 827 876 827 876 779 839.5 c 128,-1,24
 731 803 731 803 687 775 c 1,25,-1
 1015 441 l 1,26,27
 1040 477 1040 477 1058.5 514.5 c 128,-1,28
 1077 552 1077 552 1090.5 596 c 128,-1,29
 1104 640 1104 640 1112.5 693 c 128,-1,30
 1121 746 1121 746 1126 812 c 1,31,-1
 1319 812 l 1,32,33
 1312 728 1312 728 1298 659.5 c 128,-1,34
 1284 591 1284 591 1262 531.5 c 128,-1,35
 1240 472 1240 472 1209.5 419.5 c 128,-1,36
 1179 367 1179 367 1138 315 c 1,37,-1
 1444 1 l 1,38,-1
 1185 1 l 1,39,-1
 1014 171 l 1,40,41
 964 126 964 126 912.5 90 c 128,-1,42
 861 54 861 54 804.5 29.5 c 128,-1,43
 748 5 748 5 685.5 -8.5 c 128,-1,44
 623 -22 623 -22 552 -22 c 0,45,46
 444 -22 444 -22 359.5 7 c 128,-1,47
 275 36 275 36 216.5 89 c 128,-1,48
 158 142 158 142 127.5 215 c 128,-1,49
 97 288 97 288 97 377 c 0,0,1
568 151 m 0,50,51
 626 151 626 151 674.5 164 c 128,-1,52
 723 177 723 177 762 197.5 c 128,-1,53
 801 218 801 218 832.5 243.5 c 128,-1,54
 864 269 864 269 889 293 c 1,55,56
 825 354 825 354 761.5 418 c 128,-1,57
 698 482 698 482 638 545 c 2,58,-1
 505 684 l 1,59,60
 451 646 451 646 412 610.5 c 128,-1,61
 373 575 373 575 348.5 539 c 128,-1,62
 324 503 324 503 312 464.5 c 128,-1,63
 300 426 300 426 300 383 c 0,64,65
 300 322 300 322 323.5 278.5 c 128,-1,66
 347 235 347 235 385 206.5 c 128,-1,67
 423 178 423 178 471 164.5 c 128,-1,68
 519 151 519 151 568 151 c 0,50,51
428 1140 m 0,69,70
 428 1083 428 1083 462.5 1025.5 c 128,-1,71
 497 968 497 968 563 902 c 1,72,73
 599 925 599 925 633.5 951.5 c 128,-1,74
 668 978 668 978 696 1008.5 c 128,-1,75
 724 1039 724 1039 741 1073.5 c 128,-1,76
 758 1108 758 1108 758 1147 c 0,77,78
 758 1172 758 1172 748 1197 c 128,-1,79
 738 1222 738 1222 718.5 1241.5 c 128,-1,80
 699 1261 699 1261 668.5 1273 c 128,-1,81
 638 1285 638 1285 598 1285 c 0,82,83
 560 1285 560 1285 528.5 1274 c 128,-1,84
 497 1263 497 1263 474.5 1243.5 c 128,-1,85
 452 1224 452 1224 440 1197.5 c 128,-1,86
 428 1171 428 1171 428 1140 c 0,69,70
EndSplineSet
EndChar

StartChar: quotesingle
Encoding: 39 39 14
Width: 437
Flags: W
LayerCount: 2
Fore
SplineSet
267 875 m 1,0,-1
 149 875 l 1,1,-1
 149 1377 l 1,2,-1
 312 1377 l 1,3,-1
 267 875 l 1,0,-1
EndSplineSet
EndChar

StartChar: parenleft
Encoding: 40 40 15
Width: 579
Flags: W
LayerCount: 2
Fore
SplineSet
100 598 m 0,0,1
 100 717 100 717 122.5 838 c 128,-1,2
 145 959 145 959 181.5 1071.5 c 128,-1,3
 218 1184 218 1184 263 1281 c 128,-1,4
 308 1378 308 1378 353 1449 c 1,5,-1
 508 1449 l 1,6,7
 460 1357 460 1357 419.5 1250 c 128,-1,8
 379 1143 379 1143 350 1031.5 c 128,-1,9
 321 920 321 920 304.5 810 c 128,-1,10
 288 700 288 700 288 601 c 0,11,12
 288 494 288 494 301.5 393.5 c 128,-1,13
 315 293 315 293 342.5 189.5 c 128,-1,14
 370 86 370 86 412 -24.5 c 128,-1,15
 454 -135 454 -135 511 -261 c 1,16,-1
 358 -261 l 1,17,18
 303 -168 303 -168 255.5 -63.5 c 128,-1,19
 208 41 208 41 173.5 151 c 128,-1,20
 139 261 139 261 119.5 374 c 128,-1,21
 100 487 100 487 100 598 c 0,0,1
EndSplineSet
EndChar

StartChar: parenright
Encoding: 41 41 16
Width: 579
Flags: W
LayerCount: 2
Fore
SplineSet
220 1449 m 1,0,1
 275 1354 275 1354 322.5 1248.5 c 128,-1,2
 370 1143 370 1143 404.5 1032 c 128,-1,3
 439 921 439 921 459 807.5 c 128,-1,4
 479 694 479 694 479 583 c 0,5,6
 479 465 479 465 456.5 344 c 128,-1,7
 434 223 434 223 398 111 c 128,-1,8
 362 -1 362 -1 317 -97 c 128,-1,9
 272 -193 272 -193 227 -261 c 1,10,-1
 72 -261 l 1,11,12
 120 -165 120 -165 160 -63 c 128,-1,13
 200 39 200 39 229 144.5 c 128,-1,14
 258 250 258 250 274 359.5 c 128,-1,15
 290 469 290 469 290 582 c 0,16,17
 290 690 290 690 276.5 791.5 c 128,-1,18
 263 893 263 893 235.5 996.5 c 128,-1,19
 208 1100 208 1100 166 1211 c 128,-1,20
 124 1322 124 1322 67 1449 c 1,21,-1
 220 1449 l 1,0,1
EndSplineSet
EndChar

StartChar: asterisk
Encoding: 42 42 17
Width: 948
Flags: W
LayerCount: 2
Fore
SplineSet
211 1334 m 1,0,-1
 336 1411 l 1,1,-1
 473 1183 l 1,2,-1
 610 1411 l 1,3,-1
 737 1334 l 1,4,-1
 604 1118 l 1,5,-1
 839 1118 l 1,6,-1
 839 969 l 1,7,-1
 603 969 l 1,8,-1
 736 754 l 1,9,-1
 610 677 l 1,10,-1
 473 904 l 1,11,-1
 336 677 l 1,12,-1
 210 754 l 1,13,-1
 340 969 l 1,14,-1
 109 969 l 1,15,-1
 109 1118 l 1,16,-1
 341 1118 l 1,17,-1
 211 1334 l 1,0,-1
EndSplineSet
EndChar

StartChar: plus
Encoding: 43 43 18
Width: 1122
Flags: W
LayerCount: 2
Fore
SplineSet
478 505 m 1,0,-1
 87 505 l 1,1,-1
 87 665 l 1,2,-1
 478 665 l 1,3,-1
 478 1058 l 1,4,-1
 642 1058 l 1,5,-1
 642 665 l 1,6,-1
 1035 665 l 1,7,-1
 1035 505 l 1,8,-1
 642 505 l 1,9,-1
 642 114 l 1,10,-1
 478 114 l 1,11,-1
 478 505 l 1,0,-1
EndSplineSet
EndChar

StartChar: comma
Encoding: 44 44 19
Width: 519
Flags: W
LayerCount: 2
Fore
SplineSet
57 -248 m 1,0,-1
 169 244 l 1,1,-1
 391 244 l 1,2,-1
 197 -248 l 1,3,-1
 57 -248 l 1,0,-1
EndSplineSet
EndChar

StartChar: hyphen
Encoding: 45 45 20
Width: 776
Flags: W
LayerCount: 2
Fore
SplineSet
143 439 m 1,0,-1
 143 606 l 1,1,-1
 632 606 l 1,2,-1
 632 439 l 1,3,-1
 143 439 l 1,0,-1
EndSplineSet
EndChar

StartChar: period
Encoding: 46 46 21
Width: 518
Flags: W
LayerCount: 2
Fore
SplineSet
143 239 m 1,0,-1
 374 239 l 1,1,-1
 374 0 l 1,2,-1
 143 0 l 1,3,-1
 143 239 l 1,0,-1
EndSplineSet
EndChar

StartChar: slash
Encoding: 47 47 22
Width: 792
Flags: W
LayerCount: 2
Fore
SplineSet
719 1442 m 1,0,-1
 234 -26 l 1,1,-1
 73 -26 l 1,2,-1
 562 1442 l 1,3,-1
 719 1442 l 1,0,-1
EndSplineSet
EndChar

StartChar: zero
Encoding: 48 48 23
Width: 1164
Flags: W
LayerCount: 2
Fore
SplineSet
131 708 m 256,0,1
 131 788 131 788 138 873.5 c 128,-1,2
 145 959 145 959 163 1041 c 128,-1,3
 181 1123 181 1123 213 1195.5 c 128,-1,4
 245 1268 245 1268 295 1323 c 128,-1,5
 345 1378 345 1378 415.5 1410 c 128,-1,6
 486 1442 486 1442 582 1442 c 0,7,8
 672 1442 672 1442 740.5 1412 c 128,-1,9
 809 1382 809 1382 859 1330 c 128,-1,10
 909 1278 909 1278 943 1207 c 128,-1,11
 977 1136 977 1136 997 1054.5 c 128,-1,12
 1017 973 1017 973 1025.5 884.5 c 128,-1,13
 1034 796 1034 796 1034 708 c 256,14,15
 1034 620 1034 620 1025.5 531.5 c 128,-1,16
 1017 443 1017 443 997 361.5 c 128,-1,17
 977 280 977 280 943 209 c 128,-1,18
 909 138 909 138 859 86 c 128,-1,19
 809 34 809 34 740.5 4 c 128,-1,20
 672 -26 672 -26 582 -26 c 0,21,22
 486 -26 486 -26 415.5 6 c 128,-1,23
 345 38 345 38 295 93 c 128,-1,24
 245 148 245 148 213 220.5 c 128,-1,25
 181 293 181 293 163 375 c 128,-1,26
 145 457 145 457 138 542.5 c 128,-1,27
 131 628 131 628 131 708 c 256,0,1
842 708 m 0,28,29
 842 839 842 839 829 943 c 128,-1,30
 816 1047 816 1047 786 1119 c 128,-1,31
 756 1191 756 1191 706 1229.5 c 128,-1,32
 656 1268 656 1268 583 1268 c 0,33,34
 503 1268 503 1268 452 1223.5 c 128,-1,35
 401 1179 401 1179 372 1102.5 c 128,-1,36
 343 1026 343 1026 332 924.5 c 128,-1,37
 321 823 321 823 321 708 c 0,38,39
 321 595 321 595 332 493.5 c 128,-1,40
 343 392 343 392 372 315.5 c 128,-1,41
 401 239 401 239 452 194 c 128,-1,42
 503 149 503 149 583 149 c 0,43,44
 656 149 656 149 706 188 c 128,-1,45
 756 227 756 227 786 300 c 128,-1,46
 816 373 816 373 829 476 c 128,-1,47
 842 579 842 579 842 708 c 0,28,29
EndSplineSet
EndChar

StartChar: one
Encoding: 49 49 24
Width: 757
Flags: W
LayerCount: 2
Fore
SplineSet
368 967 m 2,0,1
 368 976 368 976 368.5 991 c 128,-1,2
 369 1006 369 1006 369 1024 c 128,-1,3
 369 1042 369 1042 369.5 1061.5 c 128,-1,4
 370 1081 370 1081 370 1100 c 2,5,-1
 372 1196 l 1,6,7
 291 1124 291 1124 216 1074 c 128,-1,8
 141 1024 141 1024 87 993 c 1,9,-1
 42 1165 l 1,10,11
 62 1176 62 1176 92 1196 c 128,-1,12
 122 1216 122 1216 156 1239.5 c 128,-1,13
 190 1263 190 1263 225.5 1289 c 128,-1,14
 261 1315 261 1315 292.5 1339 c 128,-1,15
 324 1363 324 1363 350 1382 c 128,-1,16
 376 1401 376 1401 391 1412 c 1,17,-1
 556 1412 l 1,18,-1
 556 0 l 1,19,-1
 368 0 l 1,20,-1
 368 967 l 2,0,1
EndSplineSet
EndChar

StartChar: two
Encoding: 50 50 25
Width: 1077
Flags: W
LayerCount: 2
Fore
SplineSet
114 1144 m 1,0,1
 179 1298 179 1298 283 1370 c 128,-1,2
 387 1442 387 1442 548 1442 c 0,3,4
 628 1442 628 1442 699 1419.5 c 128,-1,5
 770 1397 770 1397 823 1350 c 128,-1,6
 876 1303 876 1303 907 1231.5 c 128,-1,7
 938 1160 938 1160 938 1062 c 0,8,9
 938 1001 938 1001 918.5 939.5 c 128,-1,10
 899 878 899 878 854.5 806.5 c 128,-1,11
 810 735 810 735 737.5 649 c 128,-1,12
 665 563 665 563 560 454 c 1,13,-1
 321 170 l 1,14,-1
 968 170 l 1,15,-1
 968 0 l 1,16,-1
 99 0 l 1,17,-1
 99 174 l 1,18,-1
 443 572 l 1,19,20
 503 634 503 634 558 696.5 c 128,-1,21
 613 759 613 759 655 820 c 128,-1,22
 697 881 697 881 721.5 938.5 c 128,-1,23
 746 996 746 996 746 1049 c 0,24,25
 746 1086 746 1086 735 1125 c 128,-1,26
 724 1164 724 1164 699 1195.5 c 128,-1,27
 674 1227 674 1227 633 1247.5 c 128,-1,28
 592 1268 592 1268 532 1268 c 0,29,30
 470 1268 470 1268 427 1249.5 c 128,-1,31
 384 1231 384 1231 355 1202.5 c 128,-1,32
 326 1174 326 1174 308 1140.5 c 128,-1,33
 290 1107 290 1107 278 1077 c 1,34,-1
 114 1144 l 1,0,1
EndSplineSet
EndChar

StartChar: three
Encoding: 51 51 26
Width: 1115
Flags: W
LayerCount: 2
Fore
SplineSet
516 -20 m 0,0,1
 410 -20 410 -20 302.5 20 c 128,-1,2
 195 60 195 60 101 148 c 1,3,-1
 169 308 l 1,4,5
 205 270 205 270 248 240.5 c 128,-1,6
 291 211 291 211 337 191.5 c 128,-1,7
 383 172 383 172 429 162 c 128,-1,8
 475 152 475 152 519 152 c 0,9,10
 574 152 574 152 623.5 166.5 c 128,-1,11
 673 181 673 181 710.5 210.5 c 128,-1,12
 748 240 748 240 770.5 285.5 c 128,-1,13
 793 331 793 331 793 394 c 0,14,15
 793 475 793 475 760 525.5 c 128,-1,16
 727 576 727 576 673.5 603.5 c 128,-1,17
 620 631 620 631 553 640.5 c 128,-1,18
 486 650 486 650 418 650 c 0,19,20
 401 650 401 650 387.5 649.5 c 128,-1,21
 374 649 374 649 364 649 c 2,22,-1
 343 649 l 1,23,-1
 343 814 l 1,24,25
 354 812 354 812 370 812 c 128,-1,26
 386 812 386 812 406 812 c 0,27,28
 474 812 474 812 538 822.5 c 128,-1,29
 602 833 602 833 652 861 c 128,-1,30
 702 889 702 889 732 937.5 c 128,-1,31
 762 986 762 986 762 1063 c 0,32,33
 762 1108 762 1108 744 1145.5 c 128,-1,34
 726 1183 726 1183 693.5 1210.5 c 128,-1,35
 661 1238 661 1238 615 1253 c 128,-1,36
 569 1268 569 1268 514 1268 c 0,37,38
 448 1268 448 1268 366.5 1235 c 128,-1,39
 285 1202 285 1202 191 1127 c 1,40,-1
 95 1257 l 1,41,42
 195 1351 195 1351 307 1396.5 c 128,-1,43
 419 1442 419 1442 525 1442 c 0,44,45
 613 1442 613 1442 691.5 1417 c 128,-1,46
 770 1392 770 1392 829.5 1345 c 128,-1,47
 889 1298 889 1298 924 1229 c 128,-1,48
 959 1160 959 1160 959 1072 c 0,49,50
 959 1021 959 1021 944 972 c 128,-1,51
 929 923 929 923 898.5 879 c 128,-1,52
 868 835 868 835 822.5 798.5 c 128,-1,53
 777 762 777 762 716 736 c 1,54,55
 799 710 799 710 852.5 665.5 c 128,-1,56
 906 621 906 621 936.5 571.5 c 128,-1,57
 967 522 967 522 978.5 473 c 128,-1,58
 990 424 990 424 990 389 c 0,59,60
 990 292 990 292 950.5 216 c 128,-1,61
 911 140 911 140 845.5 87.5 c 128,-1,62
 780 35 780 35 694.5 7.5 c 128,-1,63
 609 -20 609 -20 516 -20 c 0,0,1
EndSplineSet
EndChar

StartChar: four
Encoding: 52 52 27
Width: 1149
Flags: W
LayerCount: 2
Fore
SplineSet
689 0 m 1,0,-1
 689 300 l 1,1,-1
 66 300 l 1,2,-1
 66 504 l 1,3,-1
 673 1412 l 1,4,-1
 875 1412 l 1,5,-1
 875 472 l 1,6,-1
 1074 472 l 1,7,-1
 1074 300 l 1,8,-1
 875 300 l 1,9,-1
 875 0 l 1,10,-1
 689 0 l 1,0,-1
240 472 m 1,11,-1
 689 472 l 1,12,-1
 689 1180 l 1,13,-1
 625 1078 l 1,14,-1
 240 472 l 1,11,-1
EndSplineSet
EndChar

StartChar: five
Encoding: 53 53 28
Width: 1087
Flags: W
LayerCount: 2
Fore
SplineSet
555 882 m 0,0,1
 654 882 654 882 733 849.5 c 128,-1,2
 812 817 812 817 867 759.5 c 128,-1,3
 922 702 922 702 951.5 622 c 128,-1,4
 981 542 981 542 981 448 c 0,5,6
 981 341 981 341 947.5 253.5 c 128,-1,7
 914 166 914 166 850.5 104 c 128,-1,8
 787 42 787 42 695.5 8 c 128,-1,9
 604 -26 604 -26 488 -26 c 0,10,11
 422 -26 422 -26 361.5 -11 c 128,-1,12
 301 4 301 4 251.5 33.5 c 128,-1,13
 202 63 202 63 165.5 106.5 c 128,-1,14
 129 150 129 150 110 208 c 1,15,-1
 228 303 l 1,16,17
 246 262 246 262 277 233 c 128,-1,18
 308 204 308 204 344.5 185 c 128,-1,19
 381 166 381 166 420 157.5 c 128,-1,20
 459 149 459 149 494 149 c 0,21,22
 577 149 577 149 633.5 174.5 c 128,-1,23
 690 200 690 200 724.5 242 c 128,-1,24
 759 284 759 284 773.5 337 c 128,-1,25
 788 390 788 390 788 444 c 0,26,27
 788 578 788 578 715 649 c 128,-1,28
 642 720 642 720 506 720 c 0,29,30
 463 720 463 720 426.5 708.5 c 128,-1,31
 390 697 390 697 361 680.5 c 128,-1,32
 332 664 332 664 310 645 c 128,-1,33
 288 626 288 626 274 610 c 1,34,-1
 157 638 l 1,35,-1
 157 1412 l 1,36,-1
 897 1412 l 1,37,-1
 897 1240 l 1,38,-1
 346 1240 l 1,39,-1
 316 811 l 1,40,41
 358 837 358 837 417.5 859.5 c 128,-1,42
 477 882 477 882 555 882 c 0,0,1
EndSplineSet
EndChar

StartChar: six
Encoding: 54 54 29
Width: 1141
Flags: W
LayerCount: 2
Fore
SplineSet
927 1207 m 1,0,1
 855 1236 855 1236 793 1252 c 128,-1,2
 731 1268 731 1268 677 1268 c 0,3,4
 582 1268 582 1268 518 1230.5 c 128,-1,5
 454 1193 454 1193 413 1122.5 c 128,-1,6
 372 1052 372 1052 351.5 951 c 128,-1,7
 331 850 331 850 323 723 c 1,8,9
 344 756 344 756 374 785 c 128,-1,10
 404 814 404 814 442 836 c 128,-1,11
 480 858 480 858 526 870.5 c 128,-1,12
 572 883 572 883 625 883 c 0,13,14
 712 883 712 883 786 855 c 128,-1,15
 860 827 860 827 914.5 772 c 128,-1,16
 969 717 969 717 1000 636 c 128,-1,17
 1031 555 1031 555 1031 449 c 0,18,19
 1031 335 1031 335 996 246.5 c 128,-1,20
 961 158 961 158 900.5 97.5 c 128,-1,21
 840 37 840 37 759 5.5 c 128,-1,22
 678 -26 678 -26 587 -26 c 0,23,24
 465 -26 465 -26 378.5 23 c 128,-1,25
 292 72 292 72 236 157.5 c 128,-1,26
 180 243 180 243 154 359 c 128,-1,27
 128 475 128 475 128 609 c 0,28,29
 128 700 128 700 137.5 797 c 128,-1,30
 147 894 147 894 171 986.5 c 128,-1,31
 195 1079 195 1079 234.5 1161.5 c 128,-1,32
 274 1244 274 1244 333.5 1306.5 c 128,-1,33
 393 1369 393 1369 475.5 1405.5 c 128,-1,34
 558 1442 558 1442 666 1442 c 0,35,36
 735 1442 735 1442 815.5 1422.5 c 128,-1,37
 896 1403 896 1403 987 1361 c 1,38,-1
 927 1207 l 1,0,1
590 149 m 0,39,40
 639 149 639 149 684.5 165.5 c 128,-1,41
 730 182 730 182 765 217 c 128,-1,42
 800 252 800 252 821 307.5 c 128,-1,43
 842 363 842 363 842 440 c 0,44,45
 842 488 842 488 831 538.5 c 128,-1,46
 820 589 820 589 792 631 c 128,-1,47
 764 673 764 673 717 699.5 c 128,-1,48
 670 726 670 726 597 726 c 0,49,50
 532 726 532 726 482 702.5 c 128,-1,51
 432 679 432 679 398 640.5 c 128,-1,52
 364 602 364 602 346 553 c 128,-1,53
 328 504 328 504 328 453 c 0,54,55
 328 392 328 392 346 337 c 128,-1,56
 364 282 364 282 397.5 240 c 128,-1,57
 431 198 431 198 479.5 173.5 c 128,-1,58
 528 149 528 149 590 149 c 0,39,40
EndSplineSet
EndChar

StartChar: seven
Encoding: 55 55 30
Width: 959
Flags: W
LayerCount: 2
Fore
SplineSet
180 0 m 1,0,-1
 704 1240 l 1,1,-1
 60 1240 l 1,2,-1
 60 1412 l 1,3,-1
 904 1412 l 1,4,-1
 904 1253 l 1,5,-1
 395 0 l 1,6,-1
 180 0 l 1,0,-1
EndSplineSet
EndChar

StartChar: eight
Encoding: 56 56 31
Width: 1163
Flags: W
LayerCount: 2
Fore
SplineSet
581 -26 m 0,0,1
 490 -26 490 -26 407.5 -3 c 128,-1,2
 325 20 325 20 262 67.5 c 128,-1,3
 199 115 199 115 162 187 c 128,-1,4
 125 259 125 259 125 358 c 0,5,6
 125 427 125 427 144 484.5 c 128,-1,7
 163 542 163 542 198.5 590 c 128,-1,8
 234 638 234 638 283.5 676 c 128,-1,9
 333 714 333 714 394 744 c 1,10,11
 282 799 282 799 220.5 885 c 128,-1,12
 159 971 159 971 159 1083 c 0,13,14
 159 1146 159 1146 184 1210 c 128,-1,15
 209 1274 209 1274 260.5 1325.5 c 128,-1,16
 312 1377 312 1377 391.5 1409.5 c 128,-1,17
 471 1442 471 1442 580 1442 c 0,18,19
 674 1442 674 1442 752.5 1417 c 128,-1,20
 831 1392 831 1392 887 1346 c 128,-1,21
 943 1300 943 1300 974 1234 c 128,-1,22
 1005 1168 1005 1168 1005 1086 c 0,23,24
 1005 974 1005 974 941.5 886.5 c 128,-1,25
 878 799 878 799 757 748 c 1,26,27
 803 724 803 724 852.5 691.5 c 128,-1,28
 902 659 902 659 943 614 c 128,-1,29
 984 569 984 569 1010.5 508 c 128,-1,30
 1037 447 1037 447 1037 366 c 0,31,32
 1037 288 1037 288 1008.5 217 c 128,-1,33
 980 146 980 146 923 92 c 128,-1,34
 866 38 866 38 780.5 6 c 128,-1,35
 695 -26 695 -26 581 -26 c 0,0,1
580 149 m 0,36,37
 652 149 652 149 702.5 168 c 128,-1,38
 753 187 753 187 784 218.5 c 128,-1,39
 815 250 815 250 829 290 c 128,-1,40
 843 330 843 330 843 372 c 0,41,42
 843 429 843 429 822.5 476.5 c 128,-1,43
 802 524 802 524 765.5 561 c 128,-1,44
 729 598 729 598 679.5 624 c 128,-1,45
 630 650 630 650 572 663 c 1,46,47
 515 648 515 648 468 620 c 128,-1,48
 421 592 421 592 387.5 553.5 c 128,-1,49
 354 515 354 515 336 467.5 c 128,-1,50
 318 420 318 420 318 366 c 0,51,52
 318 324 318 324 332.5 285 c 128,-1,53
 347 246 347 246 378.5 216 c 128,-1,54
 410 186 410 186 459.5 167.5 c 128,-1,55
 509 149 509 149 580 149 c 0,36,37
349 1082 m 0,56,57
 349 1028 349 1028 367 985.5 c 128,-1,58
 385 943 385 943 416.5 912 c 128,-1,59
 448 881 448 881 490 861.5 c 128,-1,60
 532 842 532 842 581 833 c 1,61,62
 630 842 630 842 673 863 c 128,-1,63
 716 884 716 884 748 915.5 c 128,-1,64
 780 947 780 947 798.5 989 c 128,-1,65
 817 1031 817 1031 817 1082 c 0,66,67
 817 1125 817 1125 801 1160 c 128,-1,68
 785 1195 785 1195 754.5 1220 c 128,-1,69
 724 1245 724 1245 680.5 1259 c 128,-1,70
 637 1273 637 1273 582 1273 c 0,71,72
 531 1273 531 1273 488.5 1260 c 128,-1,73
 446 1247 446 1247 415 1222.5 c 128,-1,74
 384 1198 384 1198 366.5 1162.5 c 128,-1,75
 349 1127 349 1127 349 1082 c 0,56,57
EndSplineSet
EndChar

StartChar: nine
Encoding: 57 57 32
Width: 1133
Flags: W
LayerCount: 2
Fore
SplineSet
231 214 m 1,0,1
 379 149 379 149 480 149 c 0,2,3
 550 149 550 149 608.5 181.5 c 128,-1,4
 667 214 667 214 709.5 281.5 c 128,-1,5
 752 349 752 349 777.5 453.5 c 128,-1,6
 803 558 803 558 808 701 c 1,7,8
 784 660 784 660 750 631 c 128,-1,9
 716 602 716 602 677 583.5 c 128,-1,10
 638 565 638 565 595.5 556.5 c 128,-1,11
 553 548 553 548 513 548 c 0,12,13
 426 548 426 548 351.5 576 c 128,-1,14
 277 604 277 604 222.5 659 c 128,-1,15
 168 714 168 714 136.5 796 c 128,-1,16
 105 878 105 878 105 985 c 0,17,18
 105 1099 105 1099 139.5 1184.5 c 128,-1,19
 174 1270 174 1270 232.5 1327 c 128,-1,20
 291 1384 291 1384 369 1413 c 128,-1,21
 447 1442 447 1442 534 1442 c 0,22,23
 592 1442 592 1442 649.5 1429 c 128,-1,24
 707 1416 707 1416 759 1385.5 c 128,-1,25
 811 1355 811 1355 856 1304.5 c 128,-1,26
 901 1254 901 1254 934 1179 c 128,-1,27
 967 1104 967 1104 985.5 1002.5 c 128,-1,28
 1004 901 1004 901 1004 768 c 0,29,30
 1004 574 1004 574 966.5 426 c 128,-1,31
 929 278 929 278 861 177.5 c 128,-1,32
 793 77 793 77 699 25.5 c 128,-1,33
 605 -26 605 -26 491 -26 c 0,34,35
 419 -26 419 -26 338.5 -4.5 c 128,-1,36
 258 17 258 17 167 55 c 1,37,-1
 231 214 l 1,0,1
541 701 m 0,38,39
 600 701 600 701 647.5 723 c 128,-1,40
 695 745 695 745 728.5 781.5 c 128,-1,41
 762 818 762 818 780 867 c 128,-1,42
 798 916 798 916 798 970 c 0,43,44
 798 1035 798 1035 779.5 1089.5 c 128,-1,45
 761 1144 761 1144 727 1184 c 128,-1,46
 693 1224 693 1224 646 1246 c 128,-1,47
 599 1268 599 1268 542 1268 c 256,48,49
 485 1268 485 1268 439.5 1248.5 c 128,-1,50
 394 1229 394 1229 362 1192.5 c 128,-1,51
 330 1156 330 1156 312.5 1103.5 c 128,-1,52
 295 1051 295 1051 295 984 c 0,53,54
 295 918 295 918 312 866 c 128,-1,55
 329 814 329 814 360.5 777 c 128,-1,56
 392 740 392 740 438 720.5 c 128,-1,57
 484 701 484 701 541 701 c 0,38,39
EndSplineSet
EndChar

StartChar: colon
Encoding: 58 58 33
Width: 518
Flags: W
LayerCount: 2
Fore
SplineSet
143 1024 m 1,0,-1
 374 1024 l 1,1,-1
 374 785 l 1,2,-1
 143 785 l 1,3,-1
 143 1024 l 1,0,-1
143 239 m 1,4,-1
 374 239 l 1,5,-1
 374 0 l 1,6,-1
 143 0 l 1,7,-1
 143 239 l 1,4,-1
EndSplineSet
EndChar

StartChar: semicolon
Encoding: 59 59 34
Width: 579
Flags: W
LayerCount: 2
Fore
SplineSet
97 -233 m 1,0,-1
 207 229 l 1,1,-1
 403 229 l 1,2,-1
 220 -233 l 1,3,-1
 97 -233 l 1,0,-1
191 1024 m 1,4,-1
 422 1024 l 1,5,-1
 422 785 l 1,6,-1
 191 785 l 1,7,-1
 191 1024 l 1,4,-1
EndSplineSet
EndChar

StartChar: less
Encoding: 60 60 35
Width: 1164
Flags: W
LayerCount: 2
Fore
SplineSet
1025 111 m 1,0,-1
 77 510 l 1,1,-1
 77 651 l 1,2,-1
 1025 1074 l 1,3,-1
 1025 899 l 1,4,-1
 293 585 l 1,5,-1
 1025 289 l 1,6,-1
 1025 111 l 1,0,-1
EndSplineSet
EndChar

StartChar: equal
Encoding: 61 61 36
Width: 1268
Flags: W
LayerCount: 2
Fore
SplineSet
160 700 m 1,0,-1
 160 860 l 1,1,-1
 1108 860 l 1,2,-1
 1108 700 l 1,3,-1
 160 700 l 1,0,-1
160 308 m 1,4,-1
 160 470 l 1,5,-1
 1108 470 l 1,6,-1
 1108 308 l 1,7,-1
 160 308 l 1,4,-1
EndSplineSet
EndChar

StartChar: greater
Encoding: 62 62 37
Width: 1164
Flags: W
LayerCount: 2
Fore
SplineSet
139 289 m 1,0,-1
 871 585 l 1,1,-1
 139 899 l 1,2,-1
 139 1074 l 1,3,-1
 1087 651 l 1,4,-1
 1087 510 l 1,5,-1
 139 111 l 1,6,-1
 139 289 l 1,0,-1
EndSplineSet
EndChar

StartChar: question
Encoding: 63 63 38
Width: 882
Flags: W
LayerCount: 2
Fore
SplineSet
283 363 m 1,0,-1
 283 442 l 2,1,2
 283 492 283 492 287.5 532 c 128,-1,3
 292 572 292 572 305.5 609 c 128,-1,4
 319 646 319 646 344.5 682 c 128,-1,5
 370 718 370 718 412 760 c 0,6,7
 455 803 455 803 491.5 842 c 128,-1,8
 528 881 528 881 553.5 918 c 128,-1,9
 579 955 579 955 593.5 993 c 128,-1,10
 608 1031 608 1031 608 1073 c 0,11,12
 608 1132 608 1132 583.5 1170 c 128,-1,13
 559 1208 559 1208 523 1229.5 c 128,-1,14
 487 1251 487 1251 446 1259.5 c 128,-1,15
 405 1268 405 1268 372 1268 c 0,16,17
 327 1268 327 1268 257.5 1253.5 c 128,-1,18
 188 1239 188 1239 95 1198 c 1,19,-1
 65 1373 l 1,20,21
 125 1399 125 1399 203 1420.5 c 128,-1,22
 281 1442 281 1442 378 1442 c 0,23,24
 476 1442 476 1442 555 1418 c 128,-1,25
 634 1394 634 1394 689 1348 c 128,-1,26
 744 1302 744 1302 773.5 1236 c 128,-1,27
 803 1170 803 1170 803 1086 c 0,28,29
 803 1024 803 1024 789.5 975.5 c 128,-1,30
 776 927 776 927 748 883.5 c 128,-1,31
 720 840 720 840 678.5 796.5 c 128,-1,32
 637 753 637 753 580 700 c 0,33,34
 537 660 537 660 510 632 c 128,-1,35
 483 604 483 604 468 576.5 c 128,-1,36
 453 549 453 549 447.5 516 c 128,-1,37
 442 483 442 483 442 433 c 2,38,-1
 442 363 l 1,39,-1
 283 363 l 1,0,-1
256 211 m 1,40,-1
 469 211 l 1,41,-1
 469 0 l 1,42,-1
 256 0 l 1,43,-1
 256 211 l 1,40,-1
EndSplineSet
EndChar

StartChar: at
Encoding: 64 64 39
Width: 1642
Flags: W
LayerCount: 2
Fore
SplineSet
834 -77 m 0,0,1
 667 -77 667 -77 531 -26.5 c 128,-1,2
 395 24 395 24 299 118 c 128,-1,3
 203 212 203 212 150.5 346 c 128,-1,4
 98 480 98 480 98 647 c 0,5,6
 98 769 98 769 126 876 c 128,-1,7
 154 983 154 983 205.5 1071 c 128,-1,8
 257 1159 257 1159 329 1228 c 128,-1,9
 401 1297 401 1297 489 1344.5 c 128,-1,10
 577 1392 577 1392 678 1417 c 128,-1,11
 779 1442 779 1442 888 1442 c 0,12,13
 1024 1442 1024 1442 1145 1401 c 128,-1,14
 1266 1360 1266 1360 1357 1279.5 c 128,-1,15
 1448 1199 1448 1199 1501 1080.5 c 128,-1,16
 1554 962 1554 962 1554 807 c 0,17,18
 1554 701 1554 701 1525 608.5 c 128,-1,19
 1496 516 1496 516 1445.5 447.5 c 128,-1,20
 1395 379 1395 379 1328 339.5 c 128,-1,21
 1261 300 1261 300 1185 300 c 256,22,23
 1109 300 1109 300 1065.5 345.5 c 128,-1,24
 1022 391 1022 391 1019 485 c 1,25,26
 997 452 997 452 972 419 c 128,-1,27
 947 386 947 386 914.5 359.5 c 128,-1,28
 882 333 882 333 842 316.5 c 128,-1,29
 802 300 802 300 750 300 c 0,30,31
 690 300 690 300 639 321 c 128,-1,32
 588 342 588 342 550 381 c 128,-1,33
 512 420 512 420 490.5 476 c 128,-1,34
 469 532 469 532 469 601 c 0,35,36
 469 692 469 692 493.5 780 c 128,-1,37
 518 868 518 868 566.5 937 c 128,-1,38
 615 1006 615 1006 689 1048 c 128,-1,39
 763 1090 763 1090 862 1090 c 0,40,41
 913 1090 913 1090 963 1067.5 c 128,-1,42
 1013 1045 1013 1045 1058 1000 c 1,43,44
 1058 1011 1058 1011 1060.5 1023 c 128,-1,45
 1063 1035 1063 1035 1065 1045 c 2,46,-1
 1069 1068 l 1,47,-1
 1208 1049 l 1,48,-1
 1134 646 l 1,49,50
 1126 608 1126 608 1123 576.5 c 128,-1,51
 1120 545 1120 545 1120 521 c 0,52,53
 1120 461 1120 461 1141.5 437 c 128,-1,54
 1163 413 1163 413 1209 413 c 0,55,56
 1253 413 1253 413 1293 443.5 c 128,-1,57
 1333 474 1333 474 1364 527.5 c 128,-1,58
 1395 581 1395 581 1413 654 c 128,-1,59
 1431 727 1431 727 1431 813 c 0,60,61
 1431 940 1431 940 1388 1035.5 c 128,-1,62
 1345 1131 1345 1131 1270.5 1195 c 128,-1,63
 1196 1259 1196 1259 1097.5 1290.5 c 128,-1,64
 999 1322 999 1322 888 1322 c 0,65,66
 742 1322 742 1322 619.5 1275 c 128,-1,67
 497 1228 497 1228 408.5 1140.5 c 128,-1,68
 320 1053 320 1053 270.5 928 c 128,-1,69
 221 803 221 803 221 647 c 0,70,71
 221 504 221 504 264.5 392 c 128,-1,72
 308 280 308 280 388.5 202 c 128,-1,73
 469 124 469 124 582.5 83 c 128,-1,74
 696 42 696 42 837 42 c 0,75,76
 906 42 906 42 970.5 53.5 c 128,-1,77
 1035 65 1035 65 1094.5 84.5 c 128,-1,78
 1154 104 1154 104 1209.5 129.5 c 128,-1,79
 1265 155 1265 155 1316 183 c 1,80,-1
 1347 72 l 1,81,82
 1292 39 1292 39 1233.5 11.5 c 128,-1,83
 1175 -16 1175 -16 1112 -35.5 c 128,-1,84
 1049 -55 1049 -55 980 -66 c 128,-1,85
 911 -77 911 -77 834 -77 c 0,0,1
782 423 m 0,86,87
 823 423 823 423 853.5 439 c 128,-1,88
 884 455 884 455 906 481 c 128,-1,89
 928 507 928 507 943.5 540 c 128,-1,90
 959 573 959 573 969.5 607.5 c 128,-1,91
 980 642 980 642 987.5 675 c 128,-1,92
 995 708 995 708 1002 733 c 1,93,-1
 1038 940 l 1,94,-1
 969 954 l 2,95,96
 941 959 941 959 917.5 964 c 128,-1,97
 894 969 894 969 880 969 c 0,98,99
 817 969 817 969 768 936.5 c 128,-1,100
 719 904 719 904 685.5 853.5 c 128,-1,101
 652 803 652 803 634.5 742.5 c 128,-1,102
 617 682 617 682 617 626 c 1,103,104
 619 529 619 529 661 476 c 128,-1,105
 703 423 703 423 782 423 c 0,86,87
EndSplineSet
EndChar

StartChar: A
Encoding: 65 65 40
Width: 1295
Flags: W
LayerCount: 2
Fore
SplineSet
19 64 m 1,0,-1
 553 1412 l 1,1,-1
 746 1412 l 1,2,-1
 1273 59 l 1,3,-1
 1273 0 l 1,4,-1
 1084 0 l 1,5,-1
 932 396 l 1,6,-1
 349 396 l 1,7,-1
 195 0 l 1,8,-1
 19 0 l 1,9,-1
 19 64 l 1,0,-1
547 928 m 1,10,-1
 414 568 l 1,11,-1
 869 568 l 1,12,-1
 739 928 l 1,13,-1
 644 1198 l 1,14,-1
 547 928 l 1,10,-1
EndSplineSet
EndChar

StartChar: B
Encoding: 66 66 41
Width: 1269
Flags: W
LayerCount: 2
Fore
SplineSet
60 1412 m 1,0,-1
 615 1412 l 2,1,2
 734 1412 734 1412 828 1393.5 c 128,-1,3
 922 1375 922 1375 987.5 1332.5 c 128,-1,4
 1053 1290 1053 1290 1087.5 1221.5 c 128,-1,5
 1122 1153 1122 1153 1122 1054 c 0,6,7
 1122 991 1122 991 1102 940 c 128,-1,8
 1082 889 1082 889 1049.5 850.5 c 128,-1,9
 1017 812 1017 812 976 784.5 c 128,-1,10
 935 757 935 757 892 740 c 1,11,12
 941 725 941 725 990 700 c 128,-1,13
 1039 675 1039 675 1077 635.5 c 128,-1,14
 1115 596 1115 596 1139 538 c 128,-1,15
 1163 480 1163 480 1163 399 c 0,16,17
 1163 283 1163 283 1120 206.5 c 128,-1,18
 1077 130 1077 130 1005 84 c 128,-1,19
 933 38 933 38 840 19 c 128,-1,20
 747 0 747 0 648 0 c 2,21,-1
 190 0 l 1,22,-1
 190 1242 l 1,23,-1
 60 1242 l 1,24,-1
 60 1412 l 1,0,-1
387 821 m 1,25,-1
 637 821 l 2,26,27
 686 821 686 821 736.5 829 c 128,-1,28
 787 837 787 837 827.5 860 c 128,-1,29
 868 883 868 883 893.5 925.5 c 128,-1,30
 919 968 919 968 919 1037 c 256,31,32
 919 1106 919 1106 895 1146.5 c 128,-1,33
 871 1187 871 1187 831 1208 c 128,-1,34
 791 1229 791 1229 739 1235.5 c 128,-1,35
 687 1242 687 1242 631 1242 c 2,36,-1
 387 1242 l 1,37,-1
 387 821 l 1,25,-1
386 647 m 1,38,-1
 386 170 l 1,39,-1
 678 170 l 1,40,41
 817 174 817 174 887.5 232 c 128,-1,42
 958 290 958 290 958 410 c 0,43,44
 958 461 958 461 942 504.5 c 128,-1,45
 926 548 926 548 891.5 579.5 c 128,-1,46
 857 611 857 611 804 629 c 128,-1,47
 751 647 751 647 677 647 c 2,48,-1
 386 647 l 1,38,-1
EndSplineSet
EndChar

StartChar: C
Encoding: 67 67 42
Width: 1236
Flags: W
LayerCount: 2
Fore
SplineSet
1162 93 m 1,0,1
 1041 32 1041 32 934 3 c 128,-1,2
 827 -26 827 -26 730 -26 c 0,3,4
 618 -26 618 -26 528.5 2 c 128,-1,5
 439 30 439 30 369.5 80.5 c 128,-1,6
 300 131 300 131 250 201 c 128,-1,7
 200 271 200 271 168 355.5 c 128,-1,8
 136 440 136 440 120.5 536 c 128,-1,9
 105 632 105 632 105 735 c 0,10,11
 105 858 105 858 130.5 958 c 128,-1,12
 156 1058 156 1058 200.5 1136.5 c 128,-1,13
 245 1215 245 1215 305.5 1272.5 c 128,-1,14
 366 1330 366 1330 435.5 1367.5 c 128,-1,15
 505 1405 505 1405 580.5 1423.5 c 128,-1,16
 656 1442 656 1442 730 1442 c 0,17,18
 812 1442 812 1442 888.5 1419.5 c 128,-1,19
 965 1397 965 1397 1028 1353.5 c 128,-1,20
 1091 1310 1091 1310 1135 1245 c 128,-1,21
 1179 1180 1179 1180 1196 1095 c 1,22,-1
 1009 1051 l 1,23,24
 1001 1103 1001 1103 976 1143.5 c 128,-1,25
 951 1184 951 1184 913.5 1211.5 c 128,-1,26
 876 1239 876 1239 829.5 1253.5 c 128,-1,27
 783 1268 783 1268 732 1268 c 0,28,29
 659 1268 659 1268 584.5 1238 c 128,-1,30
 510 1208 510 1208 449.5 1144 c 128,-1,31
 389 1080 389 1080 351 979 c 128,-1,32
 313 878 313 878 313 737 c 0,33,34
 313 662 313 662 321.5 589.5 c 128,-1,35
 330 517 330 517 350 451.5 c 128,-1,36
 370 386 370 386 402.5 330.5 c 128,-1,37
 435 275 435 275 483.5 235 c 128,-1,38
 532 195 532 195 597.5 172 c 128,-1,39
 663 149 663 149 749 149 c 0,40,41
 824 149 824 149 910 173.5 c 128,-1,42
 996 198 996 198 1096 247 c 1,43,-1
 1162 93 l 1,0,1
EndSplineSet
EndChar

StartChar: D
Encoding: 68 68 43
Width: 1400
Flags: W
LayerCount: 2
Fore
SplineSet
1289 706 m 0,0,1
 1289 572 1289 572 1263.5 468 c 128,-1,2
 1238 364 1238 364 1191.5 285.5 c 128,-1,3
 1145 207 1145 207 1079.5 152.5 c 128,-1,4
 1014 98 1014 98 933.5 64 c 128,-1,5
 853 30 853 30 760.5 15 c 128,-1,6
 668 0 668 0 568 0 c 2,7,-1
 190 0 l 1,8,-1
 190 1242 l 1,9,-1
 50 1242 l 1,10,-1
 50 1412 l 1,11,-1
 592 1412 l 2,12,13
 745 1412 745 1412 873 1372 c 128,-1,14
 1001 1332 1001 1332 1093.5 1246.5 c 128,-1,15
 1186 1161 1186 1161 1237.5 1027 c 128,-1,16
 1289 893 1289 893 1289 706 c 0,0,1
1080 699 m 0,17,18
 1080 826 1080 826 1053.5 926.5 c 128,-1,19
 1027 1027 1027 1027 969 1097 c 128,-1,20
 911 1167 911 1167 819 1204.5 c 128,-1,21
 727 1242 727 1242 595 1242 c 2,22,-1
 385 1242 l 1,23,-1
 385 170 l 1,24,-1
 554 170 l 1,25,26
 692 172 692 172 791.5 203.5 c 128,-1,27
 891 235 891 235 955 299.5 c 128,-1,28
 1019 364 1019 364 1049.5 463 c 128,-1,29
 1080 562 1080 562 1080 699 c 0,17,18
EndSplineSet
EndChar

StartChar: E
Encoding: 69 69 44
Width: 1138
Flags: W
LayerCount: 2
Fore
SplineSet
190 1242 m 1,0,-1
 60 1242 l 1,1,-1
 60 1412 l 1,2,-1
 1008 1412 l 1,3,-1
 1008 1242 l 1,4,-1
 386 1242 l 1,5,-1
 386 818 l 1,6,-1
 973 818 l 1,7,-1
 973 643 l 1,8,-1
 386 643 l 1,9,-1
 386 170 l 1,10,-1
 1017 170 l 1,11,-1
 1017 0 l 1,12,-1
 190 0 l 1,13,-1
 190 1242 l 1,0,-1
EndSplineSet
EndChar

StartChar: F
Encoding: 70 70 45
Width: 1076
Flags: W
LayerCount: 2
Fore
SplineSet
61 1412 m 1,0,-1
 986 1412 l 1,1,-1
 986 1242 l 1,2,-1
 391 1242 l 1,3,-1
 391 789 l 1,4,-1
 950 789 l 1,5,-1
 950 614 l 1,6,-1
 391 614 l 1,7,-1
 391 0 l 1,8,-1
 191 0 l 1,9,-1
 191 1242 l 1,10,-1
 61 1242 l 1,11,-1
 61 1412 l 1,0,-1
EndSplineSet
EndChar

StartChar: G
Encoding: 71 71 46
Width: 1368
Flags: W
LayerCount: 2
Fore
SplineSet
871 751 m 1,0,-1
 1231 751 l 1,1,-1
 1231 54 l 1,2,3
 1181 38 1181 38 1128.5 23.5 c 128,-1,4
 1076 9 1076 9 1017 -2 c 128,-1,5
 958 -13 958 -13 892.5 -19.5 c 128,-1,6
 827 -26 827 -26 752 -26 c 0,7,8
 587 -26 587 -26 465 28.5 c 128,-1,9
 343 83 343 83 263 180 c 128,-1,10
 183 277 183 277 144 410 c 128,-1,11
 105 543 105 543 105 700 c 0,12,13
 105 840 105 840 132 949.5 c 128,-1,14
 159 1059 159 1059 206 1141.5 c 128,-1,15
 253 1224 253 1224 316.5 1281.5 c 128,-1,16
 380 1339 380 1339 453 1374.5 c 128,-1,17
 526 1410 526 1410 605.5 1426 c 128,-1,18
 685 1442 685 1442 763 1442 c 0,19,20
 806 1442 806 1442 853 1435.5 c 128,-1,21
 900 1429 900 1429 946 1413 c 128,-1,22
 992 1397 992 1397 1034.5 1371 c 128,-1,23
 1077 1345 1077 1345 1111.5 1306 c 128,-1,24
 1146 1267 1146 1267 1170 1214.5 c 128,-1,25
 1194 1162 1194 1162 1203 1093 c 1,26,-1
 1027 1051 l 1,27,28
 1002 1161 1002 1161 931.5 1214.5 c 128,-1,29
 861 1268 861 1268 767 1268 c 0,30,31
 683 1268 683 1268 602 1242 c 128,-1,32
 521 1216 521 1216 456.5 1152 c 128,-1,33
 392 1088 392 1088 352.5 979 c 128,-1,34
 313 870 313 870 313 704 c 0,35,36
 313 578 313 578 337.5 476 c 128,-1,37
 362 374 362 374 417.5 301 c 128,-1,38
 473 228 473 228 563 188.5 c 128,-1,39
 653 149 653 149 785 149 c 0,40,41
 867 149 867 149 924.5 157.5 c 128,-1,42
 982 166 982 166 1027 175 c 1,43,-1
 1041 175 l 1,44,-1
 1041 579 l 1,45,-1
 871 599 l 1,46,-1
 871 751 l 1,0,-1
EndSplineSet
EndChar

StartChar: H
Encoding: 72 72 47
Width: 1417
Flags: W
LayerCount: 2
Fore
SplineSet
191 1412 m 1,0,-1
 388 1412 l 1,1,-1
 388 818 l 1,2,-1
 1029 818 l 1,3,-1
 1029 1412 l 1,4,-1
 1226 1412 l 1,5,-1
 1226 0 l 1,6,-1
 1029 0 l 1,7,-1
 1029 640 l 1,8,-1
 388 640 l 1,9,-1
 388 0 l 1,10,-1
 191 0 l 1,11,-1
 191 1412 l 1,0,-1
EndSplineSet
EndChar

StartChar: I
Encoding: 73 73 48
Width: 577
Flags: W
LayerCount: 2
Fore
SplineSet
191 0 m 1,0,-1
 191 1412 l 1,1,-1
 387 1412 l 1,2,-1
 387 0 l 1,3,-1
 191 0 l 1,0,-1
EndSplineSet
EndChar

StartChar: J
Encoding: 74 74 49
Width: 575
Flags: W
LayerCount: 2
Fore
SplineSet
31 1412 m 1,0,-1
 385 1412 l 1,1,-1
 385 126 l 2,2,3
 385 22 385 22 360.5 -53 c 128,-1,4
 336 -128 336 -128 294 -177 c 128,-1,5
 252 -226 252 -226 196 -249.5 c 128,-1,6
 140 -273 140 -273 76 -273 c 0,7,8
 21 -273 21 -273 -37 -256.5 c 128,-1,9
 -95 -240 -95 -240 -152 -208 c 1,10,-1
 -117 -57 l 1,11,12
 -78 -77 -78 -77 -40.5 -89.5 c 128,-1,13
 -3 -102 -3 -102 31 -102 c 256,14,15
 65 -102 65 -102 94.5 -91.5 c 128,-1,16
 124 -81 124 -81 145.5 -55.5 c 128,-1,17
 167 -30 167 -30 179 14 c 128,-1,18
 191 58 191 58 191 125 c 2,19,-1
 191 1242 l 1,20,-1
 31 1242 l 1,21,-1
 31 1412 l 1,0,-1
EndSplineSet
EndChar

StartChar: K
Encoding: 75 75 50
Width: 1231
Flags: W
LayerCount: 2
Fore
SplineSet
1244 0 m 1,0,-1
 988 0 l 1,1,-1
 443 706 l 1,2,-1
 387 636 l 1,3,-1
 387 0 l 1,4,-1
 191 0 l 1,5,-1
 191 1412 l 1,6,-1
 387 1412 l 1,7,-1
 387 769 l 1,8,-1
 494 896 l 1,9,-1
 948 1412 l 1,10,-1
 1200 1412 l 1,11,-1
 626 785 l 1,12,-1
 1244 0 l 1,0,-1
EndSplineSet
EndChar

StartChar: L
Encoding: 76 76 51
Width: 1025
Flags: W
LayerCount: 2
Fore
SplineSet
190 0 m 1,0,-1
 190 1412 l 1,1,-1
 387 1412 l 1,2,-1
 387 170 l 1,3,-1
 991 170 l 1,4,-1
 991 0 l 1,5,-1
 190 0 l 1,0,-1
EndSplineSet
EndChar

StartChar: M
Encoding: 77 77 52
Width: 1789
Flags: W
LayerCount: 2
Fore
SplineSet
1404 0 m 1,0,-1
 1404 735 l 2,1,2
 1404 749 1404 749 1404 795.5 c 128,-1,3
 1404 842 1404 842 1404.5 902 c 128,-1,4
 1405 962 1405 962 1406 1027.5 c 128,-1,5
 1407 1093 1407 1093 1408 1146 c 1,6,-1
 1384 1150 l 1,7,-1
 971 0 l 1,8,-1
 797 0 l 1,9,-1
 398 1139 l 1,10,-1
 373 1135 l 1,11,12
 374 1082 374 1082 375 1017.5 c 128,-1,13
 376 953 376 953 377 893.5 c 128,-1,14
 378 834 378 834 378.5 788.5 c 128,-1,15
 379 743 379 743 379 728 c 2,16,-1
 379 0 l 1,17,-1
 190 0 l 1,18,-1
 190 1412 l 1,19,-1
 505 1412 l 1,20,-1
 889 252 l 1,21,-1
 1296 1412 l 1,22,-1
 1599 1412 l 1,23,-1
 1599 0 l 1,24,-1
 1404 0 l 1,0,-1
EndSplineSet
EndChar

StartChar: N
Encoding: 78 78 53
Width: 1487
Flags: W
LayerCount: 2
Fore
SplineSet
191 0 m 1,0,-1
 191 1412 l 1,1,-1
 437 1412 l 1,2,-1
 1096 305 l 1,3,-1
 1118 310 l 1,4,5
 1117 342 1117 342 1116 383.5 c 128,-1,6
 1115 425 1115 425 1114.5 469.5 c 128,-1,7
 1114 514 1114 514 1113.5 558 c 128,-1,8
 1113 602 1113 602 1112.5 639.5 c 128,-1,9
 1112 677 1112 677 1112 704 c 128,-1,10
 1112 731 1112 731 1112 742 c 2,11,-1
 1112 1412 l 1,12,-1
 1296 1412 l 1,13,-1
 1296 0 l 1,14,-1
 1059 0 l 1,15,-1
 387 1123 l 1,16,-1
 366 1118 l 1,17,18
 367 1085 367 1085 368 1043 c 128,-1,19
 369 1001 369 1001 369.5 955.5 c 128,-1,20
 370 910 370 910 370.5 864.5 c 128,-1,21
 371 819 371 819 371.5 781 c 128,-1,22
 372 743 372 743 372 714.5 c 128,-1,23
 372 686 372 686 372 675 c 2,24,-1
 372 0 l 1,25,-1
 191 0 l 1,0,-1
EndSplineSet
EndChar

StartChar: O
Encoding: 79 79 54
Width: 1483
Flags: W
LayerCount: 2
Fore
SplineSet
742 -26 m 0,0,1
 626 -26 626 -26 534.5 1.5 c 128,-1,2
 443 29 443 29 373 78 c 128,-1,3
 303 127 303 127 253.5 195 c 128,-1,4
 204 263 204 263 172.5 344 c 128,-1,5
 141 425 141 425 126.5 516 c 128,-1,6
 112 607 112 607 112 703 c 0,7,8
 112 801 112 801 127.5 894 c 128,-1,9
 143 987 143 987 175.5 1069 c 128,-1,10
 208 1151 208 1151 258.5 1219.5 c 128,-1,11
 309 1288 309 1288 379 1337.5 c 128,-1,12
 449 1387 449 1387 539.5 1414.5 c 128,-1,13
 630 1442 630 1442 742 1442 c 256,14,15
 854 1442 854 1442 944.5 1414.5 c 128,-1,16
 1035 1387 1035 1387 1105 1337.5 c 128,-1,17
 1175 1288 1175 1288 1225.5 1219.5 c 128,-1,18
 1276 1151 1276 1151 1308 1069 c 128,-1,19
 1340 987 1340 987 1355.5 894 c 128,-1,20
 1371 801 1371 801 1371 703 c 0,21,22
 1371 559 1371 559 1338 427.5 c 128,-1,23
 1305 296 1305 296 1230.5 195 c 128,-1,24
 1156 94 1156 94 1036 34 c 128,-1,25
 916 -26 916 -26 742 -26 c 0,0,1
742 149 m 0,26,27
 866 149 866 149 947.5 194 c 128,-1,28
 1029 239 1029 239 1077 316 c 128,-1,29
 1125 393 1125 393 1144.5 494 c 128,-1,30
 1164 595 1164 595 1164 708 c 0,31,32
 1164 825 1164 825 1143.5 927 c 128,-1,33
 1123 1029 1123 1029 1074 1105 c 128,-1,34
 1025 1181 1025 1181 944 1224.5 c 128,-1,35
 863 1268 863 1268 742 1268 c 256,36,37
 621 1268 621 1268 540 1224.5 c 128,-1,38
 459 1181 459 1181 410 1105 c 128,-1,39
 361 1029 361 1029 340 927 c 128,-1,40
 319 825 319 825 319 708 c 0,41,42
 319 595 319 595 338.5 494 c 128,-1,43
 358 393 358 393 406 316 c 128,-1,44
 454 239 454 239 535.5 194 c 128,-1,45
 617 149 617 149 742 149 c 0,26,27
EndSplineSet
EndChar

StartChar: P
Encoding: 80 80 55
Width: 1160
Flags: W
LayerCount: 2
Fore
SplineSet
61 1412 m 1,0,-1
 608 1412 l 2,1,2
 714 1412 714 1412 804 1391 c 128,-1,3
 894 1370 894 1370 960 1322.5 c 128,-1,4
 1026 1275 1026 1275 1063.5 1198 c 128,-1,5
 1101 1121 1101 1121 1101 1010 c 0,6,7
 1101 925 1101 925 1075 848.5 c 128,-1,8
 1049 772 1049 772 987.5 714 c 128,-1,9
 926 656 926 656 824 621.5 c 128,-1,10
 722 587 722 587 571 587 c 2,11,-1
 387 587 l 1,12,-1
 387 0 l 1,13,-1
 191 0 l 1,14,-1
 191 1242 l 1,15,-1
 61 1242 l 1,16,-1
 61 1412 l 1,0,-1
387 757 m 1,17,-1
 482 757 l 2,18,19
 532 757 532 757 582.5 758 c 128,-1,20
 633 759 633 759 679 766 c 128,-1,21
 725 773 725 773 764.5 788 c 128,-1,22
 804 803 804 803 833.5 831.5 c 128,-1,23
 863 860 863 860 879.5 903.5 c 128,-1,24
 896 947 896 947 896 1010 c 0,25,26
 896 1084 896 1084 871 1129.5 c 128,-1,27
 846 1175 846 1175 805 1200 c 128,-1,28
 764 1225 764 1225 711 1233.5 c 128,-1,29
 658 1242 658 1242 601 1242 c 2,30,-1
 387 1242 l 1,31,-1
 387 757 l 1,17,-1
EndSplineSet
EndChar

StartChar: Q
Encoding: 81 81 56
Width: 1467
Flags: W
LayerCount: 2
Fore
SplineSet
1352 722 m 0,0,1
 1352 641 1352 641 1338.5 555.5 c 128,-1,2
 1325 470 1325 470 1292 387.5 c 128,-1,3
 1259 305 1259 305 1203.5 229 c 128,-1,4
 1148 153 1148 153 1064 92 c 1,5,6
 1097 83 1097 83 1137 69.5 c 128,-1,7
 1177 56 1177 56 1217.5 40 c 128,-1,8
 1258 24 1258 24 1295.5 7.5 c 128,-1,9
 1333 -9 1333 -9 1362 -25 c 1,10,-1
 1305 -180 l 1,11,12
 1166 -125 1166 -125 1031.5 -88.5 c 128,-1,13
 897 -52 897 -52 752 -24 c 1,14,15
 738 -25 738 -25 725 -25.5 c 128,-1,16
 712 -26 712 -26 698 -26 c 0,17,18
 565 -26 565 -26 456.5 23 c 128,-1,19
 348 72 348 72 271.5 166 c 128,-1,20
 195 260 195 260 153 395 c 128,-1,21
 111 530 111 530 111 703 c 0,22,23
 111 801 111 801 127.5 894 c 128,-1,24
 144 987 144 987 177 1069 c 128,-1,25
 210 1151 210 1151 260.5 1219.5 c 128,-1,26
 311 1288 311 1288 379.5 1337.5 c 128,-1,27
 448 1387 448 1387 535 1414.5 c 128,-1,28
 622 1442 622 1442 728 1442 c 0,29,30
 840 1442 840 1442 930 1415.5 c 128,-1,31
 1020 1389 1020 1389 1089.5 1341 c 128,-1,32
 1159 1293 1159 1293 1208.5 1226.5 c 128,-1,33
 1258 1160 1258 1160 1290 1080 c 128,-1,34
 1322 1000 1322 1000 1337 909 c 128,-1,35
 1352 818 1352 818 1352 722 c 0,0,1
319 700 m 0,36,37
 319 595 319 595 339.5 495.5 c 128,-1,38
 360 396 360 396 408 319 c 128,-1,39
 456 242 456 242 535 195.5 c 128,-1,40
 614 149 614 149 730 149 c 0,41,42
 816 149 816 149 881 173.5 c 128,-1,43
 946 198 946 198 992.5 240 c 128,-1,44
 1039 282 1039 282 1069.5 338 c 128,-1,45
 1100 394 1100 394 1117.5 455.5 c 128,-1,46
 1135 517 1135 517 1142 581 c 128,-1,47
 1149 645 1149 645 1149 704 c 0,48,49
 1149 836 1149 836 1123 940.5 c 128,-1,50
 1097 1045 1097 1045 1045 1117.5 c 128,-1,51
 993 1190 993 1190 915 1229 c 128,-1,52
 837 1268 837 1268 733 1268 c 0,53,54
 648 1268 648 1268 584.5 1242.5 c 128,-1,55
 521 1217 521 1217 475 1174 c 128,-1,56
 429 1131 429 1131 399 1074 c 128,-1,57
 369 1017 369 1017 351 954 c 128,-1,58
 333 891 333 891 326 825.5 c 128,-1,59
 319 760 319 760 319 700 c 0,36,37
EndSplineSet
EndChar

StartChar: R
Encoding: 82 82 57
Width: 1284
Flags: W
LayerCount: 2
Fore
SplineSet
61 1412 m 1,0,-1
 624 1412 l 2,1,2
 716 1412 716 1412 804 1394 c 128,-1,3
 892 1376 892 1376 960.5 1333 c 128,-1,4
 1029 1290 1029 1290 1071 1219 c 128,-1,5
 1113 1148 1113 1148 1113 1043 c 0,6,7
 1113 975 1113 975 1095 920.5 c 128,-1,8
 1077 866 1077 866 1043.5 822.5 c 128,-1,9
 1010 779 1010 779 962 747 c 128,-1,10
 914 715 914 715 854 692 c 1,11,12
 934 673 934 673 981 643 c 128,-1,13
 1028 613 1028 613 1053.5 571 c 128,-1,14
 1079 529 1079 529 1090.5 473.5 c 128,-1,15
 1102 418 1102 418 1112 347.5 c 128,-1,16
 1122 277 1122 277 1136.5 190.5 c 128,-1,17
 1151 104 1151 104 1183 0 c 1,18,-1
 973 0 l 1,19,20
 952 109 952 109 940.5 196.5 c 128,-1,21
 929 284 929 284 917 351.5 c 128,-1,22
 905 419 905 419 888.5 467.5 c 128,-1,23
 872 516 872 516 841.5 547 c 128,-1,24
 811 578 811 578 761.5 592.5 c 128,-1,25
 712 607 712 607 635 607 c 2,26,-1
 387 607 l 1,27,-1
 387 0 l 1,28,-1
 191 0 l 1,29,-1
 191 1242 l 1,30,-1
 61 1242 l 1,31,-1
 61 1412 l 1,0,-1
386 755 m 1,32,-1
 618 755 l 2,33,34
 679 755 679 755 732 769 c 128,-1,35
 785 783 785 783 824.5 814 c 128,-1,36
 864 845 864 845 886.5 895.5 c 128,-1,37
 909 946 909 946 909 1019 c 0,38,39
 909 1097 909 1097 880 1141.5 c 128,-1,40
 851 1186 851 1186 805 1208.5 c 128,-1,41
 759 1231 759 1231 702.5 1236.5 c 128,-1,42
 646 1242 646 1242 592 1242 c 2,43,-1
 386 1242 l 1,44,-1
 386 755 l 1,32,-1
EndSplineSet
EndChar

StartChar: S
Encoding: 83 83 58
Width: 1095
Flags: W
LayerCount: 2
Fore
SplineSet
489 149 m 0,0,1
 571 149 571 149 630.5 167 c 128,-1,2
 690 185 690 185 728.5 216.5 c 128,-1,3
 767 248 767 248 785.5 290.5 c 128,-1,4
 804 333 804 333 804 383 c 256,5,6
 804 433 804 433 787 470.5 c 128,-1,7
 770 508 770 508 733.5 538 c 128,-1,8
 697 568 697 568 639 595 c 128,-1,9
 581 622 581 622 500 651 c 0,10,11
 394 689 394 689 321.5 731.5 c 128,-1,12
 249 774 249 774 204 824.5 c 128,-1,13
 159 875 159 875 139.5 935.5 c 128,-1,14
 120 996 120 996 120 1070 c 0,15,16
 120 1161 120 1161 154 1230.5 c 128,-1,17
 188 1300 188 1300 247.5 1347 c 128,-1,18
 307 1394 307 1394 387.5 1418 c 128,-1,19
 468 1442 468 1442 561 1442 c 0,20,21
 658 1442 658 1442 762 1409.5 c 128,-1,22
 866 1377 866 1377 975 1305 c 1,23,-1
 898 1159 l 1,24,25
 807 1217 807 1217 723.5 1242.5 c 128,-1,26
 640 1268 640 1268 565 1268 c 0,27,28
 441 1268 441 1268 376 1216.5 c 128,-1,29
 311 1165 311 1165 311 1074 c 0,30,31
 311 1023 311 1023 325 986.5 c 128,-1,32
 339 950 339 950 371 922 c 128,-1,33
 403 894 403 894 454.5 870 c 128,-1,34
 506 846 506 846 582 821 c 0,35,36
 715 776 715 776 796 730 c 128,-1,37
 877 684 877 684 921 634 c 128,-1,38
 965 584 965 584 979.5 526.5 c 128,-1,39
 994 469 994 469 994 401 c 0,40,41
 994 302 994 302 960.5 223 c 128,-1,42
 927 144 927 144 864 88.5 c 128,-1,43
 801 33 801 33 709.5 3.5 c 128,-1,44
 618 -26 618 -26 501 -26 c 0,45,46
 410 -26 410 -26 306 2 c 128,-1,47
 202 30 202 30 87 93 c 1,48,-1
 151 249 l 1,49,50
 248 198 248 198 331 173.5 c 128,-1,51
 414 149 414 149 489 149 c 0,0,1
EndSplineSet
EndChar

StartChar: T
Encoding: 84 84 59
Width: 1140
Flags: W
LayerCount: 2
Fore
SplineSet
668 0 m 1,0,-1
 473 0 l 1,1,-1
 473 1242 l 1,2,-1
 35 1242 l 1,3,-1
 35 1412 l 1,4,-1
 1106 1412 l 1,5,-1
 1106 1242 l 1,6,-1
 668 1242 l 1,7,-1
 668 0 l 1,0,-1
EndSplineSet
EndChar

StartChar: U
Encoding: 85 85 60
Width: 1441
Flags: W
LayerCount: 2
Fore
SplineSet
1266 1412 m 1,0,-1
 1266 524 l 2,1,2
 1266 400 1266 400 1226.5 298.5 c 128,-1,3
 1187 197 1187 197 1115 125 c 128,-1,4
 1043 53 1043 53 942.5 13.5 c 128,-1,5
 842 -26 842 -26 721 -26 c 256,6,7
 600 -26 600 -26 499.5 9.5 c 128,-1,8
 399 45 399 45 326.5 114.5 c 128,-1,9
 254 184 254 184 214 288.5 c 128,-1,10
 174 393 174 393 174 531 c 2,11,-1
 174 1412 l 1,12,-1
 370 1412 l 1,13,-1
 370 519 l 2,14,15
 370 408 370 408 401.5 336 c 128,-1,16
 433 264 433 264 483.5 223 c 128,-1,17
 534 182 534 182 597.5 166 c 128,-1,18
 661 150 661 150 725 150 c 0,19,20
 801 150 801 150 856.5 167.5 c 128,-1,21
 912 185 912 185 950.5 214 c 128,-1,22
 989 243 989 243 1013 281.5 c 128,-1,23
 1037 320 1037 320 1050.5 361.5 c 128,-1,24
 1064 403 1064 403 1068.5 445 c 128,-1,25
 1073 487 1073 487 1073 524 c 2,26,-1
 1073 1412 l 1,27,-1
 1266 1412 l 1,0,-1
EndSplineSet
EndChar

StartChar: V
Encoding: 86 86 61
Width: 1212
Flags: W
LayerCount: 2
Fore
SplineSet
1000 1412 m 1,0,-1
 1205 1412 l 1,1,-1
 706 0 l 1,2,-1
 500 0 l 1,3,-1
 15 1412 l 1,4,-1
 229 1412 l 1,5,-1
 467 638 l 1,6,-1
 601 194 l 1,7,-1
 612 194 l 1,8,-1
 757 641 l 1,9,-1
 1000 1412 l 1,0,-1
EndSplineSet
EndChar

StartChar: W
Encoding: 87 87 62
Width: 1898
Flags: W
LayerCount: 2
Fore
SplineSet
1068 1412 m 1,0,-1
 1369 240 l 1,1,-1
 1390 240 l 1,2,-1
 1490 707 l 1,3,-1
 1666 1412 l 1,4,-1
 1874 1412 l 1,5,-1
 1486 0 l 1,6,-1
 1285 0 l 1,7,-1
 1084 735 l 1,8,-1
 961 1219 l 1,9,-1
 951 1219 l 1,10,-1
 828 735 l 1,11,-1
 627 0 l 1,12,-1
 426 0 l 1,13,-1
 38 1412 l 1,14,-1
 246 1412 l 1,15,-1
 422 707 l 1,16,-1
 522 240 l 1,17,-1
 543 240 l 1,18,-1
 844 1412 l 1,19,-1
 1067 1412 l 1,20,-1
 1068 1412 l 1,0,-1
EndSplineSet
EndChar

StartChar: X
Encoding: 88 88 63
Width: 1261
Flags: W
LayerCount: 2
Fore
SplineSet
1242 0 m 1,0,-1
 1003 0 l 1,1,-1
 624 599 l 1,2,-1
 235 0 l 1,3,-1
 12 0 l 1,4,-1
 509 737 l 1,5,-1
 57 1412 l 1,6,-1
 291 1412 l 1,7,-1
 640 878 l 1,8,-1
 987 1412 l 1,9,-1
 1212 1412 l 1,10,-1
 754 738 l 1,11,-1
 1242 0 l 1,0,-1
EndSplineSet
EndChar

StartChar: Y
Encoding: 89 89 64
Width: 1174
Flags: W
LayerCount: 2
Fore
SplineSet
594 723 m 1,0,-1
 963 1412 l 1,1,-1
 1183 1412 l 1,2,-1
 687 547 l 1,3,-1
 687 0 l 1,4,-1
 487 0 l 1,5,-1
 487 547 l 1,6,-1
 -9 1412 l 1,7,-1
 223 1412 l 1,8,-1
 594 723 l 1,0,-1
EndSplineSet
EndChar

StartChar: Z
Encoding: 90 90 65
Width: 1173
Flags: W
LayerCount: 2
Fore
SplineSet
1082 0 m 1,0,-1
 89 0 l 1,1,-1
 89 169 l 1,2,-1
 831 1242 l 1,3,-1
 110 1242 l 1,4,-1
 110 1412 l 1,5,-1
 1064 1412 l 1,6,-1
 1064 1235 l 1,7,-1
 320 170 l 1,8,-1
 1082 170 l 1,9,-1
 1082 0 l 1,0,-1
EndSplineSet
EndChar

StartChar: bracketleft
Encoding: 91 91 66
Width: 609
Flags: W
LayerCount: 2
Fore
SplineSet
540 -272 m 1,0,-1
 172 -272 l 1,1,-1
 172 1442 l 1,2,-1
 540 1442 l 1,3,-1
 540 1308 l 1,4,-1
 344 1308 l 1,5,-1
 344 -135 l 1,6,-1
 540 -135 l 1,7,-1
 540 -272 l 1,0,-1
EndSplineSet
EndChar

StartChar: backslash
Encoding: 92 92 67
Width: 792
Flags: W
LayerCount: 2
Fore
SplineSet
231 1412 m 1,0,1
 352 1053 352 1053 473.5 697.5 c 128,-1,2
 595 342 595 342 717 -16 c 1,3,-1
 560 -16 l 1,4,-1
 73 1412 l 1,5,-1
 231 1412 l 1,0,1
EndSplineSet
EndChar

StartChar: bracketright
Encoding: 93 93 68
Width: 610
Flags: W
LayerCount: 2
Fore
SplineSet
70 -135 m 1,0,-1
 265 -135 l 1,1,-1
 265 1308 l 1,2,-1
 70 1308 l 1,3,-1
 70 1442 l 1,4,-1
 438 1442 l 1,5,-1
 438 -272 l 1,6,-1
 70 -272 l 1,7,-1
 70 -135 l 1,0,-1
EndSplineSet
EndChar

StartChar: asciicircum
Encoding: 94 94 69
Width: 1101
Flags: W
LayerCount: 2
Fore
SplineSet
100 523 m 1,0,-1
 485 1381 l 1,1,-1
 614 1381 l 1,2,-1
 996 523 l 1,3,-1
 824 523 l 1,4,-1
 548 1172 l 1,5,-1
 271 523 l 1,6,-1
 100 523 l 1,0,-1
EndSplineSet
EndChar

StartChar: underscore
Encoding: 95 95 70
Width: 1116
Flags: W
LayerCount: 2
Fore
SplineSet
1012 -273 m 1,0,-1
 105 -273 l 1,1,-1
 105 -145 l 1,2,-1
 1012 -145 l 1,3,-1
 1012 -273 l 1,0,-1
EndSplineSet
EndChar

StartChar: grave
Encoding: 96 96 71
Width: 816
Flags: W
LayerCount: 2
Fore
SplineSet
435 1164 m 1,0,-1
 162 1473 l 1,1,-1
 392 1473 l 1,2,-1
 564 1164 l 1,3,-1
 435 1164 l 1,0,-1
EndSplineSet
EndChar

StartChar: a
Encoding: 97 97 72
Width: 1039
Flags: W
LayerCount: 2
Fore
SplineSet
154 883 m 1,0,1
 194 908 194 908 240.5 929.5 c 128,-1,2
 287 951 287 951 336.5 966.5 c 128,-1,3
 386 982 386 982 436 991 c 128,-1,4
 486 1000 486 1000 533 1000 c 0,5,6
 605 1000 605 1000 669.5 982.5 c 128,-1,7
 734 965 734 965 782.5 927 c 128,-1,8
 831 889 831 889 859 829 c 128,-1,9
 887 769 887 769 887 685 c 2,10,-1
 887 289 l 2,11,12
 887 184 887 184 893.5 115 c 128,-1,13
 900 46 900 46 910 0 c 1,14,-1
 741 0 l 1,15,16
 738 17 738 17 735.5 60.5 c 128,-1,17
 733 104 733 104 731 159 c 1,18,19
 698 106 698 106 659 71.5 c 128,-1,20
 620 37 620 37 578 18 c 128,-1,21
 536 -1 536 -1 492 -9 c 128,-1,22
 448 -17 448 -17 405 -17 c 0,23,24
 330 -17 330 -17 269 2 c 128,-1,25
 208 21 208 21 165.5 58 c 128,-1,26
 123 95 123 95 100 148 c 128,-1,27
 77 201 77 201 77 267 c 0,28,29
 77 299 77 299 84.5 334.5 c 128,-1,30
 92 370 92 370 109 404.5 c 128,-1,31
 126 439 126 439 154 471 c 128,-1,32
 182 503 182 503 223 529 c 0,33,34
 266 556 266 556 319 571 c 128,-1,35
 372 586 372 586 429 592.5 c 128,-1,36
 486 599 486 599 543 600.5 c 128,-1,37
 600 602 600 602 653 602 c 2,38,-1
 707 602 l 1,39,-1
 707 673 l 2,40,41
 707 726 707 726 693 762 c 128,-1,42
 679 798 679 798 654 819.5 c 128,-1,43
 629 841 629 841 596 850.5 c 128,-1,44
 563 860 563 860 526 860 c 0,45,46
 485 860 485 860 441 851 c 128,-1,47
 397 842 397 842 355 827.5 c 128,-1,48
 313 813 313 813 275 795.5 c 128,-1,49
 237 778 237 778 209 761 c 1,50,-1
 154 883 l 1,0,1
646 202 m 1,51,52
 665 223 665 223 676.5 248.5 c 128,-1,53
 688 274 688 274 694.5 307 c 128,-1,54
 701 340 701 340 703.5 380.5 c 128,-1,55
 706 421 706 421 706 471 c 1,56,-1
 677 471 l 2,57,58
 608 471 608 471 534.5 466 c 128,-1,59
 461 461 461 461 399.5 441 c 128,-1,60
 338 421 338 421 298.5 379 c 128,-1,61
 259 337 259 337 259 264 c 0,62,63
 259 238 259 238 268 212.5 c 128,-1,64
 277 187 277 187 296.5 167 c 128,-1,65
 316 147 316 147 345.5 134.5 c 128,-1,66
 375 122 375 122 417 122 c 0,67,68
 489 122 489 122 550 141 c 128,-1,69
 611 160 611 160 646 202 c 1,51,52
EndSplineSet
EndChar

StartChar: b
Encoding: 98 98 73
Width: 1158
Flags: W
LayerCount: 2
Fore
SplineSet
345 1357 m 1,0,-1
 345 1016 l 1,1,-1
 342 855 l 1,2,3
 363 883 363 883 390.5 909 c 128,-1,4
 418 935 418 935 452.5 955 c 128,-1,5
 487 975 487 975 529 987.5 c 128,-1,6
 571 1000 571 1000 622 1000 c 0,7,8
 739 1000 739 1000 821.5 960 c 128,-1,9
 904 920 904 920 956.5 852 c 128,-1,10
 1009 784 1009 784 1033.5 693.5 c 128,-1,11
 1058 603 1058 603 1058 502 c 0,12,13
 1058 391 1058 391 1033.5 296 c 128,-1,14
 1009 201 1009 201 955.5 131 c 128,-1,15
 902 61 902 61 818 22 c 128,-1,16
 734 -17 734 -17 615 -17 c 0,17,18
 582 -17 582 -17 546 -8.5 c 128,-1,19
 510 0 510 0 474 17 c 128,-1,20
 438 34 438 34 402.5 62.5 c 128,-1,21
 367 91 367 91 336 132 c 1,22,23
 332 112 332 112 327 77 c 128,-1,24
 322 42 322 42 320 0 c 1,25,-1
 158 0 l 1,26,-1
 158 1215 l 1,27,-1
 56 1215 l 1,28,-1
 36 1357 l 1,29,-1
 345 1357 l 1,0,-1
345 338 m 2,30,31
 345 305 345 305 361 267 c 128,-1,32
 377 229 377 229 410 197 c 128,-1,33
 443 165 443 165 495 143.5 c 128,-1,34
 547 122 547 122 619 122 c 0,35,36
 689 122 689 122 738 153 c 128,-1,37
 787 184 787 184 818 235.5 c 128,-1,38
 849 287 849 287 862.5 354.5 c 128,-1,39
 876 422 876 422 876 496 c 0,40,41
 876 563 876 563 864.5 628.5 c 128,-1,42
 853 694 853 694 824 745 c 128,-1,43
 795 796 795 796 743.5 827.5 c 128,-1,44
 692 859 692 859 613 859 c 0,45,46
 560 859 560 859 512 839 c 128,-1,47
 464 819 464 819 426.5 788 c 128,-1,48
 389 757 389 757 367 720 c 128,-1,49
 345 683 345 683 345 650 c 2,50,-1
 345 338 l 2,30,31
EndSplineSet
EndChar

StartChar: c
Encoding: 99 99 74
Width: 960
Flags: W
LayerCount: 2
Fore
SplineSet
862 83 m 1,0,1
 784 32 784 32 697.5 7.5 c 128,-1,2
 611 -17 611 -17 530 -17 c 0,3,4
 447 -17 447 -17 369 12 c 128,-1,5
 291 41 291 41 231 104.5 c 128,-1,6
 171 168 171 168 134.5 266.5 c 128,-1,7
 98 365 98 365 98 502 c 0,8,9
 98 629 98 629 138 723 c 128,-1,10
 178 817 178 817 242 878.5 c 128,-1,11
 306 940 306 940 386.5 970 c 128,-1,12
 467 1000 467 1000 548 1000 c 0,13,14
 605 1000 605 1000 660.5 986 c 128,-1,15
 716 972 716 972 763 940.5 c 128,-1,16
 810 909 810 909 845 858 c 128,-1,17
 880 807 880 807 896 734 c 1,18,-1
 737 708 l 1,19,20
 726 752 726 752 706.5 781 c 128,-1,21
 687 810 687 810 662.5 827.5 c 128,-1,22
 638 845 638 845 609.5 852 c 128,-1,23
 581 859 581 859 551 859 c 0,24,25
 503 859 503 859 455.5 838.5 c 128,-1,26
 408 818 408 818 369.5 775.5 c 128,-1,27
 331 733 331 733 307 666.5 c 128,-1,28
 283 600 283 600 283 508 c 256,29,30
 283 416 283 416 298 344.5 c 128,-1,31
 313 273 313 273 345.5 223.5 c 128,-1,32
 378 174 378 174 428 148 c 128,-1,33
 478 122 478 122 547 122 c 0,34,35
 633 122 633 122 696 148.5 c 128,-1,36
 759 175 759 175 805 208 c 1,37,-1
 862 83 l 1,0,1
EndSplineSet
EndChar

StartChar: d
Encoding: 100 100 75
Width: 1159
Flags: W
LayerCount: 2
Fore
SplineSet
1000 1357 m 1,0,-1
 1000 0 l 1,1,-1
 838 0 l 1,2,-1
 831 53 l 2,3,4
 828 76 828 76 826 98 c 128,-1,5
 824 120 824 120 822 132 c 1,6,7
 790 91 790 91 754.5 62.5 c 128,-1,8
 719 34 719 34 683 17 c 128,-1,9
 647 0 647 0 611.5 -8.5 c 128,-1,10
 576 -17 576 -17 543 -17 c 0,11,12
 424 -17 424 -17 339.5 22 c 128,-1,13
 255 61 255 61 202 131 c 128,-1,14
 149 201 149 201 124.5 296 c 128,-1,15
 100 391 100 391 100 502 c 0,16,17
 100 603 100 603 124 693.5 c 128,-1,18
 148 784 148 784 200.5 852 c 128,-1,19
 253 920 253 920 336 960 c 128,-1,20
 419 1000 419 1000 536 1000 c 0,21,22
 587 1000 587 1000 629 987.5 c 128,-1,23
 671 975 671 975 705.5 955 c 128,-1,24
 740 935 740 935 767.5 909 c 128,-1,25
 795 883 795 883 816 855 c 1,26,-1
 813 1016 l 1,27,-1
 813 1215 l 1,28,-1
 710 1215 l 1,29,-1
 690 1357 l 1,30,-1
 1000 1357 l 1,0,-1
813 650 m 2,31,32
 813 683 813 683 791 720 c 128,-1,33
 769 757 769 757 731.5 788 c 128,-1,34
 694 819 694 819 645.5 839 c 128,-1,35
 597 859 597 859 545 859 c 0,36,37
 465 859 465 859 414 827.5 c 128,-1,38
 363 796 363 796 334 745 c 128,-1,39
 305 694 305 694 293.5 628.5 c 128,-1,40
 282 563 282 563 282 496 c 0,41,42
 282 422 282 422 295.5 354.5 c 128,-1,43
 309 287 309 287 340 235.5 c 128,-1,44
 371 184 371 184 419.5 153 c 128,-1,45
 468 122 468 122 539 122 c 0,46,47
 611 122 611 122 663 143.5 c 128,-1,48
 715 165 715 165 748 197 c 128,-1,49
 781 229 781 229 797 267 c 128,-1,50
 813 305 813 305 813 338 c 2,51,-1
 813 650 l 2,31,32
EndSplineSet
EndChar

StartChar: e
Encoding: 101 101 76
Width: 1043
Flags: W
LayerCount: 2
Fore
SplineSet
925 79 m 1,0,1
 835 31 835 31 745 7 c 128,-1,2
 655 -17 655 -17 567 -17 c 0,3,4
 471 -17 471 -17 386 13 c 128,-1,5
 301 43 301 43 237 106 c 128,-1,6
 173 169 173 169 136 264.5 c 128,-1,7
 99 360 99 360 99 490 c 0,8,9
 99 591 99 591 125 683.5 c 128,-1,10
 151 776 151 776 204.5 846.5 c 128,-1,11
 258 917 258 917 341 958.5 c 128,-1,12
 424 1000 424 1000 538 1000 c 0,13,14
 646 1000 646 1000 724 963.5 c 128,-1,15
 802 927 802 927 852.5 865 c 128,-1,16
 903 803 903 803 927 720 c 128,-1,17
 951 637 951 637 951 544 c 2,18,-1
 951 463 l 1,19,-1
 285 463 l 1,20,-1
 285 445 l 2,21,22
 285 360 285 360 308 298.5 c 128,-1,23
 331 237 331 237 371.5 197.5 c 128,-1,24
 412 158 412 158 465.5 139 c 128,-1,25
 519 120 519 120 581 120 c 0,26,27
 650 120 650 120 723 142 c 128,-1,28
 796 164 796 164 868 207 c 1,29,-1
 925 79 l 1,0,1
534 859 m 0,30,31
 485 859 485 859 441 843.5 c 128,-1,32
 397 828 397 828 363.5 795 c 128,-1,33
 330 762 330 762 310.5 711.5 c 128,-1,34
 291 661 291 661 291 591 c 1,35,-1
 755 591 l 1,36,37
 753 645 753 645 742 693.5 c 128,-1,38
 731 742 731 742 706 778.5 c 128,-1,39
 681 815 681 815 639 837 c 128,-1,40
 597 859 597 859 534 859 c 0,30,31
EndSplineSet
EndChar

StartChar: f
Encoding: 102 102 77
Width: 686
Flags: W
LayerCount: 2
Fore
SplineSet
649 840 m 1,0,-1
 420 840 l 1,1,-1
 420 0 l 1,2,-1
 231 0 l 1,3,-1
 231 840 l 1,4,-1
 43 840 l 1,5,-1
 43 966 l 1,6,-1
 232 983 l 1,7,-1
 232 1021 l 2,8,9
 232 1103 232 1103 246 1166 c 128,-1,10
 260 1229 260 1229 294.5 1271 c 128,-1,11
 329 1313 329 1313 387.5 1334.5 c 128,-1,12
 446 1356 446 1356 535 1356 c 0,13,14
 577 1356 577 1356 622 1349 c 128,-1,15
 667 1342 667 1342 709 1331 c 1,16,-1
 685 1185 l 1,17,18
 654 1191 654 1191 622 1195.5 c 128,-1,19
 590 1200 590 1200 561 1200 c 0,20,21
 515 1200 515 1200 487.5 1190 c 128,-1,22
 460 1180 460 1180 445 1160 c 128,-1,23
 430 1140 430 1140 425 1110.5 c 128,-1,24
 420 1081 420 1081 420 1042 c 2,25,-1
 420 984 l 1,26,-1
 649 984 l 1,27,-1
 649 840 l 1,0,-1
EndSplineSet
EndChar

StartChar: g
Encoding: 103 103 78
Width: 1156
Flags: W
LayerCount: 2
Fore
SplineSet
815 457 m 0,0,1
 815 495 815 495 812.5 539.5 c 128,-1,2
 810 584 810 584 801 628.5 c 128,-1,3
 792 673 792 673 774 715 c 128,-1,4
 756 757 756 757 725.5 789 c 128,-1,5
 695 821 695 821 649.5 840 c 128,-1,6
 604 859 604 859 539 859 c 0,7,8
 485 859 485 859 445.5 842.5 c 128,-1,9
 406 826 406 826 378 798 c 128,-1,10
 350 770 350 770 332 733.5 c 128,-1,11
 314 697 314 697 304 656.5 c 128,-1,12
 294 616 294 616 290.5 574.5 c 128,-1,13
 287 533 287 533 287 496 c 0,14,15
 287 433 287 433 297.5 370 c 128,-1,16
 308 307 308 307 337 256 c 128,-1,17
 366 205 366 205 417.5 173 c 128,-1,18
 469 141 469 141 552 141 c 0,19,20
 628 141 628 141 678.5 163 c 128,-1,21
 729 185 729 185 759.5 226 c 128,-1,22
 790 267 790 267 802.5 325.5 c 128,-1,23
 815 384 815 384 815 457 c 0,0,1
287 -160 m 1,24,25
 342 -183 342 -183 408.5 -197.5 c 128,-1,26
 475 -212 475 -212 542 -212 c 0,27,28
 596 -212 596 -212 645.5 -200.5 c 128,-1,29
 695 -189 695 -189 732.5 -162.5 c 128,-1,30
 770 -136 770 -136 792.5 -92.5 c 128,-1,31
 815 -49 815 -49 815 22 c 2,32,-1
 815 129 l 1,33,34
 745 61 745 61 666.5 30.5 c 128,-1,35
 588 0 588 0 518 0 c 0,36,37
 430 0 430 0 354 28.5 c 128,-1,38
 278 57 278 57 221.5 117 c 128,-1,39
 165 177 165 177 133 269.5 c 128,-1,40
 101 362 101 362 101 491 c 0,41,42
 101 622 101 622 132.5 718 c 128,-1,43
 164 814 164 814 218 876.5 c 128,-1,44
 272 939 272 939 344.5 969.5 c 128,-1,45
 417 1000 417 1000 499 1000 c 0,46,47
 555 1000 555 1000 602 985.5 c 128,-1,48
 649 971 649 971 688 947.5 c 128,-1,49
 727 924 727 924 758.5 895 c 128,-1,50
 790 866 790 866 816 836 c 1,51,-1
 829 984 l 1,52,-1
 1002 984 l 1,53,54
 1002 975 1002 975 1001.5 957 c 128,-1,55
 1001 939 1001 939 1000.5 917 c 128,-1,56
 1000 895 1000 895 999.5 871.5 c 128,-1,57
 999 848 999 848 998.5 827 c 128,-1,58
 998 806 998 806 997.5 791 c 128,-1,59
 997 776 997 776 997 772 c 2,60,-1
 997 29 l 2,61,62
 997 -71 997 -71 958.5 -143 c 128,-1,63
 920 -215 920 -215 856 -262 c 128,-1,64
 792 -309 792 -309 710.5 -331 c 128,-1,65
 629 -353 629 -353 543 -353 c 0,66,67
 476 -353 476 -353 410.5 -340.5 c 128,-1,68
 345 -328 345 -328 287 -303 c 1,69,-1
 287 -160 l 1,24,25
EndSplineSet
EndChar

StartChar: h
Encoding: 104 104 79
Width: 1149
Flags: W
LayerCount: 2
Fore
SplineSet
348 1357 m 1,0,-1
 348 1044 l 1,1,-1
 346 856 l 1,2,3
 409 922 409 922 488 961 c 128,-1,4
 567 1000 567 1000 652 1000 c 0,5,6
 831 1000 831 1000 916.5 901 c 128,-1,7
 1002 802 1002 802 1002 624 c 2,8,-1
 1002 0 l 1,9,-1
 816 0 l 1,10,-1
 816 614 l 2,11,12
 816 657 816 657 808 700.5 c 128,-1,13
 800 744 800 744 777 779.5 c 128,-1,14
 754 815 754 815 713.5 837 c 128,-1,15
 673 859 673 859 608 859 c 0,16,17
 563 859 563 859 528 849.5 c 128,-1,18
 493 840 493 840 467 824.5 c 128,-1,19
 441 809 441 809 422.5 789.5 c 128,-1,20
 404 770 404 770 392 751 c 0,21,22
 366 709 366 709 357 649 c 128,-1,23
 348 589 348 589 348 526 c 2,24,-1
 348 0 l 1,25,-1
 159 0 l 1,26,-1
 159 1215 l 1,27,-1
 57 1215 l 1,28,-1
 37 1357 l 1,29,-1
 348 1357 l 1,0,-1
EndSplineSet
EndChar

StartChar: i
Encoding: 105 105 80
Width: 552
Flags: W
LayerCount: 2
Fore
SplineSet
393 0 m 1,0,-1
 207 0 l 1,1,-1
 207 840 l 1,2,-1
 55 840 l 1,3,-1
 55 984 l 1,4,-1
 393 984 l 1,5,-1
 393 0 l 1,0,-1
411 1323 m 1,6,-1
 411 1157 l 1,7,-1
 189 1157 l 1,8,-1
 189 1323 l 1,9,-1
 411 1323 l 1,6,-1
EndSplineSet
EndChar

StartChar: j
Encoding: 106 106 81
Width: 558
Flags: W
LayerCount: 2
Fore
SplineSet
125 -429 m 0,0,1
 89 -429 89 -429 58 -424 c 128,-1,2
 27 -419 27 -419 -3 -408 c 1,3,-1
 -3 -261 l 1,4,5
 24 -269 24 -269 46.5 -273.5 c 128,-1,6
 69 -278 69 -278 92 -278 c 0,7,8
 121 -278 121 -278 143 -271.5 c 128,-1,9
 165 -265 165 -265 180 -247.5 c 128,-1,10
 195 -230 195 -230 202.5 -201 c 128,-1,11
 210 -172 210 -172 210 -127 c 2,12,-1
 210 840 l 1,13,-1
 59 840 l 1,14,-1
 59 984 l 1,15,-1
 399 984 l 1,16,-1
 399 -124 l 2,17,18
 399 -186 399 -186 385 -241.5 c 128,-1,19
 371 -297 371 -297 339 -338.5 c 128,-1,20
 307 -380 307 -380 254.5 -404.5 c 128,-1,21
 202 -429 202 -429 125 -429 c 0,0,1
420 1323 m 1,22,-1
 420 1157 l 1,23,-1
 199 1157 l 1,24,-1
 199 1323 l 1,25,-1
 420 1323 l 1,22,-1
EndSplineSet
EndChar

StartChar: k
Encoding: 107 107 82
Width: 1041
Flags: W
LayerCount: 2
Fore
SplineSet
348 1357 m 1,0,-1
 348 551 l 1,1,-1
 478 620 l 2,2,3
 545 656 545 656 598 700 c 128,-1,4
 651 744 651 744 691 792 c 128,-1,5
 731 840 731 840 758.5 889.5 c 128,-1,6
 786 939 786 939 803 984 c 1,7,-1
 999 984 l 1,8,9
 953 827 953 827 871.5 718.5 c 128,-1,10
 790 610 790 610 676 533 c 1,11,-1
 1028 0 l 1,12,-1
 817 0 l 1,13,-1
 517 473 l 1,14,-1
 348 387 l 1,15,-1
 348 0 l 1,16,-1
 158 0 l 1,17,-1
 158 1215 l 1,18,-1
 56 1215 l 1,19,-1
 36 1357 l 1,20,-1
 348 1357 l 1,0,-1
EndSplineSet
EndChar

StartChar: l
Encoding: 108 108 83
Width: 563
Flags: W
LayerCount: 2
Fore
SplineSet
369 1357 m 1,0,-1
 369 370 l 2,1,2
 369 293 369 293 371.5 246.5 c 128,-1,3
 374 200 374 200 388.5 174 c 128,-1,4
 403 148 403 148 434.5 139.5 c 128,-1,5
 466 131 466 131 524 131 c 1,6,-1
 494 -17 l 1,7,8
 415 -17 415 -17 361.5 -5.5 c 128,-1,9
 308 6 308 6 273 28 c 128,-1,10
 238 50 238 50 219 86 c 128,-1,11
 200 122 200 122 191.5 170.5 c 128,-1,12
 183 219 183 219 181.5 281.5 c 128,-1,13
 180 344 180 344 180 421 c 2,14,-1
 180 1215 l 1,15,-1
 78 1215 l 1,16,-1
 58 1357 l 1,17,-1
 369 1357 l 1,0,-1
EndSplineSet
EndChar

StartChar: m
Encoding: 109 109 84
Width: 1817
Flags: W
LayerCount: 2
Fore
SplineSet
203 0 m 1,0,-1
 203 840 l 1,1,-1
 81 840 l 1,2,-1
 71 984 l 1,3,-1
 378 984 l 1,4,-1
 388 857 l 1,5,6
 424 896 424 896 462 923.5 c 128,-1,7
 500 951 500 951 538.5 967.5 c 128,-1,8
 577 984 577 984 614 992 c 128,-1,9
 651 1000 651 1000 684 1000 c 0,10,11
 747 1000 747 1000 796 987.5 c 128,-1,12
 845 975 845 975 882.5 953 c 128,-1,13
 920 931 920 931 948 900 c 128,-1,14
 976 869 976 869 997 832 c 1,15,16
 1019 865 1019 865 1050 895.5 c 128,-1,17
 1081 926 1081 926 1121.5 949 c 128,-1,18
 1162 972 1162 972 1211.5 986 c 128,-1,19
 1261 1000 1261 1000 1320 1000 c 0,20,21
 1387 1000 1387 1000 1450 983.5 c 128,-1,22
 1513 967 1513 967 1561.5 926 c 128,-1,23
 1610 885 1610 885 1639.5 816.5 c 128,-1,24
 1669 748 1669 748 1669 646 c 2,25,-1
 1669 0 l 1,26,-1
 1483 0 l 1,27,-1
 1483 637 l 2,28,29
 1483 754 1483 754 1432.5 806.5 c 128,-1,30
 1382 859 1382 859 1279 859 c 0,31,32
 1192 859 1192 859 1142 829.5 c 128,-1,33
 1092 800 1092 800 1067.5 755 c 128,-1,34
 1043 710 1043 710 1037 656 c 128,-1,35
 1031 602 1031 602 1031 552 c 2,36,-1
 1031 0 l 1,37,-1
 844 0 l 1,38,-1
 844 646 l 2,39,40
 844 746 844 746 794 802.5 c 128,-1,41
 744 859 744 859 644 859 c 0,42,43
 603 859 603 859 570 850 c 128,-1,44
 537 841 537 841 511.5 827 c 128,-1,45
 486 813 486 813 468 796.5 c 128,-1,46
 450 780 450 780 439 764 c 0,47,48
 410 722 410 722 401 665 c 128,-1,49
 392 608 392 608 392 542 c 2,50,-1
 392 0 l 1,51,-1
 203 0 l 1,0,-1
EndSplineSet
EndChar

StartChar: n
Encoding: 110 110 85
Width: 1196
Flags: W
LayerCount: 2
Fore
SplineSet
862 0 m 1,0,-1
 862 635 l 2,1,2
 862 744 862 744 807.5 801.5 c 128,-1,3
 753 859 753 859 650 859 c 0,4,5
 529 859 529 859 460.5 779.5 c 128,-1,6
 392 700 392 700 392 545 c 2,7,-1
 392 0 l 1,8,-1
 203 0 l 1,9,-1
 203 840 l 1,10,-1
 101 840 l 1,11,-1
 81 984 l 1,12,-1
 378 984 l 1,13,-1
 388 858 l 1,14,15
 418 892 418 892 449.5 919 c 128,-1,16
 481 946 481 946 517.5 963.5 c 128,-1,17
 554 981 554 981 597.5 990.5 c 128,-1,18
 641 1000 641 1000 696 1000 c 256,19,20
 751 1000 751 1000 812.5 984 c 128,-1,21
 874 968 874 968 926.5 929 c 128,-1,22
 979 890 979 890 1013.5 822 c 128,-1,23
 1048 754 1048 754 1048 650 c 2,24,-1
 1048 0 l 1,25,-1
 862 0 l 1,0,-1
EndSplineSet
EndChar

StartChar: o
Encoding: 111 111 86
Width: 1129
Flags: W
LayerCount: 2
Fore
SplineSet
1031 492 m 0,0,1
 1031 379 1031 379 1000.5 285.5 c 128,-1,2
 970 192 970 192 910.5 124 c 128,-1,3
 851 56 851 56 763 19.5 c 128,-1,4
 675 -17 675 -17 560 -17 c 0,5,6
 451 -17 451 -17 365 18.5 c 128,-1,7
 279 54 279 54 220 120.5 c 128,-1,8
 161 187 161 187 129.5 279.5 c 128,-1,9
 98 372 98 372 98 483 c 0,10,11
 98 588 98 588 125 682 c 128,-1,12
 152 776 152 776 209.5 846.5 c 128,-1,13
 267 917 267 917 357 958.5 c 128,-1,14
 447 1000 447 1000 572 1000 c 0,15,16
 695 1000 695 1000 782 957 c 128,-1,17
 869 914 869 914 924.5 843 c 128,-1,18
 980 772 980 772 1005.5 680.5 c 128,-1,19
 1031 589 1031 589 1031 492 c 0,0,1
284 484 m 0,20,21
 284 404 284 404 300 337.5 c 128,-1,22
 316 271 316 271 349.5 223 c 128,-1,23
 383 175 383 175 436 148.5 c 128,-1,24
 489 122 489 122 564 122 c 0,25,26
 624 122 624 122 675.5 143 c 128,-1,27
 727 164 727 164 764.5 208.5 c 128,-1,28
 802 253 802 253 823 322 c 128,-1,29
 844 391 844 391 844 488 c 0,30,31
 844 670 844 670 775 764.5 c 128,-1,32
 706 859 706 859 570 859 c 0,33,34
 514 859 514 859 462.5 838 c 128,-1,35
 411 817 411 817 371 772 c 128,-1,36
 331 727 331 727 307.5 655.5 c 128,-1,37
 284 584 284 584 284 484 c 0,20,21
EndSplineSet
EndChar

StartChar: p
Encoding: 112 112 87
Width: 1159
Flags: W
LayerCount: 2
Fore
SplineSet
159 -400 m 1,0,-1
 159 691 l 1,1,2
 158 733 158 733 157.5 783 c 128,-1,3
 157 833 157 833 156 876 c 2,4,-1
 153 984 l 1,5,-1
 330 984 l 1,6,-1
 343 837 l 1,7,8
 376 884 376 884 415 915.5 c 128,-1,9
 454 947 454 947 495 965.5 c 128,-1,10
 536 984 536 984 577.5 992 c 128,-1,11
 619 1000 619 1000 657 1000 c 0,12,13
 738 1000 738 1000 811 969 c 128,-1,14
 884 938 884 938 939 874 c 128,-1,15
 994 810 994 810 1026.5 714.5 c 128,-1,16
 1059 619 1059 619 1059 490 c 256,17,18
 1059 361 1059 361 1025.5 265.5 c 128,-1,19
 992 170 992 170 934 107 c 128,-1,20
 876 44 876 44 799.5 13.5 c 128,-1,21
 723 -17 723 -17 638 -17 c 0,22,23
 544 -17 544 -17 471 17.5 c 128,-1,24
 398 52 398 52 341 107 c 1,25,-1
 346 -72 l 1,26,-1
 346 -400 l 1,27,-1
 159 -400 l 1,0,-1
611 121 m 0,28,29
 694 121 694 121 746 155.5 c 128,-1,30
 798 190 798 190 827 244 c 128,-1,31
 856 298 856 298 866.5 364.5 c 128,-1,32
 877 431 877 431 877 496 c 0,33,34
 877 572 877 572 864 638.5 c 128,-1,35
 851 705 851 705 821 754 c 128,-1,36
 791 803 791 803 742 831 c 128,-1,37
 693 859 693 859 621 859 c 0,38,39
 566 859 566 859 516 839 c 128,-1,40
 466 819 466 819 428.5 788.5 c 128,-1,41
 391 758 391 758 368.5 720.5 c 128,-1,42
 346 683 346 683 346 648 c 2,43,-1
 346 348 l 2,44,45
 346 310 346 310 362 269.5 c 128,-1,46
 378 229 378 229 411 196 c 128,-1,47
 444 163 444 163 493.5 142 c 128,-1,48
 543 121 543 121 611 121 c 0,28,29
EndSplineSet
EndChar

StartChar: q
Encoding: 113 113 88
Width: 1156
Flags: W
LayerCount: 2
Fore
SplineSet
499 1000 m 0,0,1
 555 1000 555 1000 602 985.5 c 128,-1,2
 649 971 649 971 688 947.5 c 128,-1,3
 727 924 727 924 758.5 895 c 128,-1,4
 790 866 790 866 816 836 c 1,5,-1
 829 984 l 1,6,-1
 1002 984 l 1,7,8
 1002 972 1002 972 1001 940 c 128,-1,9
 1000 908 1000 908 999.5 873.5 c 128,-1,10
 999 839 999 839 998 809 c 128,-1,11
 997 779 997 779 997 772 c 2,12,-1
 997 -400 l 1,13,-1
 811 -400 l 1,14,-1
 811 -72 l 2,15,16
 811 -50 811 -50 811.5 -23.5 c 128,-1,17
 812 3 812 3 813 28 c 128,-1,18
 814 53 814 53 815 75 c 128,-1,19
 816 97 816 97 817 111 c 1,20,21
 747 43 747 43 667.5 13 c 128,-1,22
 588 -17 588 -17 518 -17 c 0,23,24
 430 -17 430 -17 354 13.5 c 128,-1,25
 278 44 278 44 221.5 107.5 c 128,-1,26
 165 171 165 171 133 266.5 c 128,-1,27
 101 362 101 362 101 491 c 0,28,29
 101 622 101 622 132.5 718 c 128,-1,30
 164 814 164 814 218 876.5 c 128,-1,31
 272 939 272 939 344.5 969.5 c 128,-1,32
 417 1000 417 1000 499 1000 c 0,0,1
815 457 m 0,33,34
 815 495 815 495 812.5 539.5 c 128,-1,35
 810 584 810 584 801 628.5 c 128,-1,36
 792 673 792 673 774 715 c 128,-1,37
 756 757 756 757 725.5 789 c 128,-1,38
 695 821 695 821 649.5 840 c 128,-1,39
 604 859 604 859 539 859 c 0,40,41
 485 859 485 859 445.5 842.5 c 128,-1,42
 406 826 406 826 378 798 c 128,-1,43
 350 770 350 770 332 733.5 c 128,-1,44
 314 697 314 697 304 656.5 c 128,-1,45
 294 616 294 616 290.5 574.5 c 128,-1,46
 287 533 287 533 287 496 c 0,47,48
 287 433 287 433 297.5 367 c 128,-1,49
 308 301 308 301 337 246.5 c 128,-1,50
 366 192 366 192 417.5 157 c 128,-1,51
 469 122 469 122 552 122 c 0,52,53
 628 122 628 122 678.5 147 c 128,-1,54
 729 172 729 172 759.5 216.5 c 128,-1,55
 790 261 790 261 802.5 322.5 c 128,-1,56
 815 384 815 384 815 457 c 0,33,34
EndSplineSet
EndChar

StartChar: r
Encoding: 114 114 89
Width: 749
Flags: W
LayerCount: 2
Fore
SplineSet
159 732 m 2,0,1
 159 744 159 744 158 776.5 c 128,-1,2
 157 809 157 809 156 847.5 c 128,-1,3
 155 886 155 886 154 923.5 c 128,-1,4
 153 961 153 961 153 984 c 1,5,-1
 328 984 l 1,6,-1
 337 814 l 1,7,8
 370 865 370 865 408.5 900 c 128,-1,9
 447 935 447 935 486.5 957.5 c 128,-1,10
 526 980 526 980 564.5 990 c 128,-1,11
 603 1000 603 1000 635 1000 c 0,12,13
 655 1000 655 1000 678.5 998.5 c 128,-1,14
 702 997 702 997 723 994 c 1,15,-1
 711 818 l 1,16,17
 684 823 684 823 660 826 c 128,-1,18
 636 829 636 829 611 829 c 0,19,20
 541 829 541 829 491 806.5 c 128,-1,21
 441 784 441 784 409.5 743.5 c 128,-1,22
 378 703 378 703 363 647 c 128,-1,23
 348 591 348 591 348 524 c 2,24,-1
 348 0 l 1,25,-1
 159 0 l 1,26,-1
 159 732 l 2,0,1
EndSplineSet
EndChar

StartChar: s
Encoding: 115 115 90
Width: 922
Flags: W
LayerCount: 2
Fore
SplineSet
141 213 m 1,0,1
 171 190 171 190 207 173 c 128,-1,2
 243 156 243 156 282 144.5 c 128,-1,3
 321 133 321 133 361.5 127.5 c 128,-1,4
 402 122 402 122 440 122 c 0,5,6
 481 122 481 122 518 130.5 c 128,-1,7
 555 139 555 139 582.5 157 c 128,-1,8
 610 175 610 175 626.5 202 c 128,-1,9
 643 229 643 229 643 266 c 0,10,11
 643 293 643 293 633 314 c 128,-1,12
 623 335 623 335 598.5 353.5 c 128,-1,13
 574 372 574 372 531.5 391 c 128,-1,14
 489 410 489 410 425 434 c 1,15,16
 354 459 354 459 295.5 483.5 c 128,-1,17
 237 508 237 508 195.5 540 c 128,-1,18
 154 572 154 572 131 616.5 c 128,-1,19
 108 661 108 661 108 727 c 0,20,21
 108 796 108 796 138 847.5 c 128,-1,22
 168 899 168 899 218.5 933 c 128,-1,23
 269 967 269 967 335 983.5 c 128,-1,24
 401 1000 401 1000 472 1000 c 0,25,26
 563 1000 563 1000 653 974 c 128,-1,27
 743 948 743 948 818 896 c 1,28,-1
 757 773 l 1,29,30
 724 794 724 794 688 810 c 128,-1,31
 652 826 652 826 615 837 c 128,-1,32
 578 848 578 848 542.5 853.5 c 128,-1,33
 507 859 507 859 476 859 c 0,34,35
 437 859 437 859 402.5 851.5 c 128,-1,36
 368 844 368 844 342.5 829 c 128,-1,37
 317 814 317 814 302 792 c 128,-1,38
 287 770 287 770 287 741 c 0,39,40
 287 687 287 687 340.5 650.5 c 128,-1,41
 394 614 394 614 494 581 c 1,42,43
 585 549 585 549 649 518.5 c 128,-1,44
 713 488 713 488 753 453.5 c 128,-1,45
 793 419 793 419 811 377 c 128,-1,46
 829 335 829 335 829 280 c 0,47,48
 829 203 829 203 794.5 146.5 c 128,-1,49
 760 90 760 90 704 53 c 128,-1,50
 648 16 648 16 576 -0.5 c 128,-1,51
 504 -17 504 -17 428 -17 c 0,52,53
 331 -17 331 -17 247 7 c 128,-1,54
 163 31 163 31 82 82 c 1,55,-1
 141 213 l 1,0,1
EndSplineSet
EndChar

StartChar: t
Encoding: 116 116 91
Width: 700
Flags: W
LayerCount: 2
Fore
SplineSet
519 122 m 0,0,1
 547 122 547 122 580.5 126 c 128,-1,2
 614 130 614 130 637 135 c 1,3,-1
 637 2 l 1,4,5
 606 -4 606 -4 561.5 -10.5 c 128,-1,6
 517 -17 517 -17 472 -17 c 0,7,8
 410 -17 410 -17 361 -5 c 128,-1,9
 312 7 312 7 277.5 36 c 128,-1,10
 243 65 243 65 224.5 115.5 c 128,-1,11
 206 166 206 166 206 243 c 2,12,-1
 206 841 l 1,13,-1
 49 841 l 1,14,-1
 49 984 l 1,15,-1
 211 984 l 1,16,-1
 244 1220 l 1,17,-1
 395 1250 l 1,18,-1
 395 984 l 1,19,-1
 633 984 l 1,20,-1
 633 841 l 1,21,-1
 395 841 l 1,22,-1
 395 263 l 2,23,24
 395 235 395 235 399.5 209.5 c 128,-1,25
 404 184 404 184 417.5 164.5 c 128,-1,26
 431 145 431 145 455 133.5 c 128,-1,27
 479 122 479 122 519 122 c 0,0,1
EndSplineSet
EndChar

StartChar: u
Encoding: 117 117 92
Width: 1147
Flags: W
LayerCount: 2
Fore
SplineSet
846 0 m 1,0,1
 840 20 840 20 835 57.5 c 128,-1,2
 830 95 830 95 825 161 c 1,3,4
 806 118 806 118 775.5 84.5 c 128,-1,5
 745 51 745 51 706 29 c 128,-1,6
 667 7 667 7 620.5 -5 c 128,-1,7
 574 -17 574 -17 523 -17 c 0,8,9
 333 -17 333 -17 240.5 77.5 c 128,-1,10
 148 172 148 172 148 352 c 2,11,-1
 148 984 l 1,12,-1
 334 984 l 1,13,-1
 334 351 l 2,14,15
 334 304 334 304 343.5 262.5 c 128,-1,16
 353 221 353 221 376 189.5 c 128,-1,17
 399 158 399 158 437 140 c 128,-1,18
 475 122 475 122 533 122 c 0,19,20
 612 122 612 122 663.5 147 c 128,-1,21
 715 172 715 172 745.5 215.5 c 128,-1,22
 776 259 776 259 788 318.5 c 128,-1,23
 800 378 800 378 800 447 c 2,24,-1
 800 984 l 1,25,-1
 986 984 l 1,26,-1
 986 360 l 2,27,28
 986 288 986 288 987.5 233 c 128,-1,29
 989 178 989 178 991.5 135 c 128,-1,30
 994 92 994 92 997 59.5 c 128,-1,31
 1000 27 1000 27 1003 0 c 1,32,-1
 846 0 l 1,0,1
EndSplineSet
EndChar

StartChar: v
Encoding: 118 118 93
Width: 1028
Flags: W
LayerCount: 2
Fore
SplineSet
405 0 m 1,0,-1
 17 984 l 1,1,-1
 220 984 l 1,2,-1
 393 519 l 1,3,-1
 516 173 l 1,4,-1
 638 518 l 1,5,-1
 809 984 l 1,6,-1
 1014 984 l 1,7,-1
 612 0 l 1,8,-1
 405 0 l 1,0,-1
EndSplineSet
EndChar

StartChar: w
Encoding: 119 119 94
Width: 1517
Flags: W
LayerCount: 2
Fore
SplineSet
866 984 m 1,0,-1
 1002 495 l 1,1,-1
 1093 155 l 1,2,-1
 1108 155 l 1,3,-1
 1187 547 l 1,4,-1
 1288 984 l 1,5,-1
 1478 984 l 1,6,-1
 1219 0 l 1,7,-1
 986 0 l 1,8,-1
 847 491 l 1,9,-1
 759 831 l 1,10,-1
 671 491 l 1,11,-1
 532 0 l 1,12,-1
 299 0 l 1,13,-1
 39 984 l 1,14,-1
 233 984 l 1,15,-1
 414 155 l 1,16,-1
 428 155 l 1,17,-1
 516 495 l 1,18,-1
 652 984 l 1,19,-1
 866 984 l 1,0,-1
EndSplineSet
EndChar

StartChar: x
Encoding: 120 120 95
Width: 1051
Flags: W
LayerCount: 2
Fore
SplineSet
408 507 m 1,0,-1
 55 984 l 1,1,-1
 284 984 l 1,2,-1
 533 620 l 1,3,-1
 785 984 l 1,4,-1
 1003 984 l 1,5,-1
 641 502 l 1,6,-1
 1010 0 l 1,7,-1
 781 0 l 1,8,-1
 516 381 l 1,9,-1
 250 0 l 1,10,-1
 36 0 l 1,11,-1
 408 507 l 1,0,-1
EndSplineSet
EndChar

StartChar: y
Encoding: 121 121 96
Width: 1025
Flags: W
LayerCount: 2
Fore
SplineSet
573 -84 m 2,0,1
 555 -129 555 -129 531 -179 c 128,-1,2
 507 -229 507 -229 474 -271 c 128,-1,3
 441 -313 441 -313 398 -340 c 128,-1,4
 355 -367 355 -367 299 -367 c 0,5,6
 279 -367 279 -367 256 -363 c 128,-1,7
 233 -359 233 -359 202 -351 c 1,8,-1
 202 -218 l 1,9,10
 225 -226 225 -226 241 -229 c 128,-1,11
 257 -232 257 -232 268 -232 c 0,12,13
 297 -232 297 -232 318 -214.5 c 128,-1,14
 339 -197 339 -197 355.5 -168.5 c 128,-1,15
 372 -140 372 -140 384.5 -103.5 c 128,-1,16
 397 -67 397 -67 408 -29 c 2,17,-1
 418 5 l 1,18,-1
 14 984 l 1,19,-1
 220 984 l 1,20,-1
 396 519 l 1,21,-1
 516 188 l 1,22,-1
 809 984 l 1,23,-1
 1011 984 l 1,24,-1
 573 -84 l 2,0,1
EndSplineSet
EndChar

StartChar: z
Encoding: 122 122 97
Width: 885
Flags: W
LayerCount: 2
Fore
SplineSet
791 0 m 1,0,-1
 85 0 l 1,1,-1
 85 159 l 1,2,-1
 574 840 l 1,3,-1
 114 840 l 1,4,-1
 114 984 l 1,5,-1
 784 984 l 1,6,-1
 784 836 l 1,7,-1
 286 144 l 1,8,-1
 791 144 l 1,9,-1
 791 0 l 1,0,-1
EndSplineSet
EndChar

StartChar: braceleft
Encoding: 123 123 98
Width: 717
Flags: W
LayerCount: 2
Fore
SplineSet
646 -268 m 1,0,1
 530 -263 530 -263 457.5 -231.5 c 128,-1,2
 385 -200 385 -200 344.5 -148.5 c 128,-1,3
 304 -97 304 -97 289 -29.5 c 128,-1,4
 274 38 274 38 274 115 c 2,5,-1
 274 289 l 2,6,7
 274 354 274 354 256 396.5 c 128,-1,8
 238 439 238 439 205 465 c 128,-1,9
 172 491 172 491 125.5 503.5 c 128,-1,10
 79 516 79 516 22 521 c 1,11,-1
 22 654 l 1,12,13
 104 661 104 661 153.5 680.5 c 128,-1,14
 203 700 203 700 230 730 c 128,-1,15
 257 760 257 760 265.5 799.5 c 128,-1,16
 274 839 274 839 274 887 c 2,17,-1
 274 1068 l 2,18,19
 274 1149 274 1149 290.5 1215.5 c 128,-1,20
 307 1282 307 1282 349 1331 c 128,-1,21
 391 1380 391 1380 462.5 1408.5 c 128,-1,22
 534 1437 534 1437 645 1442 c 1,23,-1
 653 1311 l 1,24,25
 589 1303 589 1303 549 1284.5 c 128,-1,26
 509 1266 509 1266 486.5 1237 c 128,-1,27
 464 1208 464 1208 456 1168 c 128,-1,28
 448 1128 448 1128 448 1077 c 2,29,-1
 448 902 l 2,30,31
 448 853 448 853 440 805.5 c 128,-1,32
 432 758 432 758 409 716.5 c 128,-1,33
 386 675 386 675 345 641.5 c 128,-1,34
 304 608 304 608 238 587 c 1,35,36
 304 566 304 566 345.5 532 c 128,-1,37
 387 498 387 498 409.5 456.5 c 128,-1,38
 432 415 432 415 440 368 c 128,-1,39
 448 321 448 321 448 274 c 2,40,-1
 448 161 l 2,41,42
 448 100 448 100 451 48.5 c 128,-1,43
 454 -3 454 -3 473 -41.5 c 128,-1,44
 492 -80 492 -80 534 -104 c 128,-1,45
 576 -128 576 -128 653 -134 c 1,46,-1
 646 -268 l 1,0,1
EndSplineSet
EndChar

StartChar: bar
Encoding: 124 124 99
Width: 497
Flags: W
LayerCount: 2
Fore
SplineSet
167 1442 m 1,0,-1
 330 1442 l 1,1,-1
 330 -477 l 1,2,-1
 167 -477 l 1,3,-1
 167 1442 l 1,0,-1
EndSplineSet
EndChar

StartChar: braceright
Encoding: 125 125 100
Width: 717
Flags: W
LayerCount: 2
Fore
SplineSet
64 -134 m 1,0,1
 141 -128 141 -128 183 -104 c 128,-1,2
 225 -80 225 -80 244 -41.5 c 128,-1,3
 263 -3 263 -3 266 48.5 c 128,-1,4
 269 100 269 100 269 161 c 2,5,-1
 269 274 l 2,6,7
 269 321 269 321 277 368 c 128,-1,8
 285 415 285 415 307.5 456.5 c 128,-1,9
 330 498 330 498 371.5 532 c 128,-1,10
 413 566 413 566 479 587 c 1,11,12
 413 608 413 608 372 641.5 c 128,-1,13
 331 675 331 675 308 716.5 c 128,-1,14
 285 758 285 758 277 805.5 c 128,-1,15
 269 853 269 853 269 902 c 2,16,-1
 269 1077 l 2,17,18
 269 1128 269 1128 261 1168 c 128,-1,19
 253 1208 253 1208 230.5 1237 c 128,-1,20
 208 1266 208 1266 168 1284.5 c 128,-1,21
 128 1303 128 1303 64 1311 c 1,22,-1
 72 1442 l 1,23,24
 183 1437 183 1437 254.5 1408.5 c 128,-1,25
 326 1380 326 1380 368 1331 c 128,-1,26
 410 1282 410 1282 426.5 1215.5 c 128,-1,27
 443 1149 443 1149 443 1068 c 2,28,-1
 443 887 l 2,29,30
 443 839 443 839 451.5 799.5 c 128,-1,31
 460 760 460 760 487 730 c 128,-1,32
 514 700 514 700 563.5 680.5 c 128,-1,33
 613 661 613 661 695 654 c 1,34,-1
 695 521 l 1,35,36
 638 516 638 516 591.5 503.5 c 128,-1,37
 545 491 545 491 512 465 c 128,-1,38
 479 439 479 439 461 396.5 c 128,-1,39
 443 354 443 354 443 289 c 2,40,-1
 443 115 l 2,41,42
 443 38 443 38 428 -29.5 c 128,-1,43
 413 -97 413 -97 372.5 -148.5 c 128,-1,44
 332 -200 332 -200 259 -231.5 c 128,-1,45
 186 -263 186 -263 71 -268 c 1,46,-1
 64 -134 l 1,0,1
EndSplineSet
EndChar

StartChar: asciitilde
Encoding: 126 126 101
Width: 1208
Flags: W
LayerCount: 2
Fore
SplineSet
120 514 m 1,0,1
 156 614 156 614 220.5 671 c 128,-1,2
 285 728 285 728 379 728 c 0,3,4
 403 728 403 728 440 718.5 c 128,-1,5
 477 709 477 709 520.5 695 c 128,-1,6
 564 681 564 681 611 665 c 128,-1,7
 658 649 658 649 702.5 635 c 128,-1,8
 747 621 747 621 786 611.5 c 128,-1,9
 825 602 825 602 852 602 c 0,10,11
 897 602 897 602 944 633.5 c 128,-1,12
 991 665 991 665 1025 734 c 1,13,-1
 1089 656 l 1,14,15
 1071 589 1071 589 1041.5 547.5 c 128,-1,16
 1012 506 1012 506 977.5 482.5 c 128,-1,17
 943 459 943 459 906 451 c 128,-1,18
 869 443 869 443 837 443 c 0,19,20
 798 443 798 443 753 452.5 c 128,-1,21
 708 462 708 462 661.5 475.5 c 128,-1,22
 615 489 615 489 569 505.5 c 128,-1,23
 523 522 523 522 483 535.5 c 128,-1,24
 443 549 443 549 410.5 558.5 c 128,-1,25
 378 568 378 568 359 568 c 0,26,27
 316 568 316 568 268 534 c 128,-1,28
 220 500 220 500 184 434 c 1,29,-1
 120 514 l 1,0,1
EndSplineSet
EndChar

StartChar: exclamdown
Encoding: 161 161 103
Width: 531
Flags: W
LayerCount: 2
Fore
SplineSet
370 0 m 1,0,-1
 162 0 l 1,1,-1
 162 1055 l 1,2,-1
 322 1055 l 1,3,-1
 370 0 l 1,0,-1
162 1394 m 1,4,-1
 370 1394 l 1,5,-1
 370 1183 l 1,6,-1
 162 1183 l 1,7,-1
 162 1394 l 1,4,-1
EndSplineSet
EndChar

StartChar: cent
Encoding: 162 162 104
Width: 953
Flags: W
LayerCount: 2
Fore
SplineSet
664 1302 m 1,0,-1
 782 1302 l 1,1,-1
 703 1034 l 1,2,-1
 740 1013 l 2,3,4
 775 993 775 993 804 969 c 128,-1,5
 833 945 833 945 856 924 c 1,6,-1
 767 803 l 1,7,8
 755 812 755 812 745 820 c 128,-1,9
 735 828 735 828 723 836 c 128,-1,10
 711 844 711 844 694.5 852.5 c 128,-1,11
 678 861 678 861 654 871 c 1,12,-1
 443 153 l 1,13,14
 470 144 470 144 496 140 c 128,-1,15
 522 136 522 136 550 136 c 0,16,17
 589 136 589 136 623 144.5 c 128,-1,18
 657 153 657 153 687.5 167.5 c 128,-1,19
 718 182 718 182 744.5 199.5 c 128,-1,20
 771 217 771 217 794 235 c 1,21,-1
 843 107 l 1,22,23
 799 49 799 49 728.5 11.5 c 128,-1,24
 658 -26 658 -26 550 -26 c 0,25,26
 515 -26 515 -26 476.5 -20.5 c 128,-1,27
 438 -15 438 -15 396 -5 c 1,28,-1
 330 -233 l 1,29,-1
 213 -233 l 1,30,-1
 293 43 l 1,31,32
 250 72 250 72 213.5 114 c 128,-1,33
 177 156 177 156 150.5 213.5 c 128,-1,34
 124 271 124 271 109 344 c 128,-1,35
 94 417 94 417 94 508 c 0,36,37
 94 662 94 662 132.5 766.5 c 128,-1,38
 171 871 171 871 236 935 c 128,-1,39
 301 999 301 999 386.5 1026.5 c 128,-1,40
 472 1054 472 1054 566 1054 c 0,41,42
 570 1054 570 1054 575.5 1054 c 128,-1,43
 581 1054 581 1054 590 1052 c 1,44,-1
 664 1302 l 1,0,-1
286 514 m 0,45,46
 286 435 286 435 301 363 c 128,-1,47
 316 291 316 291 347 228 c 1,48,-1
 543 893 l 1,49,50
 469 885 469 885 420 853.5 c 128,-1,51
 371 822 371 822 341 772.5 c 128,-1,52
 311 723 311 723 298.5 657 c 128,-1,53
 286 591 286 591 286 514 c 0,45,46
EndSplineSet
EndChar

StartChar: sterling
Encoding: 163 163 105
Width: 1163
Flags: W
LayerCount: 2
Fore
SplineSet
112 141 m 1,0,-1
 224 156 l 1,1,2
 231 160 231 160 237 177.5 c 128,-1,3
 243 195 243 195 248 219.5 c 128,-1,4
 253 244 253 244 257 272.5 c 128,-1,5
 261 301 261 301 263.5 328.5 c 128,-1,6
 266 356 266 356 267.5 379.5 c 128,-1,7
 269 403 269 403 269 416 c 2,8,-1
 269 648 l 1,9,-1
 106 648 l 1,10,-1
 106 793 l 1,11,-1
 269 793 l 1,12,-1
 269 913 l 2,13,14
 269 970 269 970 272.5 1031.5 c 128,-1,15
 276 1093 276 1093 289.5 1152 c 128,-1,16
 303 1211 303 1211 329.5 1263.5 c 128,-1,17
 356 1316 356 1316 402 1355.5 c 128,-1,18
 448 1395 448 1395 516.5 1418.5 c 128,-1,19
 585 1442 585 1442 682 1442 c 0,20,21
 740 1442 740 1442 795 1430.5 c 128,-1,22
 850 1419 850 1419 899 1393.5 c 128,-1,23
 948 1368 948 1368 989.5 1327 c 128,-1,24
 1031 1286 1031 1286 1063 1226 c 1,25,-1
 919 1160 l 1,26,27
 890 1221 890 1221 831.5 1257 c 128,-1,28
 773 1293 773 1293 688 1293 c 0,29,30
 617 1293 617 1293 573 1269 c 128,-1,31
 529 1245 529 1245 504.5 1203.5 c 128,-1,32
 480 1162 480 1162 471.5 1106.5 c 128,-1,33
 463 1051 463 1051 463 987 c 2,34,-1
 463 793 l 1,35,-1
 774 793 l 1,36,-1
 774 648 l 1,37,-1
 463 648 l 1,38,-1
 463 416 l 2,39,40
 463 394 463 394 459 361 c 128,-1,41
 455 328 455 328 448 291.5 c 128,-1,42
 441 255 441 255 431 219 c 128,-1,43
 421 183 421 183 410 156 c 1,44,-1
 1063 156 l 1,45,-1
 1063 0 l 1,46,-1
 112 0 l 1,47,-1
 112 141 l 1,0,-1
EndSplineSet
EndChar

StartChar: currency
Encoding: 164 164 106
Width: 1466
Flags: W
LayerCount: 2
Fore
SplineSet
150 856 m 256,0,1
 150 956 150 956 182 1047.5 c 128,-1,2
 214 1139 214 1139 272 1217 c 1,3,-1
 175 1315 l 1,4,-1
 279 1418 l 1,5,-1
 376 1320 l 1,6,7
 454 1377 454 1377 544 1409.5 c 128,-1,8
 634 1442 634 1442 734 1442 c 0,9,10
 831 1442 831 1442 921 1410 c 128,-1,11
 1011 1378 1011 1378 1089 1321 c 1,12,-1
 1186 1418 l 1,13,-1
 1290 1315 l 1,14,-1
 1193 1217 l 1,15,16
 1253 1141 1253 1141 1285 1050 c 128,-1,17
 1317 959 1317 959 1317 856 c 0,18,19
 1317 756 1317 756 1285.5 666.5 c 128,-1,20
 1254 577 1254 577 1196 501 c 1,21,22
 1218 478 1218 478 1243 453.5 c 128,-1,23
 1268 429 1268 429 1290 407 c 1,24,-1
 1186 303 l 1,25,-1
 1094 395 l 1,26,27
 1016 335 1016 335 925 303 c 128,-1,28
 834 271 834 271 734 271 c 256,29,30
 634 271 634 271 542 303.5 c 128,-1,31
 450 336 450 336 372 396 c 1,32,-1
 279 303 l 1,33,-1
 175 407 l 1,34,-1
 270 502 l 1,35,36
 213 577 213 577 181.5 666.5 c 128,-1,37
 150 756 150 756 150 856 c 256,0,1
734 410 m 256,38,39
 839 410 839 410 917 448.5 c 128,-1,40
 995 487 995 487 1047.5 549.5 c 128,-1,41
 1100 612 1100 612 1126 692 c 128,-1,42
 1152 772 1152 772 1152 856 c 256,43,44
 1152 940 1152 940 1126 1020 c 128,-1,45
 1100 1100 1100 1100 1047.5 1162.5 c 128,-1,46
 995 1225 995 1225 916.5 1263.5 c 128,-1,47
 838 1302 838 1302 734 1302 c 0,48,49
 629 1302 629 1302 551 1263.5 c 128,-1,50
 473 1225 473 1225 420.5 1162.5 c 128,-1,51
 368 1100 368 1100 342 1020 c 128,-1,52
 316 940 316 940 316 856 c 256,53,54
 316 772 316 772 342 692 c 128,-1,55
 368 612 368 612 420.5 549.5 c 128,-1,56
 473 487 473 487 551 448.5 c 128,-1,57
 629 410 629 410 734 410 c 256,38,39
EndSplineSet
EndChar

StartChar: yen
Encoding: 165 165 107
Width: 1202
Flags: W
LayerCount: 2
Fore
SplineSet
504 0 m 1,0,-1
 504 286 l 1,1,-1
 179 286 l 1,2,-1
 179 424 l 1,3,-1
 504 424 l 1,4,-1
 504 536 l 1,5,-1
 179 536 l 1,6,-1
 179 675 l 1,7,-1
 439 675 l 1,8,9
 348 856 348 856 253.5 1043 c 128,-1,10
 159 1230 159 1230 65 1412 c 1,11,-1
 292 1412 l 1,12,-1
 605 722 l 1,13,-1
 923 1412 l 1,14,-1
 1137 1412 l 1,15,-1
 763 675 l 1,16,-1
 1020 675 l 1,17,-1
 1020 536 l 1,18,-1
 696 536 l 1,19,-1
 696 424 l 1,20,-1
 1020 424 l 1,21,-1
 1020 286 l 1,22,-1
 696 286 l 1,23,-1
 696 0 l 1,24,-1
 504 0 l 1,0,-1
EndSplineSet
EndChar

StartChar: brokenbar
Encoding: 166 166 108
Width: 517
Flags: W
LayerCount: 2
Fore
SplineSet
177 1442 m 1,0,-1
 340 1442 l 1,1,-1
 340 719 l 1,2,-1
 177 719 l 1,3,-1
 177 1442 l 1,0,-1
177 300 m 1,4,-1
 340 300 l 1,5,-1
 340 -477 l 1,6,-1
 177 -477 l 1,7,-1
 177 300 l 1,4,-1
EndSplineSet
EndChar

StartChar: section
Encoding: 167 167 109
Width: 955
Flags: W
LayerCount: 2
Fore
SplineSet
423 -26 m 0,0,1
 344 -26 344 -26 277 -12.5 c 128,-1,2
 210 1 210 1 146 27 c 1,3,-1
 146 202 l 1,4,5
 171 190 171 190 203.5 177 c 128,-1,6
 236 164 236 164 273 153.5 c 128,-1,7
 310 143 310 143 350 136 c 128,-1,8
 390 129 390 129 431 129 c 0,9,10
 496 129 496 129 536.5 143.5 c 128,-1,11
 577 158 577 158 599 179 c 128,-1,12
 621 200 621 200 628.5 222.5 c 128,-1,13
 636 245 636 245 636 262 c 0,14,15
 636 295 636 295 614 318 c 128,-1,16
 592 341 592 341 556.5 359.5 c 128,-1,17
 521 378 521 378 476 394 c 128,-1,18
 431 410 431 410 385 429 c 0,19,20
 352 442 352 442 308.5 462 c 128,-1,21
 265 482 265 482 227 513.5 c 128,-1,22
 189 545 189 545 162.5 590.5 c 128,-1,23
 136 636 136 636 136 702 c 0,24,25
 136 751 136 751 152 790 c 128,-1,26
 168 829 168 829 193 859.5 c 128,-1,27
 218 890 218 890 248.5 912.5 c 128,-1,28
 279 935 279 935 308 951 c 1,29,30
 236 986 236 986 194.5 1040.5 c 128,-1,31
 153 1095 153 1095 153 1173 c 0,32,33
 153 1237 153 1237 179 1287 c 128,-1,34
 205 1337 205 1337 252 1371.5 c 128,-1,35
 299 1406 299 1406 365 1424 c 128,-1,36
 431 1442 431 1442 512 1442 c 0,37,38
 636 1442 636 1442 786 1391 c 1,39,-1
 758 1234 l 1,40,41
 695 1260 695 1260 635.5 1277 c 128,-1,42
 576 1294 576 1294 518 1294 c 0,43,44
 486 1294 486 1294 454.5 1289.5 c 128,-1,45
 423 1285 423 1285 397.5 1272.5 c 128,-1,46
 372 1260 372 1260 356 1238 c 128,-1,47
 340 1216 340 1216 340 1181 c 0,48,49
 340 1154 340 1154 351 1134 c 128,-1,50
 362 1114 362 1114 387 1096.5 c 128,-1,51
 412 1079 412 1079 452 1061.5 c 128,-1,52
 492 1044 492 1044 549 1022 c 0,53,54
 593 1005 593 1005 640.5 984 c 128,-1,55
 688 963 688 963 728 931.5 c 128,-1,56
 768 900 768 900 793.5 854 c 128,-1,57
 819 808 819 808 819 741 c 0,58,59
 819 647 819 647 777.5 586 c 128,-1,60
 736 525 736 525 661 487 c 1,61,62
 692 472 692 472 722 454.5 c 128,-1,63
 752 437 752 437 775.5 412.5 c 128,-1,64
 799 388 799 388 813.5 354 c 128,-1,65
 828 320 828 320 828 272 c 0,66,67
 828 205 828 205 800.5 150 c 128,-1,68
 773 95 773 95 721.5 56 c 128,-1,69
 670 17 670 17 594.5 -4.5 c 128,-1,70
 519 -26 519 -26 423 -26 c 0,0,1
305 731 m 0,71,72
 305 697 305 697 321.5 669 c 128,-1,73
 338 641 338 641 367 618.5 c 128,-1,74
 396 596 396 596 435 578 c 128,-1,75
 474 560 474 560 519 546 c 1,76,77
 537 555 537 555 560.5 569 c 128,-1,78
 584 583 584 583 604 603.5 c 128,-1,79
 624 624 624 624 638 650.5 c 128,-1,80
 652 677 652 677 652 711 c 256,81,82
 652 745 652 745 638.5 770.5 c 128,-1,83
 625 796 625 796 599 817 c 128,-1,84
 573 838 573 838 533.5 856 c 128,-1,85
 494 874 494 874 443 892 c 1,86,87
 419 883 419 883 394.5 868.5 c 128,-1,88
 370 854 370 854 350 834 c 128,-1,89
 330 814 330 814 317.5 788 c 128,-1,90
 305 762 305 762 305 731 c 0,71,72
EndSplineSet
EndChar

StartChar: dieresis
Encoding: 168 168 110
Width: 816
Flags: W
LayerCount: 2
Fore
SplineSet
327 1377 m 1,0,-1
 327 1205 l 1,1,-1
 105 1205 l 1,2,-1
 105 1377 l 1,3,-1
 327 1377 l 1,0,-1
705 1377 m 1,4,-1
 705 1205 l 1,5,-1
 483 1205 l 1,6,-1
 483 1377 l 1,7,-1
 705 1377 l 1,4,-1
EndSplineSet
EndChar

StartChar: copyright
Encoding: 169 169 111
Width: 1647
Flags: W
LayerCount: 2
Fore
SplineSet
477 712 m 0,0,1
 477 761 477 761 485.5 812.5 c 128,-1,2
 494 864 494 864 512 913 c 128,-1,3
 530 962 530 962 558.5 1005 c 128,-1,4
 587 1048 587 1048 627.5 1080.5 c 128,-1,5
 668 1113 668 1113 721.5 1132 c 128,-1,6
 775 1151 775 1151 843 1151 c 0,7,8
 879 1151 879 1151 918 1143.5 c 128,-1,9
 957 1136 957 1136 993 1117 c 128,-1,10
 1029 1098 1029 1098 1059.5 1065.5 c 128,-1,11
 1090 1033 1090 1033 1108 984 c 1,12,-1
 1012 925 l 1,13,14
 997 959 997 959 978.5 979.5 c 128,-1,15
 960 1000 960 1000 938.5 1010.5 c 128,-1,16
 917 1021 917 1021 892 1024.5 c 128,-1,17
 867 1028 867 1028 840 1028 c 0,18,19
 776 1028 776 1028 733.5 998.5 c 128,-1,20
 691 969 691 969 665.5 922.5 c 128,-1,21
 640 876 640 876 629.5 820 c 128,-1,22
 619 764 619 764 619 711 c 0,23,24
 619 659 619 659 629.5 603.5 c 128,-1,25
 640 548 640 548 665 502.5 c 128,-1,26
 690 457 690 457 732.5 427.5 c 128,-1,27
 775 398 775 398 840 398 c 0,28,29
 867 398 867 398 892 401 c 128,-1,30
 917 404 917 404 938.5 415 c 128,-1,31
 960 426 960 426 978.5 446 c 128,-1,32
 997 466 997 466 1012 501 c 1,33,-1
 1108 442 l 1,34,35
 1090 392 1090 392 1059.5 360 c 128,-1,36
 1029 328 1029 328 993 309 c 128,-1,37
 957 290 957 290 918 282.5 c 128,-1,38
 879 275 879 275 843 275 c 0,39,40
 740 275 740 275 670 315.5 c 128,-1,41
 600 356 600 356 557 419.5 c 128,-1,42
 514 483 514 483 495.5 560.5 c 128,-1,43
 477 638 477 638 477 712 c 0,0,1
93 706 m 0,44,45
 93 857 93 857 150 990.5 c 128,-1,46
 207 1124 207 1124 306 1224.5 c 128,-1,47
 405 1325 405 1325 538 1383.5 c 128,-1,48
 671 1442 671 1442 824 1442 c 0,49,50
 924 1442 924 1442 1017.5 1415.5 c 128,-1,51
 1111 1389 1111 1389 1192 1341 c 128,-1,52
 1273 1293 1273 1293 1339.5 1225.5 c 128,-1,53
 1406 1158 1406 1158 1454 1076.5 c 128,-1,54
 1502 995 1502 995 1528 901 c 128,-1,55
 1554 807 1554 807 1554 706 c 256,56,57
 1554 605 1554 605 1528 511.5 c 128,-1,58
 1502 418 1502 418 1454 336.5 c 128,-1,59
 1406 255 1406 255 1339.5 188 c 128,-1,60
 1273 121 1273 121 1192 73.5 c 128,-1,61
 1111 26 1111 26 1017.5 0 c 128,-1,62
 924 -26 924 -26 824 -26 c 0,63,64
 722 -26 722 -26 628.5 0 c 128,-1,65
 535 26 535 26 453.5 74 c 128,-1,66
 372 122 372 122 305.5 189 c 128,-1,67
 239 256 239 256 192 337 c 128,-1,68
 145 418 145 418 119 511.5 c 128,-1,69
 93 605 93 605 93 706 c 0,44,45
197 706 m 0,70,71
 197 577 197 577 246 464 c 128,-1,72
 295 351 295 351 380 266 c 128,-1,73
 465 181 465 181 579 132 c 128,-1,74
 693 83 693 83 824 83 c 0,75,76
 911 83 911 83 991 105.5 c 128,-1,77
 1071 128 1071 128 1140.5 168.5 c 128,-1,78
 1210 209 1210 209 1266.5 266 c 128,-1,79
 1323 323 1323 323 1363.5 392 c 128,-1,80
 1404 461 1404 461 1426 540.5 c 128,-1,81
 1448 620 1448 620 1448 706 c 256,82,83
 1448 792 1448 792 1426 872 c 128,-1,84
 1404 952 1404 952 1363.5 1021.5 c 128,-1,85
 1323 1091 1323 1091 1266 1149 c 128,-1,86
 1209 1207 1209 1207 1139.5 1248 c 128,-1,87
 1070 1289 1070 1289 990 1311.5 c 128,-1,88
 910 1334 910 1334 824 1334 c 0,89,90
 737 1334 737 1334 657 1311.5 c 128,-1,91
 577 1289 577 1289 507.5 1248 c 128,-1,92
 438 1207 438 1207 380.5 1149 c 128,-1,93
 323 1091 323 1091 282.5 1021.5 c 128,-1,94
 242 952 242 952 219.5 872 c 128,-1,95
 197 792 197 792 197 706 c 0,70,71
EndSplineSet
EndChar

StartChar: ordfeminine
Encoding: 170 170 112
Width: 770
Flags: W
LayerCount: 2
Fore
SplineSet
317 791 m 0,0,1
 274 791 274 791 236 803.5 c 128,-1,2
 198 816 198 816 169.5 840 c 128,-1,3
 141 864 141 864 124.5 899.5 c 128,-1,4
 108 935 108 935 108 982 c 0,5,6
 108 1040 108 1040 132 1080.5 c 128,-1,7
 156 1121 156 1121 197 1147 c 128,-1,8
 238 1173 238 1173 293 1185 c 128,-1,9
 348 1197 348 1197 410 1197 c 2,10,-1
 499 1197 l 1,11,-1
 499 1234 l 1,12,13
 498 1262 498 1262 489 1282.5 c 128,-1,14
 480 1303 480 1303 465.5 1315.5 c 128,-1,15
 451 1328 451 1328 432 1334 c 128,-1,16
 413 1340 413 1340 391 1340 c 0,17,18
 346 1340 346 1340 299.5 1325.5 c 128,-1,19
 253 1311 253 1311 216 1287 c 1,20,-1
 168 1366 l 1,21,22
 213 1403 213 1403 279 1422.5 c 128,-1,23
 345 1442 345 1442 411 1442 c 0,24,25
 454 1442 454 1442 492.5 1428.5 c 128,-1,26
 531 1415 531 1415 560 1387.5 c 128,-1,27
 589 1360 589 1360 606.5 1317 c 128,-1,28
 624 1274 624 1274 624 1214 c 2,29,-1
 624 975 l 1,30,31
 625 939 625 939 624.5 909 c 128,-1,32
 624 879 624 879 626 856 c 2,33,-1
 629 809 l 1,34,-1
 519 809 l 1,35,36
 517 823 517 823 513 840.5 c 128,-1,37
 509 858 509 858 505 880 c 1,38,39
 489 863 489 863 470 847 c 128,-1,40
 451 831 451 831 428 818.5 c 128,-1,41
 405 806 405 806 377.5 798.5 c 128,-1,42
 350 791 350 791 317 791 c 0,0,1
345 900 m 0,43,44
 395 900 395 900 425.5 918.5 c 128,-1,45
 456 937 456 937 472.5 966 c 128,-1,46
 489 995 489 995 494 1030.5 c 128,-1,47
 499 1066 499 1066 499 1100 c 1,48,49
 492 1100 492 1100 482.5 1100 c 128,-1,50
 473 1100 473 1100 463 1100.5 c 128,-1,51
 453 1101 453 1101 444 1101 c 128,-1,52
 435 1101 435 1101 431 1101 c 0,53,54
 391 1101 391 1101 356 1095 c 128,-1,55
 321 1089 321 1089 295 1076 c 128,-1,56
 269 1063 269 1063 254 1041.5 c 128,-1,57
 239 1020 239 1020 239 989 c 0,58,59
 239 972 239 972 244.5 956 c 128,-1,60
 250 940 250 940 262.5 927.5 c 128,-1,61
 275 915 275 915 295.5 907.5 c 128,-1,62
 316 900 316 900 345 900 c 0,43,44
EndSplineSet
EndChar

StartChar: guillemotleft
Encoding: 171 171 113
Width: 989
Flags: W
LayerCount: 2
Fore
SplineSet
476 495 m 1,0,-1
 476 513 l 1,1,-1
 730 900 l 1,2,-1
 876 863 l 1,3,-1
 670 503 l 1,4,-1
 877 141 l 1,5,-1
 730 108 l 1,6,-1
 476 495 l 1,0,-1
95 495 m 1,7,-1
 95 514 l 1,8,-1
 347 900 l 1,9,-1
 493 863 l 1,10,-1
 285 503 l 1,11,-1
 494 141 l 1,12,-1
 347 107 l 1,13,-1
 95 495 l 1,7,-1
EndSplineSet
EndChar

StartChar: logicalnot
Encoding: 172 172 114
Width: 1256
Flags: W
LayerCount: 2
Fore
SplineSet
1087 771 m 1,0,-1
 1087 230 l 1,1,-1
 928 230 l 1,2,-1
 928 612 l 1,3,-1
 139 612 l 1,4,-1
 139 771 l 1,5,-1
 1087 771 l 1,0,-1
EndSplineSet
EndChar

StartChar: registered
Encoding: 174 174 116
Width: 1644
Flags: W
LayerCount: 2
Fore
SplineSet
553 301 m 1,0,-1
 553 1129 l 1,1,-1
 813 1129 l 2,2,3
 862 1129 862 1129 914 1120 c 128,-1,4
 966 1111 966 1111 1008.5 1086 c 128,-1,5
 1051 1061 1051 1061 1078 1016 c 128,-1,6
 1105 971 1105 971 1105 899 c 0,7,8
 1105 875 1105 875 1098 847.5 c 128,-1,9
 1091 820 1091 820 1075 792 c 128,-1,10
 1059 764 1059 764 1033 738.5 c 128,-1,11
 1007 713 1007 713 970 694 c 1,12,13
 1006 684 1006 684 1029.5 660.5 c 128,-1,14
 1053 637 1053 637 1068.5 605 c 128,-1,15
 1084 573 1084 573 1094 535 c 128,-1,16
 1104 497 1104 497 1112 456.5 c 128,-1,17
 1120 416 1120 416 1129 376 c 128,-1,18
 1138 336 1138 336 1152 301 c 1,19,-1
 1009 301 l 1,20,21
 984 398 984 398 971 464 c 128,-1,22
 958 530 958 530 941.5 570.5 c 128,-1,23
 925 611 925 611 896.5 628.5 c 128,-1,24
 868 646 868 646 811 646 c 2,25,-1
 693 646 l 1,26,-1
 693 301 l 1,27,-1
 553 301 l 1,0,-1
693 1006 m 1,28,-1
 693 768 l 1,29,-1
 811 768 l 2,30,31
 840 768 840 768 867.5 772.5 c 128,-1,32
 895 777 895 777 916.5 790.5 c 128,-1,33
 938 804 938 804 951 827 c 128,-1,34
 964 850 964 850 964 888 c 256,35,36
 964 926 964 926 951 949.5 c 128,-1,37
 938 973 938 973 917 985.5 c 128,-1,38
 896 998 896 998 868 1002 c 128,-1,39
 840 1006 840 1006 810 1006 c 2,40,-1
 693 1006 l 1,28,-1
196 711 m 0,41,42
 196 624 196 624 218.5 543.5 c 128,-1,43
 241 463 241 463 282 393 c 128,-1,44
 323 323 323 323 380 266 c 128,-1,45
 437 209 437 209 506.5 168 c 128,-1,46
 576 127 576 127 655.5 104.5 c 128,-1,47
 735 82 735 82 821 82 c 0,48,49
 951 82 951 82 1064.5 131.5 c 128,-1,50
 1178 181 1178 181 1262.5 266.5 c 128,-1,51
 1347 352 1347 352 1395.5 466.5 c 128,-1,52
 1444 581 1444 581 1444 711 c 0,53,54
 1444 796 1444 796 1422 875 c 128,-1,55
 1400 954 1400 954 1360 1023.5 c 128,-1,56
 1320 1093 1320 1093 1263.5 1150 c 128,-1,57
 1207 1207 1207 1207 1138 1248 c 128,-1,58
 1069 1289 1069 1289 988.5 1311.5 c 128,-1,59
 908 1334 908 1334 821 1334 c 0,60,61
 692 1334 692 1334 578.5 1285 c 128,-1,62
 465 1236 465 1236 380 1151 c 128,-1,63
 295 1066 295 1066 245.5 953 c 128,-1,64
 196 840 196 840 196 711 c 0,41,42
92 711 m 256,65,66
 92 813 92 813 118.5 907 c 128,-1,67
 145 1001 145 1001 193 1082 c 128,-1,68
 241 1163 241 1163 308 1229.5 c 128,-1,69
 375 1296 375 1296 456 1343 c 128,-1,70
 537 1390 537 1390 629.5 1416 c 128,-1,71
 722 1442 722 1442 821 1442 c 0,72,73
 921 1442 921 1442 1014.5 1416 c 128,-1,74
 1108 1390 1108 1390 1189 1342.5 c 128,-1,75
 1270 1295 1270 1295 1336.5 1228.5 c 128,-1,76
 1403 1162 1403 1162 1450.5 1081 c 128,-1,77
 1498 1000 1498 1000 1524 906 c 128,-1,78
 1550 812 1550 812 1550 711 c 0,79,80
 1550 609 1550 609 1524 515 c 128,-1,81
 1498 421 1498 421 1450 339 c 128,-1,82
 1402 257 1402 257 1335.5 190 c 128,-1,83
 1269 123 1269 123 1188 75 c 128,-1,84
 1107 27 1107 27 1014 0.5 c 128,-1,85
 921 -26 921 -26 821 -26 c 256,86,87
 721 -26 721 -26 628.5 0.5 c 128,-1,88
 536 27 536 27 455 75 c 128,-1,89
 374 123 374 123 307 190 c 128,-1,90
 240 257 240 257 192.5 339 c 128,-1,91
 145 421 145 421 118.5 515 c 128,-1,92
 92 609 92 609 92 711 c 256,65,66
EndSplineSet
EndChar

StartChar: macron
Encoding: 175 175 117
Width: 546
Flags: W
LayerCount: 2
Fore
SplineSet
-3 1359 m 1,0,-1
 540 1359 l 1,1,-1
 540 1242 l 1,2,-1
 -3 1242 l 1,3,-1
 -3 1359 l 1,0,-1
EndSplineSet
EndChar

StartChar: degree
Encoding: 176 176 118
Width: 808
Flags: W
LayerCount: 2
Fore
SplineSet
98 1104 m 0,0,1
 98 1168 98 1168 122 1224 c 128,-1,2
 146 1280 146 1280 188 1322 c 128,-1,3
 230 1364 230 1364 285.5 1388 c 128,-1,4
 341 1412 341 1412 404 1412 c 256,5,6
 467 1412 467 1412 522.5 1388 c 128,-1,7
 578 1364 578 1364 620 1322 c 128,-1,8
 662 1280 662 1280 686 1224 c 128,-1,9
 710 1168 710 1168 710 1104 c 0,10,11
 710 1041 710 1041 686 985 c 128,-1,12
 662 929 662 929 620.5 887.5 c 128,-1,13
 579 846 579 846 523 821.5 c 128,-1,14
 467 797 467 797 404 797 c 256,15,16
 341 797 341 797 285.5 821 c 128,-1,17
 230 845 230 845 188 887 c 128,-1,18
 146 929 146 929 122 985 c 128,-1,19
 98 1041 98 1041 98 1104 c 0,0,1
234 1104 m 0,20,21
 234 1069 234 1069 247.5 1039 c 128,-1,22
 261 1009 261 1009 284 986 c 128,-1,23
 307 963 307 963 338 950 c 128,-1,24
 369 937 369 937 404 937 c 0,25,26
 440 937 440 937 471 950.5 c 128,-1,27
 502 964 502 964 525 986.5 c 128,-1,28
 548 1009 548 1009 561 1039.5 c 128,-1,29
 574 1070 574 1070 574 1104 c 256,30,31
 574 1138 574 1138 560.5 1169 c 128,-1,32
 547 1200 547 1200 524 1223 c 128,-1,33
 501 1246 501 1246 470 1259.5 c 128,-1,34
 439 1273 439 1273 404 1273 c 256,35,36
 369 1273 369 1273 338 1260 c 128,-1,37
 307 1247 307 1247 284 1224 c 128,-1,38
 261 1201 261 1201 247.5 1170.5 c 128,-1,39
 234 1140 234 1140 234 1104 c 0,20,21
EndSplineSet
EndChar

StartChar: plusminus
Encoding: 177 177 119
Width: 1214
Flags: W
LayerCount: 2
Fore
SplineSet
524 564 m 1,0,-1
 133 564 l 1,1,-1
 133 725 l 1,2,-1
 524 725 l 1,3,-1
 524 1070 l 1,4,-1
 688 1070 l 1,5,-1
 688 725 l 1,6,-1
 1081 725 l 1,7,-1
 1081 564 l 1,8,-1
 688 564 l 1,9,-1
 688 222 l 1,10,-1
 524 222 l 1,11,-1
 524 564 l 1,0,-1
133 -13 m 1,12,-1
 133 147 l 1,13,-1
 1081 147 l 1,14,-1
 1081 -13 l 1,15,-1
 133 -13 l 1,12,-1
EndSplineSet
EndChar

StartChar: twosuperior
Encoding: 178 178 120
Width: 925
Flags: W
LayerCount: 2
Fore
SplineSet
123 1159 m 1,0,1
 152 1224 152 1224 185 1270 c 128,-1,2
 218 1316 218 1316 257.5 1344.5 c 128,-1,3
 297 1373 297 1373 345.5 1386 c 128,-1,4
 394 1399 394 1399 454 1399 c 0,5,6
 521 1399 521 1399 581 1380.5 c 128,-1,7
 641 1362 641 1362 685.5 1323.5 c 128,-1,8
 730 1285 730 1285 756 1226.5 c 128,-1,9
 782 1168 782 1168 782 1089 c 0,10,11
 782 1042 782 1042 767 993.5 c 128,-1,12
 752 945 752 945 717.5 888 c 128,-1,13
 683 831 683 831 626.5 763.5 c 128,-1,14
 570 696 570 696 487 612 c 2,15,-1
 300 422 l 1,16,-1
 804 422 l 1,17,-1
 804 285 l 1,18,-1
 112 285 l 1,19,-1
 112 425 l 1,20,-1
 386 708 l 2,21,22
 437 761 437 761 481.5 811.5 c 128,-1,23
 526 862 526 862 558 910 c 128,-1,24
 590 958 590 958 608.5 1003.5 c 128,-1,25
 627 1049 627 1049 627 1093 c 0,26,27
 627 1123 627 1123 618.5 1153 c 128,-1,28
 610 1183 610 1183 590.5 1207.5 c 128,-1,29
 571 1232 571 1232 538 1247.5 c 128,-1,30
 505 1263 505 1263 457 1263 c 256,31,32
 409 1263 409 1263 375.5 1248 c 128,-1,33
 342 1233 342 1233 319.5 1210.5 c 128,-1,34
 297 1188 297 1188 282.5 1161 c 128,-1,35
 268 1134 268 1134 257 1109 c 1,36,-1
 123 1159 l 1,0,1
EndSplineSet
EndChar

StartChar: threesuperior
Encoding: 179 179 121
Width: 933
Flags: W
LayerCount: 2
Fore
SplineSet
86 482 m 1,0,-1
 203 546 l 1,1,2
 248 482 248 482 313.5 450 c 128,-1,3
 379 418 379 418 448 418 c 0,4,5
 488 418 488 418 525 430 c 128,-1,6
 562 442 562 442 590.5 466 c 128,-1,7
 619 490 619 490 635.5 526 c 128,-1,8
 652 562 652 562 652 610 c 0,9,10
 652 664 652 664 630 699.5 c 128,-1,11
 608 735 608 735 572 756.5 c 128,-1,12
 536 778 536 778 490 786.5 c 128,-1,13
 444 795 444 795 396 795 c 2,14,-1
 318 795 l 1,15,-1
 318 926 l 1,16,17
 326 925 326 925 335.5 924.5 c 128,-1,18
 345 924 345 924 354 924 c 0,19,20
 406 924 406 924 455.5 932 c 128,-1,21
 505 940 505 940 543 961 c 128,-1,22
 581 982 581 982 604.5 1018 c 128,-1,23
 628 1054 628 1054 628 1111 c 0,24,25
 628 1151 628 1151 613.5 1180.5 c 128,-1,26
 599 1210 599 1210 574.5 1229.5 c 128,-1,27
 550 1249 550 1249 518 1258.5 c 128,-1,28
 486 1268 486 1268 451 1268 c 0,29,30
 418 1268 418 1268 385 1259.5 c 128,-1,31
 352 1251 352 1251 322.5 1234.5 c 128,-1,32
 293 1218 293 1218 269 1193.5 c 128,-1,33
 245 1169 245 1169 230 1136 c 1,34,-1
 110 1181 l 1,35,36
 134 1236 134 1236 172.5 1277 c 128,-1,37
 211 1318 211 1318 258 1345 c 128,-1,38
 305 1372 305 1372 358 1385.5 c 128,-1,39
 411 1399 411 1399 464 1399 c 0,40,41
 525 1399 525 1399 583 1381 c 128,-1,42
 641 1363 641 1363 685.5 1327.5 c 128,-1,43
 730 1292 730 1292 757 1239.5 c 128,-1,44
 784 1187 784 1187 784 1117 c 0,45,46
 784 1042 784 1042 735.5 975 c 128,-1,47
 687 908 687 908 600 863 c 1,48,49
 664 842 664 842 704 809 c 128,-1,50
 744 776 744 776 767 740 c 128,-1,51
 790 704 790 704 798.5 668.5 c 128,-1,52
 807 633 807 633 807 607 c 0,53,54
 807 535 807 535 777.5 477 c 128,-1,55
 748 419 748 419 698 378 c 128,-1,56
 648 337 648 337 583 314.5 c 128,-1,57
 518 292 518 292 447 292 c 0,58,59
 399 292 399 292 350 303 c 128,-1,60
 301 314 301 314 254.5 337 c 128,-1,61
 208 360 208 360 165 396 c 128,-1,62
 122 432 122 432 86 482 c 1,0,-1
EndSplineSet
EndChar

StartChar: acute
Encoding: 180 180 122
Width: 816
Flags: W
LayerCount: 2
Fore
SplineSet
249 1165 m 1,0,-1
 417 1474 l 1,1,-1
 636 1474 l 1,2,-1
 380 1165 l 1,3,-1
 249 1165 l 1,0,-1
EndSplineSet
EndChar

StartChar: mu
Encoding: 181 181 123
Width: 1137
Flags: W
LayerCount: 2
Fore
SplineSet
829 984 m 1,0,-1
 1003 984 l 1,1,-1
 1003 0 l 1,2,-1
 852 0 l 1,3,-1
 840 125 l 1,4,5
 817 95 817 95 788.5 68 c 128,-1,6
 760 41 760 41 725.5 20 c 128,-1,7
 691 -1 691 -1 650.5 -13.5 c 128,-1,8
 610 -26 610 -26 563 -26 c 0,9,10
 527 -26 527 -26 496 -18.5 c 128,-1,11
 465 -11 465 -11 438.5 2 c 128,-1,12
 412 15 412 15 389.5 32.5 c 128,-1,13
 367 50 367 50 347 69 c 1,14,15
 347 28 347 28 347.5 -14.5 c 128,-1,16
 348 -57 348 -57 348.5 -96 c 128,-1,17
 349 -135 349 -135 349.5 -167.5 c 128,-1,18
 350 -200 350 -200 350 -221 c 2,19,-1
 350 -438 l 1,20,-1
 175 -438 l 1,21,-1
 175 984 l 1,22,-1
 350 984 l 1,23,-1
 350 444 l 2,24,25
 350 383 350 383 358 326 c 128,-1,26
 366 269 366 269 389.5 224.5 c 128,-1,27
 413 180 413 180 456 153.5 c 128,-1,28
 499 127 499 127 570 127 c 0,29,30
 630 127 630 127 678 148 c 128,-1,31
 726 169 726 169 759.5 214.5 c 128,-1,32
 793 260 793 260 811 332.5 c 128,-1,33
 829 405 829 405 829 508 c 2,34,-1
 829 984 l 1,0,-1
EndSplineSet
EndChar

StartChar: paragraph
Encoding: 182 182 124
Width: 1222
Flags: W
LayerCount: 2
Fore
SplineSet
874 -290 m 1,0,-1
 874 1261 l 1,1,-1
 671 1261 l 1,2,-1
 671 -290 l 1,3,-1
 526 -290 l 1,4,-1
 526 518 l 1,5,6
 515 517 515 517 498 516.5 c 128,-1,7
 481 516 481 516 470 516 c 0,8,9
 372 516 372 516 296.5 550 c 128,-1,10
 221 584 221 584 170 644.5 c 128,-1,11
 119 705 119 705 92.5 788.5 c 128,-1,12
 66 872 66 872 66 971 c 0,13,14
 66 1074 66 1074 93 1156 c 128,-1,15
 120 1238 120 1238 177.5 1295 c 128,-1,16
 235 1352 235 1352 325 1382 c 128,-1,17
 415 1412 415 1412 541 1412 c 2,18,-1
 1075 1412 l 1,19,-1
 1075 1259 l 1,20,-1
 1020 1259 l 1,21,-1
 1020 -290 l 1,22,-1
 874 -290 l 1,0,-1
EndSplineSet
EndChar

StartChar: periodcentered
Encoding: 183 183 125
Width: 510
Flags: W
LayerCount: 2
Fore
SplineSet
143 697 m 1,0,-1
 367 697 l 1,1,-1
 367 448 l 1,2,-1
 143 448 l 1,3,-1
 143 697 l 1,0,-1
EndSplineSet
EndChar

StartChar: cedilla
Encoding: 184 184 126
Width: 481
Flags: W
LayerCount: 2
Fore
SplineSet
434 -248 m 0,0,1
 434 -274 434 -274 424 -307 c 128,-1,2
 414 -340 414 -340 386 -369 c 128,-1,3
 358 -398 358 -398 307 -418.5 c 128,-1,4
 256 -439 256 -439 175 -439 c 0,5,6
 130 -439 130 -439 96 -431 c 128,-1,7
 62 -423 62 -423 34 -412 c 1,8,-1
 60 -313 l 1,9,10
 80 -321 80 -321 108 -325.5 c 128,-1,11
 136 -330 136 -330 166 -330 c 0,12,13
 217 -330 217 -330 249.5 -311 c 128,-1,14
 282 -292 282 -292 282 -256 c 0,15,16
 282 -236 282 -236 271.5 -223 c 128,-1,17
 261 -210 261 -210 245.5 -202.5 c 128,-1,18
 230 -195 230 -195 211 -192 c 128,-1,19
 192 -189 192 -189 175 -189 c 0,20,21
 167 -189 167 -189 161 -189 c 128,-1,22
 155 -189 155 -189 149 -190 c 1,23,-1
 96 -163 l 1,24,-1
 208 18 l 1,25,-1
 319 18 l 1,26,-1
 248 -97 l 1,27,28
 345 -111 345 -111 389.5 -146.5 c 128,-1,29
 434 -182 434 -182 434 -248 c 0,0,1
EndSplineSet
EndChar

StartChar: onesuperior
Encoding: 185 185 127
Width: 632
Flags: W
LayerCount: 2
Fore
SplineSet
302 849 m 2,0,1
 302 856 302 856 302.5 875 c 128,-1,2
 303 894 303 894 303 919.5 c 128,-1,3
 303 945 303 945 303.5 975.5 c 128,-1,4
 304 1006 304 1006 304 1037 c 2,5,-1
 306 1196 l 1,6,7
 255 1153 255 1153 198.5 1116 c 128,-1,8
 142 1079 142 1079 81 1044 c 1,9,-1
 44 1182 l 1,10,11
 61 1191 61 1191 85.5 1206.5 c 128,-1,12
 110 1222 110 1222 137.5 1241 c 128,-1,13
 165 1260 165 1260 193 1281 c 128,-1,14
 221 1302 221 1302 246.5 1320.5 c 128,-1,15
 272 1339 272 1339 291.5 1354 c 128,-1,16
 311 1369 311 1369 321 1377 c 1,17,-1
 452 1377 l 1,18,-1
 452 285 l 1,19,-1
 302 285 l 1,20,-1
 302 849 l 2,0,1
EndSplineSet
EndChar

StartChar: ordmasculine
Encoding: 186 186 128
Width: 753
Flags: W
LayerCount: 2
Fore
SplineSet
681 1118 m 0,0,1
 681 1044 681 1044 660 983 c 128,-1,2
 639 922 639 922 599.5 879 c 128,-1,3
 560 836 560 836 503.5 812.5 c 128,-1,4
 447 789 447 789 376 789 c 0,5,6
 301 789 301 789 244.5 814 c 128,-1,7
 188 839 188 839 150 882.5 c 128,-1,8
 112 926 112 926 92.5 986 c 128,-1,9
 73 1046 73 1046 73 1115 c 0,10,11
 73 1185 73 1185 92 1245 c 128,-1,12
 111 1305 111 1305 149 1348.5 c 128,-1,13
 187 1392 187 1392 244.5 1417 c 128,-1,14
 302 1442 302 1442 379 1442 c 0,15,16
 461 1442 461 1442 518.5 1414 c 128,-1,17
 576 1386 576 1386 612 1340.5 c 128,-1,18
 648 1295 648 1295 664.5 1237 c 128,-1,19
 681 1179 681 1179 681 1118 c 0,0,1
208 1119 m 0,20,21
 208 1074 208 1074 216.5 1034 c 128,-1,22
 225 994 225 994 244.5 963.5 c 128,-1,23
 264 933 264 933 296 915 c 128,-1,24
 328 897 328 897 376 897 c 0,25,26
 412 897 412 897 442.5 910 c 128,-1,27
 473 923 473 923 495.5 950.5 c 128,-1,28
 518 978 518 978 531 1020 c 128,-1,29
 544 1062 544 1062 544 1120 c 0,30,31
 544 1165 544 1165 536 1204.5 c 128,-1,32
 528 1244 528 1244 509.5 1273.5 c 128,-1,33
 491 1303 491 1303 459 1320 c 128,-1,34
 427 1337 427 1337 379 1337 c 0,35,36
 333 1337 333 1337 300.5 1320.5 c 128,-1,37
 268 1304 268 1304 247.5 1275 c 128,-1,38
 227 1246 227 1246 217.5 1206 c 128,-1,39
 208 1166 208 1166 208 1119 c 0,20,21
EndSplineSet
EndChar

StartChar: guillemotright
Encoding: 187 187 129
Width: 991
Flags: W
LayerCount: 2
Fore
SplineSet
322 502 m 1,0,-1
 114 863 l 1,1,-1
 260 900 l 1,2,-1
 514 511 l 1,3,-1
 514 492 l 1,4,-1
 260 107 l 1,5,-1
 116 141 l 1,6,-1
 322 502 l 1,0,-1
705 502 m 1,7,-1
 497 863 l 1,8,-1
 643 900 l 1,9,-1
 898 511 l 1,10,-1
 896 492 l 1,11,-1
 642 107 l 1,12,-1
 498 141 l 1,13,-1
 705 502 l 1,7,-1
EndSplineSet
EndChar

StartChar: AE
Encoding: 198 198 140
Width: 1814
Flags: W
LayerCount: 2
Fore
SplineSet
960 0 m 1,0,-1
 924 410 l 1,1,-1
 389 410 l 1,2,-1
 176 0 l 1,3,-1
 -33 0 l 1,4,-1
 704 1412 l 1,5,-1
 1683 1412 l 1,6,-1
 1683 1237 l 1,7,-1
 1042 1237 l 1,8,-1
 1081 820 l 1,9,-1
 1651 820 l 1,10,-1
 1651 645 l 1,11,-1
 1098 645 l 1,12,-1
 1142 177 l 1,13,-1
 1694 177 l 1,14,-1
 1694 0 l 1,15,-1
 960 0 l 1,0,-1
472 581 m 1,16,-1
 907 581 l 1,17,-1
 848 1245 l 1,18,-1
 807 1245 l 1,19,-1
 472 581 l 1,16,-1
EndSplineSet
EndChar

StartChar: Eth
Encoding: 208 208 150
Width: 1403
Flags: W
LayerCount: 2
Fore
SplineSet
73 640 m 1,0,-1
 73 808 l 1,1,-1
 192 808 l 1,2,-1
 192 1412 l 1,3,-1
 674 1412 l 2,4,5
 778 1412 778 1412 864.5 1385 c 128,-1,6
 951 1358 951 1358 1020 1311 c 128,-1,7
 1089 1264 1089 1264 1140 1199 c 128,-1,8
 1191 1134 1191 1134 1225.5 1057.5 c 128,-1,9
 1260 981 1260 981 1277 896.5 c 128,-1,10
 1294 812 1294 812 1294 725 c 0,11,12
 1294 564 1294 564 1252.5 430.5 c 128,-1,13
 1211 297 1211 297 1130 201.5 c 128,-1,14
 1049 106 1049 106 928.5 53 c 128,-1,15
 808 0 808 0 651 0 c 2,16,-1
 192 0 l 1,17,-1
 192 640 l 1,18,-1
 73 640 l 1,0,-1
389 1240 m 1,19,-1
 389 808 l 1,20,-1
 565 808 l 1,21,-1
 565 640 l 1,22,-1
 389 640 l 1,23,-1
 389 171 l 1,24,-1
 637 171 l 2,25,26
 749 171 749 171 833 212 c 128,-1,27
 917 253 917 253 972.5 325.5 c 128,-1,28
 1028 398 1028 398 1056 497.5 c 128,-1,29
 1084 597 1084 597 1084 713 c 0,30,31
 1084 812 1084 812 1058 907 c 128,-1,32
 1032 1002 1032 1002 980.5 1076 c 128,-1,33
 929 1150 929 1150 853 1195 c 128,-1,34
 777 1240 777 1240 677 1240 c 2,35,-1
 389 1240 l 1,19,-1
EndSplineSet
EndChar

StartChar: multiply
Encoding: 215 215 157
Width: 1038
Flags: W
LayerCount: 2
Fore
SplineSet
516 470 m 1,0,-1
 239 194 l 1,1,-1
 127 305 l 1,2,-1
 405 581 l 1,3,-1
 126 860 l 1,4,-1
 243 976 l 1,5,-1
 521 699 l 1,6,-1
 799 976 l 1,7,-1
 911 865 l 1,8,-1
 632 587 l 1,9,-1
 910 311 l 1,10,-1
 792 194 l 1,11,-1
 516 470 l 1,0,-1
EndSplineSet
EndChar

StartChar: Oslash
Encoding: 216 216 158
Width: 1485
Flags: W
LayerCount: 2
Fore
SplineSet
1371 714 m 0,0,1
 1371 563 1371 563 1336 428.5 c 128,-1,2
 1301 294 1301 294 1224.5 193 c 128,-1,3
 1148 92 1148 92 1028 33 c 128,-1,4
 908 -26 908 -26 737 -26 c 0,5,6
 637 -26 637 -26 559 -7 c 128,-1,7
 481 12 481 12 415 47 c 1,8,-1
 324 -103 l 1,9,-1
 195 -69 l 1,10,-1
 311 123 l 1,11,12
 259 172 259 172 221.5 235 c 128,-1,13
 184 298 184 298 160 372 c 128,-1,14
 136 446 136 446 124.5 529.5 c 128,-1,15
 113 613 113 613 113 703 c 0,16,17
 113 772 113 772 121.5 845 c 128,-1,18
 130 918 130 918 149.5 989 c 128,-1,19
 169 1060 169 1060 201 1126.5 c 128,-1,20
 233 1193 233 1193 280 1248 c 1,21,-1
 279 1248 l 1,22,23
 327 1300 327 1300 383 1337 c 128,-1,24
 439 1374 439 1374 499.5 1397 c 128,-1,25
 560 1420 560 1420 622.5 1431 c 128,-1,26
 685 1442 685 1442 747 1442 c 0,27,28
 838 1442 838 1442 916.5 1423 c 128,-1,29
 995 1404 995 1404 1062 1368 c 1,30,-1
 1152 1517 l 1,31,-1
 1283 1482 l 1,32,-1
 1167 1291 l 1,33,34
 1267 1197 1267 1197 1319 1053.5 c 128,-1,35
 1371 910 1371 910 1371 714 c 0,0,1
741 149 m 0,36,37
 832 149 832 149 912 183.5 c 128,-1,38
 992 218 992 218 1049 284 c 1,39,40
 1083 327 1083 327 1104.5 382 c 128,-1,41
 1126 437 1126 437 1138.5 495.5 c 128,-1,42
 1151 554 1151 554 1156 611 c 128,-1,43
 1161 668 1161 668 1161 715 c 0,44,45
 1161 843 1161 843 1138 944 c 128,-1,46
 1115 1045 1115 1045 1064 1120 c 1,47,-1
 513 210 l 1,48,49
 562 179 562 179 620 164 c 128,-1,50
 678 149 678 149 741 149 c 0,36,37
320 708 m 0,51,52
 320 593 320 593 342.5 488.5 c 128,-1,53
 365 384 365 384 419 302 c 1,54,-1
 968 1212 l 1,55,56
 923 1239 923 1239 869 1253.5 c 128,-1,57
 815 1268 815 1268 748 1268 c 0,58,59
 627 1268 627 1268 545 1224.5 c 128,-1,60
 463 1181 463 1181 413 1105 c 128,-1,61
 363 1029 363 1029 341.5 927 c 128,-1,62
 320 825 320 825 320 708 c 0,51,52
EndSplineSet
EndChar

StartChar: Thorn
Encoding: 222 222 164
Width: 1160
Flags: W
LayerCount: 2
Fore
SplineSet
189 1457 m 1,0,-1
 385 1457 l 1,1,-1
 385 1269 l 1,2,-1
 606 1269 l 2,3,4
 712 1269 712 1269 802.5 1248 c 128,-1,5
 893 1227 893 1227 959 1180 c 128,-1,6
 1025 1133 1025 1133 1062 1056.5 c 128,-1,7
 1099 980 1099 980 1099 868 c 0,8,9
 1099 755 1099 755 1063.5 675 c 128,-1,10
 1028 595 1028 595 960 543.5 c 128,-1,11
 892 492 892 492 793.5 468 c 128,-1,12
 695 444 695 444 569 444 c 2,13,-1
 385 444 l 1,14,-1
 385 0 l 1,15,-1
 189 0 l 1,16,-1
 189 1457 l 1,0,-1
385 614 m 1,17,-1
 480 614 l 2,18,19
 530 614 530 614 580.5 615 c 128,-1,20
 631 616 631 616 677 623 c 128,-1,21
 723 630 723 630 762.5 645.5 c 128,-1,22
 802 661 802 661 831.5 689 c 128,-1,23
 861 717 861 717 877.5 760.5 c 128,-1,24
 894 804 894 804 894 868 c 0,25,26
 894 941 894 941 869 986 c 128,-1,27
 844 1031 844 1031 803 1056.5 c 128,-1,28
 762 1082 762 1082 709 1091 c 128,-1,29
 656 1100 656 1100 599 1100 c 2,30,-1
 385 1100 l 1,31,-1
 385 614 l 1,17,-1
EndSplineSet
EndChar

StartChar: germandbls
Encoding: 223 223 165
Width: 1200
Flags: W
LayerCount: 2
Fore
SplineSet
997 1170 m 0,0,1
 997 1131 997 1131 987 1099.5 c 128,-1,2
 977 1068 977 1068 960 1041 c 128,-1,3
 943 1014 943 1014 920.5 991.5 c 128,-1,4
 898 969 898 969 874 949 c 0,5,6
 837 918 837 918 812 896.5 c 128,-1,7
 787 875 787 875 771.5 858.5 c 128,-1,8
 756 842 756 842 749.5 828 c 128,-1,9
 743 814 743 814 743 798 c 0,10,11
 743 783 743 783 748.5 769.5 c 128,-1,12
 754 756 754 756 766 742.5 c 128,-1,13
 778 729 778 729 797.5 714 c 128,-1,14
 817 699 817 699 845 681 c 0,15,16
 895 648 895 648 947 612.5 c 128,-1,17
 999 577 999 577 1041 534 c 128,-1,18
 1083 491 1083 491 1110 438 c 128,-1,19
 1137 385 1137 385 1137 318 c 0,20,21
 1137 234 1137 234 1107.5 171 c 128,-1,22
 1078 108 1078 108 1027 66.5 c 128,-1,23
 976 25 976 25 907.5 4 c 128,-1,24
 839 -17 839 -17 760 -17 c 0,25,26
 709 -17 709 -17 660 -8 c 128,-1,27
 611 1 611 1 570 23.5 c 128,-1,28
 529 46 529 46 499 84 c 128,-1,29
 469 122 469 122 455 181 c 1,30,-1
 561 262 l 1,31,32
 590 202 590 202 643.5 168 c 128,-1,33
 697 134 697 134 764 134 c 0,34,35
 816 134 816 134 851 148.5 c 128,-1,36
 886 163 886 163 907.5 186 c 128,-1,37
 929 209 929 209 938.5 238 c 128,-1,38
 948 267 948 267 948 297 c 0,39,40
 948 340 948 340 931.5 372.5 c 128,-1,41
 915 405 915 405 886.5 432 c 128,-1,42
 858 459 858 459 818.5 484 c 128,-1,43
 779 509 779 509 733 538 c 0,44,45
 685 568 685 568 651.5 595 c 128,-1,46
 618 622 618 622 596.5 650.5 c 128,-1,47
 575 679 575 679 565 710 c 128,-1,48
 555 741 555 741 555 778 c 0,49,50
 555 820 555 820 567.5 852.5 c 128,-1,51
 580 885 580 885 600.5 912 c 128,-1,52
 621 939 621 939 648 962 c 128,-1,53
 675 985 675 985 705 1008 c 0,54,55
 726 1024 726 1024 745 1039.5 c 128,-1,56
 764 1055 764 1055 778.5 1072.5 c 128,-1,57
 793 1090 793 1090 801 1111.5 c 128,-1,58
 809 1133 809 1133 809 1161 c 0,59,60
 809 1234 809 1234 753 1277.5 c 128,-1,61
 697 1321 697 1321 585 1321 c 0,62,63
 528 1321 528 1321 483.5 1308.5 c 128,-1,64
 439 1296 439 1296 409 1268 c 128,-1,65
 379 1240 379 1240 363 1194 c 128,-1,66
 347 1148 347 1148 347 1081 c 2,67,-1
 347 0 l 1,68,-1
 159 0 l 1,69,-1
 159 1083 l 2,70,71
 159 1162 159 1162 179 1231.5 c 128,-1,72
 199 1301 199 1301 248 1353.5 c 128,-1,73
 297 1406 297 1406 380.5 1436.5 c 128,-1,74
 464 1467 464 1467 590 1467 c 0,75,76
 668 1467 668 1467 741.5 1451 c 128,-1,77
 815 1435 815 1435 871.5 1400 c 128,-1,78
 928 1365 928 1365 962.5 1308.5 c 128,-1,79
 997 1252 997 1252 997 1170 c 0,0,1
EndSplineSet
EndChar

StartChar: ae
Encoding: 230 230 172
Width: 1658
Flags: W
LayerCount: 2
Fore
SplineSet
1529 116 m 1,0,1
 1497 90 1497 90 1462 65 c 128,-1,2
 1427 40 1427 40 1385 20.5 c 128,-1,3
 1343 1 1343 1 1292.5 -10.5 c 128,-1,4
 1242 -22 1242 -22 1179 -22 c 0,5,6
 1132 -22 1132 -22 1079 -10.5 c 128,-1,7
 1026 1 1026 1 975 28.5 c 128,-1,8
 924 56 924 56 879 102 c 128,-1,9
 834 148 834 148 804 216 c 1,10,11
 774 148 774 148 728 102 c 128,-1,12
 682 56 682 56 628.5 27.5 c 128,-1,13
 575 -1 575 -1 517 -13.5 c 128,-1,14
 459 -26 459 -26 405 -26 c 0,15,16
 329 -26 329 -26 268 -5 c 128,-1,17
 207 16 207 16 164.5 55.5 c 128,-1,18
 122 95 122 95 99 151.5 c 128,-1,19
 76 208 76 208 76 279 c 0,20,21
 76 346 76 346 98 398 c 128,-1,22
 120 450 120 450 158.5 489.5 c 128,-1,23
 197 529 197 529 248.5 556 c 128,-1,24
 300 583 300 583 358.5 600 c 128,-1,25
 417 617 417 617 479.5 624.5 c 128,-1,26
 542 632 542 632 603 632 c 0,27,28
 630 632 630 632 655.5 630.5 c 128,-1,29
 681 629 681 629 706 627 c 1,30,-1
 706 688 l 2,31,32
 706 755 706 755 691.5 797.5 c 128,-1,33
 677 840 677 840 650.5 864.5 c 128,-1,34
 624 889 624 889 587 898 c 128,-1,35
 550 907 550 907 506 907 c 0,36,37
 467 907 467 907 433 899 c 128,-1,38
 399 891 399 891 368 877.5 c 128,-1,39
 337 864 337 864 307 846 c 128,-1,40
 277 828 277 828 247 808 c 1,41,42
 223 836 223 836 198 863 c 128,-1,43
 173 890 173 890 149 916 c 1,44,45
 191 950 191 950 232 977 c 128,-1,46
 273 1004 273 1004 316 1022.5 c 128,-1,47
 359 1041 359 1041 406 1050.5 c 128,-1,48
 453 1060 453 1060 507 1060 c 0,49,50
 619 1060 619 1060 699 1021.5 c 128,-1,51
 779 983 779 983 833 893 c 1,52,53
 864 935 864 935 902 966 c 128,-1,54
 940 997 940 997 982 1017.5 c 128,-1,55
 1024 1038 1024 1038 1067.5 1048.5 c 128,-1,56
 1111 1059 1111 1059 1152 1059 c 0,57,58
 1260 1059 1260 1059 1338 1020.5 c 128,-1,59
 1416 982 1416 982 1466.5 916.5 c 128,-1,60
 1517 851 1517 851 1541 764 c 128,-1,61
 1565 677 1565 677 1565 580 c 2,62,-1
 1565 480 l 1,63,-1
 898 480 l 1,64,65
 899 409 899 409 915.5 347 c 128,-1,66
 932 285 932 285 966 239 c 128,-1,67
 1000 193 1000 193 1053.5 166 c 128,-1,68
 1107 139 1107 139 1183 139 c 0,69,70
 1271 139 1271 139 1342.5 165.5 c 128,-1,71
 1414 192 1414 192 1480 246 c 1,72,-1
 1529 116 l 1,0,1
1148 904 m 0,73,74
 1052 904 1052 904 986 839 c 128,-1,75
 920 774 920 774 905 647 c 1,76,-1
 905 631 l 1,77,-1
 1368 631 l 1,78,79
 1366 685 1366 685 1355 734 c 128,-1,80
 1344 783 1344 783 1319.5 821 c 128,-1,81
 1295 859 1295 859 1253 881.5 c 128,-1,82
 1211 904 1211 904 1148 904 c 0,73,74
645 217 m 1,83,84
 663 239 663 239 674.5 265 c 128,-1,85
 686 291 686 291 693 324 c 128,-1,86
 700 357 700 357 702.5 398 c 128,-1,87
 705 439 705 439 705 491 c 1,88,-1
 676 491 l 2,89,90
 640 491 640 491 596 490 c 128,-1,91
 552 489 552 489 506.5 483 c 128,-1,92
 461 477 461 477 418.5 465 c 128,-1,93
 376 453 376 453 342.5 431 c 128,-1,94
 309 409 309 409 289 375 c 128,-1,95
 269 341 269 341 269 292 c 0,96,97
 269 260 269 260 279 231 c 128,-1,98
 289 202 289 202 310.5 180 c 128,-1,99
 332 158 332 158 366 144.5 c 128,-1,100
 400 131 400 131 448 131 c 0,101,102
 511 131 511 131 562 152.5 c 128,-1,103
 613 174 613 174 645 217 c 1,83,84
EndSplineSet
EndChar

StartChar: eth
Encoding: 240 240 182
Width: 1102
Flags: W
LayerCount: 2
Fore
SplineSet
510 1076 m 1,0,-1
 697 1145 l 1,1,2
 648 1208 648 1208 586.5 1237.5 c 128,-1,3
 525 1267 525 1267 453 1267 c 0,4,5
 401 1267 401 1267 337 1252 c 128,-1,6
 273 1237 273 1237 204 1206 c 1,7,-1
 151 1328 l 1,8,9
 322 1408 322 1408 465 1408 c 0,10,11
 577 1408 577 1408 675.5 1355 c 128,-1,12
 774 1302 774 1302 843 1202 c 1,13,-1
 1045 1280 l 1,14,-1
 1078 1173 l 1,15,-1
 896 1106 l 1,16,17
 977 918 977 918 977 643 c 0,18,19
 977 512 977 512 958.5 412 c 128,-1,20
 940 312 940 312 908 238 c 128,-1,21
 876 164 876 164 831.5 114 c 128,-1,22
 787 64 787 64 735.5 34 c 128,-1,23
 684 4 684 4 627 -9 c 128,-1,24
 570 -22 570 -22 512 -22 c 0,25,26
 423 -22 423 -22 344.5 6.5 c 128,-1,27
 266 35 266 35 207 92 c 128,-1,28
 148 149 148 149 113.5 234.5 c 128,-1,29
 79 320 79 320 79 435 c 0,30,31
 79 539 79 539 110.5 618.5 c 128,-1,32
 142 698 142 698 196.5 752 c 128,-1,33
 251 806 251 806 325.5 833.5 c 128,-1,34
 400 861 400 861 486 861 c 0,35,36
 669 861 669 861 798 702 c 1,37,38
 798 816 798 816 786 898 c 128,-1,39
 774 980 774 980 749 1048 c 1,40,41
 732 1043 732 1043 698.5 1030.5 c 128,-1,42
 665 1018 665 1018 630 1004 c 2,43,-1
 543 970 l 1,44,-1
 510 1076 l 1,0,-1
518 723 m 0,45,46
 457 723 457 723 408 703 c 128,-1,47
 359 683 359 683 325 646 c 128,-1,48
 291 609 291 609 272.5 556 c 128,-1,49
 254 503 254 503 254 436 c 0,50,51
 254 364 254 364 272 306 c 128,-1,52
 290 248 290 248 323.5 207 c 128,-1,53
 357 166 357 166 405 144 c 128,-1,54
 453 122 453 122 513 122 c 256,55,56
 573 122 573 122 623.5 147 c 128,-1,57
 674 172 674 172 710.5 216 c 128,-1,58
 747 260 747 260 767.5 320 c 128,-1,59
 788 380 788 380 788 449 c 0,60,61
 788 506 788 506 769 555.5 c 128,-1,62
 750 605 750 605 715 642.5 c 128,-1,63
 680 680 680 680 630 701.5 c 128,-1,64
 580 723 580 723 518 723 c 0,45,46
EndSplineSet
EndChar

StartChar: divide
Encoding: 247 247 189
Width: 1206
Flags: W
LayerCount: 2
Fore
SplineSet
129 675 m 1,0,-1
 1077 675 l 1,1,-1
 1077 513 l 1,2,-1
 129 513 l 1,3,-1
 129 675 l 1,0,-1
489 1053 m 1,4,-1
 720 1053 l 1,5,-1
 720 814 l 1,6,-1
 489 814 l 1,7,-1
 489 1053 l 1,4,-1
489 366 m 1,8,-1
 720 366 l 1,9,-1
 720 127 l 1,10,-1
 489 127 l 1,11,-1
 489 366 l 1,8,-1
EndSplineSet
EndChar

StartChar: oslash
Encoding: 248 248 190
Width: 1129
Flags: W
LayerCount: 2
Fore
SplineSet
1031 512 m 0,0,1
 1031 395 1031 395 1000.5 297.5 c 128,-1,2
 970 200 970 200 910.5 129.5 c 128,-1,3
 851 59 851 59 763 20 c 128,-1,4
 675 -19 675 -19 560 -19 c 0,5,6
 500 -19 500 -19 447.5 -7.5 c 128,-1,7
 395 4 395 4 349 26 c 1,8,-1
 262 -119 l 1,9,-1
 133 -85 l 1,10,-1
 244 99 l 1,11,12
 172 168 172 168 135 270 c 128,-1,13
 98 372 98 372 98 503 c 0,14,15
 98 612 98 612 125 710 c 128,-1,16
 152 808 152 808 209.5 881.5 c 128,-1,17
 267 955 267 955 357 998 c 128,-1,18
 447 1041 447 1041 572 1041 c 0,19,20
 635 1041 635 1041 687 1029 c 128,-1,21
 739 1017 739 1017 784 995 c 1,22,-1
 890 1171 l 1,23,-1
 1021 1136 l 1,24,-1
 889 918 l 1,25,26
 926 880 926 880 953 833.5 c 128,-1,27
 980 787 980 787 997 735 c 128,-1,28
 1014 683 1014 683 1022.5 626.5 c 128,-1,29
 1031 570 1031 570 1031 512 c 0,0,1
284 504 m 0,30,31
 284 429 284 429 296.5 365.5 c 128,-1,32
 309 302 309 302 337 253 c 1,33,-1
 703 861 l 1,34,35
 645 895 645 895 570 895 c 0,36,37
 514 895 514 895 462.5 873.5 c 128,-1,38
 411 852 411 852 371 804.5 c 128,-1,39
 331 757 331 757 307.5 683 c 128,-1,40
 284 609 284 609 284 504 c 0,30,31
564 127 m 0,41,42
 624 127 624 127 675.5 148.5 c 128,-1,43
 727 170 727 170 764.5 216.5 c 128,-1,44
 802 263 802 263 823 335 c 128,-1,45
 844 407 844 407 844 508 c 0,46,47
 844 663 844 663 794 761 c 1,48,-1
 429 158 l 1,49,50
 484 127 484 127 564 127 c 0,41,42
EndSplineSet
EndChar

StartChar: thorn
Encoding: 254 254 196
Width: 1166
Flags: W
LayerCount: 2
Fore
SplineSet
158 -416 m 1,0,1
 158 -270 158 -270 158 -157.5 c 128,-1,2
 158 -45 158 -45 158 41 c 128,-1,3
 158 127 158 127 158.5 191 c 128,-1,4
 159 255 159 255 159 304.5 c 128,-1,5
 159 354 159 354 159 393.5 c 128,-1,6
 159 433 159 433 159 471 c 2,7,-1
 159 1449 l 1,8,-1
 345 1449 l 1,9,-1
 345 1124 l 1,10,-1
 343 892 l 1,11,12
 366 920 366 920 395.5 947 c 128,-1,13
 425 974 425 974 463 995 c 128,-1,14
 501 1016 501 1016 547.5 1029 c 128,-1,15
 594 1042 594 1042 650 1042 c 0,16,17
 758 1042 758 1042 836.5 999.5 c 128,-1,18
 915 957 915 957 966 885 c 128,-1,19
 1017 813 1017 813 1041.5 719 c 128,-1,20
 1066 625 1066 625 1066 522 c 0,21,22
 1066 425 1066 425 1043 329 c 128,-1,23
 1020 233 1020 233 970 156.5 c 128,-1,24
 920 80 920 80 839.5 32.5 c 128,-1,25
 759 -15 759 -15 644 -15 c 0,26,27
 609 -15 609 -15 570 -6.5 c 128,-1,28
 531 2 531 2 491 20 c 128,-1,29
 451 38 451 38 412.5 65.5 c 128,-1,30
 374 93 374 93 340 132 c 1,31,-1
 345 19 l 1,32,-1
 345 -416 l 1,33,-1
 158 -416 l 1,0,1
344 511 m 256,34,35
 344 473 344 473 347 431 c 128,-1,36
 350 389 350 389 360 347 c 128,-1,37
 370 305 370 305 388 266.5 c 128,-1,38
 406 228 406 228 435 199 c 128,-1,39
 464 170 464 170 507 152.5 c 128,-1,40
 550 135 550 135 609 135 c 0,41,42
 683 135 683 135 733 166.5 c 128,-1,43
 783 198 783 198 813 251 c 128,-1,44
 843 304 843 304 856 372.5 c 128,-1,45
 869 441 869 441 869 516 c 0,46,47
 869 579 869 579 859 646.5 c 128,-1,48
 849 714 849 714 820.5 769 c 128,-1,49
 792 824 792 824 742 859.5 c 128,-1,50
 692 895 692 895 613 895 c 0,51,52
 553 895 553 895 509.5 877 c 128,-1,53
 466 859 466 859 436 829 c 128,-1,54
 406 799 406 799 388 759.5 c 128,-1,55
 370 720 370 720 360 677.5 c 128,-1,56
 350 635 350 635 347 592 c 128,-1,57
 344 549 344 549 344 511 c 256,34,35
EndSplineSet
EndChar

StartChar: dotlessi
Encoding: 305 305 214
Width: 497
Flags: W
LayerCount: 2
Fore
SplineSet
155 1019 m 1,0,-1
 339 1019 l 1,1,-1
 339 0 l 1,2,-1
 155 0 l 1,3,-1
 155 1019 l 1,0,-1
EndSplineSet
EndChar

StartChar: Lslash
Encoding: 321 321 219
Width: 1030
Flags: W
LayerCount: 2
Fore
SplineSet
196 0 m 1,0,-1
 196 516 l 1,1,-1
 74 441 l 1,2,-1
 74 607 l 1,3,-1
 196 681 l 1,4,-1
 196 1412 l 1,5,-1
 391 1412 l 1,6,-1
 391 799 l 1,7,-1
 763 1025 l 1,8,-1
 763 859 l 1,9,-1
 391 635 l 1,10,-1
 391 180 l 1,11,-1
 996 180 l 1,12,-1
 996 0 l 1,13,-1
 196 0 l 1,0,-1
EndSplineSet
EndChar

StartChar: lslash
Encoding: 322 322 220
Width: 973
Flags: W
LayerCount: 2
Fore
SplineSet
392 571 m 1,0,-1
 35 443 l 1,1,-1
 35 606 l 1,2,-1
 392 735 l 1,3,-1
 392 1449 l 1,4,-1
 581 1449 l 1,5,-1
 581 804 l 1,6,-1
 943 934 l 1,7,-1
 943 770 l 1,8,-1
 581 639 l 1,9,-1
 581 0 l 1,10,-1
 392 0 l 1,11,-1
 392 571 l 1,0,-1
EndSplineSet
EndChar

StartChar: OE
Encoding: 338 338 227
Width: 1999
Flags: W
LayerCount: 2
Fore
SplineSet
1875 0 m 1,0,-1
 743 0 l 2,1,2
 617 0 617 0 501.5 43.5 c 128,-1,3
 386 87 386 87 298.5 175.5 c 128,-1,4
 211 264 211 264 159 398.5 c 128,-1,5
 107 533 107 533 107 715 c 0,6,7
 107 792 107 792 119.5 874 c 128,-1,8
 132 956 132 956 162.5 1033.5 c 128,-1,9
 193 1111 193 1111 243.5 1180 c 128,-1,10
 294 1249 294 1249 370.5 1300.5 c 128,-1,11
 447 1352 447 1352 551 1382 c 128,-1,12
 655 1412 655 1412 792 1412 c 2,13,-1
 1869 1412 l 1,14,-1
 1869 1240 l 1,15,-1
 1208 1240 l 1,16,-1
 1208 817 l 1,17,-1
 1839 817 l 1,18,-1
 1839 640 l 1,19,-1
 1208 640 l 1,20,-1
 1208 180 l 1,21,-1
 1875 180 l 1,22,-1
 1875 0 l 1,0,-1
1000 1240 m 1,23,-1
 792 1240 l 2,24,25
 683 1240 683 1240 605.5 1213 c 128,-1,26
 528 1186 528 1186 476 1142.5 c 128,-1,27
 424 1099 424 1099 393 1043 c 128,-1,28
 362 987 362 987 346 929 c 128,-1,29
 330 871 330 871 325.5 815.5 c 128,-1,30
 321 760 321 760 321 718 c 0,31,32
 321 666 321 666 326.5 606 c 128,-1,33
 332 546 332 546 349.5 486 c 128,-1,34
 367 426 367 426 400.5 371 c 128,-1,35
 434 316 434 316 490 273.5 c 128,-1,36
 546 231 546 231 627.5 205.5 c 128,-1,37
 709 180 709 180 823 180 c 2,38,-1
 1000 180 l 1,39,-1
 1000 1240 l 1,23,-1
EndSplineSet
EndChar

StartChar: oe
Encoding: 339 339 228
Width: 1832
Flags: W
LayerCount: 2
Fore
SplineSet
579 -26 m 0,0,1
 489 -26 489 -26 418.5 -3.5 c 128,-1,2
 348 19 348 19 294 57 c 128,-1,3
 240 95 240 95 202 146 c 128,-1,4
 164 197 164 197 140 254 c 128,-1,5
 116 311 116 311 105 371.5 c 128,-1,6
 94 432 94 432 94 489 c 0,7,8
 94 591 94 591 126.5 683.5 c 128,-1,9
 159 776 159 776 222 846.5 c 128,-1,10
 285 917 285 917 377 958.5 c 128,-1,11
 469 1000 469 1000 589 1000 c 0,12,13
 676 1000 676 1000 738.5 976.5 c 128,-1,14
 801 953 801 953 845 918.5 c 128,-1,15
 889 884 889 884 916.5 844.5 c 128,-1,16
 944 805 944 805 962 772 c 1,17,18
 986 827 986 827 1019 865.5 c 128,-1,19
 1052 904 1052 904 1088.5 929.5 c 128,-1,20
 1125 955 1125 955 1162 969 c 128,-1,21
 1199 983 1199 983 1232 990 c 128,-1,22
 1265 997 1265 997 1291 998.5 c 128,-1,23
 1317 1000 1317 1000 1331 1000 c 0,24,25
 1425 1000 1425 1000 1491.5 976 c 128,-1,26
 1558 952 1558 952 1603 911.5 c 128,-1,27
 1648 871 1648 871 1675 819.5 c 128,-1,28
 1702 768 1702 768 1716.5 712.5 c 128,-1,29
 1731 657 1731 657 1735.5 603 c 128,-1,30
 1740 549 1740 549 1741 504 c 1,31,-1
 1741 458 l 1,32,-1
 1061 458 l 1,33,34
 1059 448 1059 448 1058 437 c 128,-1,35
 1057 426 1057 426 1057 414 c 0,36,37
 1057 359 1057 359 1077.5 307 c 128,-1,38
 1098 255 1098 255 1133.5 214.5 c 128,-1,39
 1169 174 1169 174 1218 149 c 128,-1,40
 1267 124 1267 124 1324 124 c 0,41,42
 1367 124 1367 124 1403.5 138.5 c 128,-1,43
 1440 153 1440 153 1468 178.5 c 128,-1,44
 1496 204 1496 204 1514 240 c 128,-1,45
 1532 276 1532 276 1538 319 c 1,46,-1
 1727 319 l 1,47,48
 1717 246 1717 246 1692 192 c 128,-1,49
 1667 138 1667 138 1633 100 c 128,-1,50
 1599 62 1599 62 1559 37 c 128,-1,51
 1519 12 1519 12 1478 -2 c 128,-1,52
 1437 -16 1437 -16 1399 -21.5 c 128,-1,53
 1361 -27 1361 -27 1331 -27 c 0,54,55
 1269 -27 1269 -27 1212 -9.5 c 128,-1,56
 1155 8 1155 8 1106.5 39 c 128,-1,57
 1058 70 1058 70 1020.5 110.5 c 128,-1,58
 983 151 983 151 960 198 c 1,59,60
 902 92 902 92 805.5 33 c 128,-1,61
 709 -26 709 -26 579 -26 c 0,0,1
302 503 m 0,62,63
 302 488 302 488 303 454 c 128,-1,64
 304 420 304 420 312 378 c 128,-1,65
 320 336 320 336 337.5 290.5 c 128,-1,66
 355 245 355 245 387 207.5 c 128,-1,67
 419 170 419 170 468.5 146 c 128,-1,68
 518 122 518 122 591 122 c 0,69,70
 645 122 645 122 687.5 138.5 c 128,-1,71
 730 155 730 155 761 183 c 128,-1,72
 792 211 792 211 813.5 248 c 128,-1,73
 835 285 835 285 848.5 326.5 c 128,-1,74
 862 368 862 368 867.5 411 c 128,-1,75
 873 454 873 454 873 495 c 0,76,77
 873 561 873 561 858.5 625 c 128,-1,78
 844 689 844 689 811 739 c 128,-1,79
 778 789 778 789 724.5 820 c 128,-1,80
 671 851 671 851 594 851 c 0,81,82
 508 851 508 851 452 818 c 128,-1,83
 396 785 396 785 362.5 734 c 128,-1,84
 329 683 329 683 315.5 621.5 c 128,-1,85
 302 560 302 560 302 503 c 0,62,63
1324 855 m 0,86,87
 1250 855 1250 855 1202 828.5 c 128,-1,88
 1154 802 1154 802 1125 763 c 128,-1,89
 1096 724 1096 724 1083 679 c 128,-1,90
 1070 634 1070 634 1067 597 c 1,91,-1
 1541 597 l 1,92,93
 1540 618 1540 618 1537 645.5 c 128,-1,94
 1534 673 1534 673 1526 701.5 c 128,-1,95
 1518 730 1518 730 1503.5 757.5 c 128,-1,96
 1489 785 1489 785 1465 807 c 128,-1,97
 1441 829 1441 829 1406.5 842 c 128,-1,98
 1372 855 1372 855 1324 855 c 0,86,87
EndSplineSet
EndChar

StartChar: florin
Encoding: 402 402 254
Width: 701
Flags: W
LayerCount: 2
Fore
SplineSet
105 823 m 1,0,-1
 281 823 l 1,1,-1
 324 1030 l 2,2,3
 336 1090 336 1090 355.5 1146 c 128,-1,4
 375 1202 375 1202 411 1245.5 c 128,-1,5
 447 1289 447 1289 504.5 1315.5 c 128,-1,6
 562 1342 562 1342 651 1342 c 0,7,8
 677 1342 677 1342 703 1339 c 128,-1,9
 729 1336 729 1336 763 1331 c 1,10,-1
 739 1180 l 1,11,12
 722 1180 722 1180 705.5 1183 c 128,-1,13
 689 1186 689 1186 667 1186 c 0,14,15
 624 1186 624 1186 595.5 1171.5 c 128,-1,16
 567 1157 567 1157 548.5 1134 c 128,-1,17
 530 1111 530 1111 519.5 1082 c 128,-1,18
 509 1053 509 1053 503 1023 c 2,19,-1
 460 823 l 1,20,-1
 665 823 l 1,21,22
 658 788 658 788 650.5 751.5 c 128,-1,23
 643 715 643 715 635 680 c 1,24,-1
 435 680 l 1,25,-1
 318 54 l 2,26,27
 298 -53 298 -53 275.5 -134.5 c 128,-1,28
 253 -216 253 -216 214 -271.5 c 128,-1,29
 175 -327 175 -327 113 -355.5 c 128,-1,30
 51 -384 51 -384 -47 -384 c 0,31,32
 -55 -384 -55 -384 -67 -383.5 c 128,-1,33
 -79 -383 -79 -383 -97 -380 c 1,34,35
 -90 -338 -90 -338 -83.5 -302 c 128,-1,36
 -77 -266 -77 -266 -71 -228 c 1,37,38
 -59 -230 -59 -230 -50.5 -231 c 128,-1,39
 -42 -232 -42 -232 -37 -232 c 0,40,41
 18 -232 18 -232 47.5 -209.5 c 128,-1,42
 77 -187 77 -187 92.5 -144.5 c 128,-1,43
 108 -102 108 -102 117 -39.5 c 128,-1,44
 126 23 126 23 141 104 c 2,45,-1
 252 680 l 1,46,-1
 78 680 l 1,47,-1
 105 823 l 1,0,-1
EndSplineSet
EndChar

StartChar: circumflex
Encoding: 710 710 283
Width: 816
Flags: W
LayerCount: 2
Fore
SplineSet
563 1187 m 1,0,-1
 400 1413 l 1,1,-1
 234 1187 l 1,2,-1
 53 1187 l 1,3,-1
 313 1545 l 1,4,-1
 495 1545 l 1,5,-1
 751 1187 l 1,6,-1
 563 1187 l 1,0,-1
EndSplineSet
EndChar

StartChar: caron
Encoding: 711 711 284
Width: 546
Flags: W
LayerCount: 2
Fore
SplineSet
369 1139 m 1,0,-1
 185 1139 l 1,1,-1
 -38 1449 l 1,2,-1
 139 1449 l 1,3,-1
 275 1269 l 1,4,-1
 406 1449 l 1,5,-1
 593 1449 l 1,6,-1
 369 1139 l 1,0,-1
EndSplineSet
EndChar

StartChar: breve
Encoding: 728 728 285
Width: 546
Flags: W
LayerCount: 2
Fore
SplineSet
101 1472 m 1,0,1
 106 1387 106 1387 145.5 1338.5 c 128,-1,2
 185 1290 185 1290 268 1290 c 0,3,4
 324 1290 324 1290 357.5 1311.5 c 128,-1,5
 391 1333 391 1333 409.5 1362 c 128,-1,6
 428 1391 428 1391 434.5 1422 c 128,-1,7
 441 1453 441 1453 443 1472 c 1,8,-1
 542 1472 l 1,9,10
 540 1315 540 1315 473.5 1234 c 128,-1,11
 407 1153 407 1153 268 1153 c 0,12,13
 204 1153 204 1153 159.5 1170.5 c 128,-1,14
 115 1188 115 1188 85.5 1216 c 128,-1,15
 56 1244 56 1244 39 1279 c 128,-1,16
 22 1314 22 1314 13.5 1349.5 c 128,-1,17
 5 1385 5 1385 3 1417 c 128,-1,18
 1 1449 1 1449 1 1472 c 1,19,-1
 101 1472 l 1,0,1
EndSplineSet
EndChar

StartChar: dotaccent
Encoding: 729 729 286
Width: 546
Flags: W
LayerCount: 2
Fore
SplineSet
177 1410 m 1,0,-1
 367 1410 l 1,1,-1
 367 1197 l 1,2,-1
 177 1197 l 1,3,-1
 177 1410 l 1,0,-1
EndSplineSet
EndChar

StartChar: ring
Encoding: 730 730 287
Width: 816
Flags: W
LayerCount: 2
Fore
SplineSet
404 1505 m 2,0,1
 375 1505 375 1505 349 1495 c 128,-1,2
 323 1485 323 1485 303 1466 c 128,-1,3
 283 1447 283 1447 271 1421 c 128,-1,4
 259 1395 259 1395 259 1363 c 0,5,6
 259 1334 259 1334 269.5 1309 c 128,-1,7
 280 1284 280 1284 299 1265.5 c 128,-1,8
 318 1247 318 1247 344.5 1236.5 c 128,-1,9
 371 1226 371 1226 404 1226 c 0,10,11
 435 1226 435 1226 461.5 1236.5 c 128,-1,12
 488 1247 488 1247 507 1265.5 c 128,-1,13
 526 1284 526 1284 536.5 1309 c 128,-1,14
 547 1334 547 1334 547 1363 c 0,15,16
 547 1395 547 1395 535 1421 c 128,-1,17
 523 1447 523 1447 503 1466 c 128,-1,18
 483 1485 483 1485 456.5 1495 c 128,-1,19
 430 1505 430 1505 402 1505 c 2,20,-1
 404 1505 l 2,0,1
403 1598 m 256,21,22
 455 1598 455 1598 498.5 1580.5 c 128,-1,23
 542 1563 542 1563 573.5 1532 c 128,-1,24
 605 1501 605 1501 622.5 1458 c 128,-1,25
 640 1415 640 1415 640 1363 c 0,26,27
 640 1312 640 1312 622.5 1270 c 128,-1,28
 605 1228 605 1228 573.5 1197 c 128,-1,29
 542 1166 542 1166 498.5 1149 c 128,-1,30
 455 1132 455 1132 403 1132 c 256,31,32
 351 1132 351 1132 307.5 1149 c 128,-1,33
 264 1166 264 1166 232.5 1197 c 128,-1,34
 201 1228 201 1228 183.5 1270 c 128,-1,35
 166 1312 166 1312 166 1363 c 0,36,37
 166 1415 166 1415 183.5 1458 c 128,-1,38
 201 1501 201 1501 232.5 1532 c 128,-1,39
 264 1563 264 1563 307.5 1580.5 c 128,-1,40
 351 1598 351 1598 403 1598 c 256,21,22
EndSplineSet
EndChar

StartChar: ogonek
Encoding: 731 731 288
Width: 546
Flags: W
LayerCount: 2
Fore
SplineSet
423 15 m 1,0,1
 389 -8 389 -8 357.5 -31 c 128,-1,2
 326 -54 326 -54 301.5 -77.5 c 128,-1,3
 277 -101 277 -101 262.5 -125.5 c 128,-1,4
 248 -150 248 -150 248 -176 c 0,5,6
 248 -210 248 -210 264.5 -228 c 128,-1,7
 281 -246 281 -246 301.5 -254.5 c 128,-1,8
 322 -263 322 -263 341.5 -264.5 c 128,-1,9
 361 -266 361 -266 367 -266 c 0,10,11
 395 -266 395 -266 415 -258 c 128,-1,12
 435 -250 435 -250 459 -236 c 1,13,-1
 459 -332 l 1,14,15
 421 -352 421 -352 377.5 -368 c 128,-1,16
 334 -384 334 -384 272 -384 c 0,17,18
 219 -384 219 -384 183 -369.5 c 128,-1,19
 147 -355 147 -355 125 -332.5 c 128,-1,20
 103 -310 103 -310 93.5 -283.5 c 128,-1,21
 84 -257 84 -257 84 -233 c 0,22,23
 84 -192 84 -192 103 -156 c 128,-1,24
 122 -120 122 -120 155 -89 c 128,-1,25
 188 -58 188 -58 231.5 -32 c 128,-1,26
 275 -6 275 -6 324 15 c 1,27,-1
 423 15 l 1,0,1
EndSplineSet
EndChar

StartChar: tilde
Encoding: 732 732 289
Width: 816
Flags: W
LayerCount: 2
Fore
SplineSet
536 1193 m 0,0,1
 509 1193 509 1193 474.5 1205 c 128,-1,2
 440 1217 440 1217 405 1231 c 128,-1,3
 370 1245 370 1245 339 1257 c 128,-1,4
 308 1269 308 1269 288 1269 c 0,5,6
 256 1269 256 1269 238 1249.5 c 128,-1,7
 220 1230 220 1230 204 1183 c 1,8,-1
 108 1183 l 1,9,10
 108 1234 108 1234 123 1276.5 c 128,-1,11
 138 1319 138 1319 163.5 1349.5 c 128,-1,12
 189 1380 189 1380 222.5 1397 c 128,-1,13
 256 1414 256 1414 294 1414 c 0,14,15
 325 1414 325 1414 357.5 1402.5 c 128,-1,16
 390 1391 390 1391 421.5 1377.5 c 128,-1,17
 453 1364 453 1364 483.5 1352.5 c 128,-1,18
 514 1341 514 1341 541 1341 c 0,19,20
 576 1341 576 1341 595 1363.5 c 128,-1,21
 614 1386 614 1386 622 1428 c 1,22,-1
 722 1428 l 1,23,24
 719 1366 719 1366 703 1322 c 128,-1,25
 687 1278 687 1278 661.5 1249 c 128,-1,26
 636 1220 636 1220 603.5 1206.5 c 128,-1,27
 571 1193 571 1193 536 1193 c 0,0,1
EndSplineSet
EndChar

StartChar: hungarumlaut
Encoding: 733 733 290
Width: 786
Flags: W
LayerCount: 2
Fore
SplineSet
235 1451 m 1,0,-1
 452 1451 l 1,1,-1
 204 1158 l 1,2,-1
 68 1158 l 1,3,-1
 235 1451 l 1,0,-1
545 1451 m 1,4,-1
 761 1451 l 1,5,-1
 513 1158 l 1,6,-1
 376 1158 l 1,7,-1
 545 1451 l 1,4,-1
EndSplineSet
EndChar

StartChar: uni030F
Encoding: 783 783 291
Width: 786
Flags: W
LayerCount: 2
Fore
SplineSet
729 1158 m 1,0,-1
 593 1158 l 1,1,-1
 345 1451 l 1,2,-1
 562 1451 l 1,3,-1
 729 1158 l 1,0,-1
421 1158 m 1,4,-1
 284 1158 l 1,5,-1
 36 1451 l 1,6,-1
 252 1451 l 1,7,-1
 421 1158 l 1,4,-1
EndSplineSet
EndChar

StartChar: uni0311
Encoding: 785 785 292
Width: 546
Flags: W
LayerCount: 2
Fore
SplineSet
1 1153 m 1,0,1
 1 1175 1 1175 3 1207.5 c 128,-1,2
 5 1240 5 1240 13.5 1275.5 c 128,-1,3
 22 1311 22 1311 39 1346 c 128,-1,4
 56 1381 56 1381 85.5 1409 c 128,-1,5
 115 1437 115 1437 159.5 1454.5 c 128,-1,6
 204 1472 204 1472 268 1472 c 0,7,8
 407 1472 407 1472 473.5 1391 c 128,-1,9
 540 1310 540 1310 542 1153 c 1,10,-1
 443 1153 l 1,11,12
 441 1172 441 1172 434.5 1203 c 128,-1,13
 428 1234 428 1234 409.5 1263 c 128,-1,14
 391 1292 391 1292 357.5 1313.5 c 128,-1,15
 324 1335 324 1335 268 1335 c 0,16,17
 185 1335 185 1335 145.5 1286.5 c 128,-1,18
 106 1238 106 1238 101 1153 c 1,19,-1
 1 1153 l 1,0,1
EndSplineSet
EndChar

StartChar: uni0326
Encoding: 806 806 293
Width: 521
Flags: W
LayerCount: 2
Fore
SplineSet
38 -599 m 1,0,-1
 150 -107 l 1,1,-1
 372 -107 l 1,2,-1
 178 -599 l 1,3,-1
 38 -599 l 1,0,-1
EndSplineSet
EndChar

StartChar: uni03A9
Encoding: 937 937 294
Width: 1447
Flags: W
LayerCount: 2
Fore
SplineSet
112 153 m 1,0,-1
 390 153 l 1,1,2
 340 202 340 202 294.5 262.5 c 128,-1,3
 249 323 249 323 214.5 396 c 128,-1,4
 180 469 180 469 159.5 553.5 c 128,-1,5
 139 638 139 638 139 736 c 0,6,7
 139 877 139 877 183.5 996.5 c 128,-1,8
 228 1116 228 1116 307 1202.5 c 128,-1,9
 386 1289 386 1289 494 1337.5 c 128,-1,10
 602 1386 602 1386 730 1386 c 0,11,12
 865 1386 865 1386 972 1332.5 c 128,-1,13
 1079 1279 1079 1279 1153.5 1189.5 c 128,-1,14
 1228 1100 1228 1100 1268 985 c 128,-1,15
 1308 870 1308 870 1308 747 c 0,16,17
 1308 646 1308 646 1286.5 557.5 c 128,-1,18
 1265 469 1265 469 1229.5 394 c 128,-1,19
 1194 319 1194 319 1147.5 258.5 c 128,-1,20
 1101 198 1101 198 1051 153 c 1,21,-1
 1334 153 l 1,22,-1
 1334 0 l 1,23,-1
 845 0 l 1,24,-1
 845 112 l 1,25,26
 899 149 899 149 950 206 c 128,-1,27
 1001 263 1001 263 1040 338.5 c 128,-1,28
 1079 414 1079 414 1103 508.5 c 128,-1,29
 1127 603 1127 603 1127 715 c 0,30,31
 1127 807 1127 807 1101.5 899.5 c 128,-1,32
 1076 992 1076 992 1025.5 1066 c 128,-1,33
 975 1140 975 1140 900.5 1186 c 128,-1,34
 826 1232 826 1232 728 1232 c 0,35,36
 635 1232 635 1232 560 1191.5 c 128,-1,37
 485 1151 485 1151 431.5 1080.5 c 128,-1,38
 378 1010 378 1010 349.5 914 c 128,-1,39
 321 818 321 818 321 708 c 0,40,41
 321 603 321 603 345 510.5 c 128,-1,42
 369 418 369 418 408 341.5 c 128,-1,43
 447 265 447 265 497.5 206.5 c 128,-1,44
 548 148 548 148 601 112 c 1,45,-1
 601 0 l 1,46,-1
 112 0 l 1,47,-1
 112 153 l 1,0,-1
EndSplineSet
EndChar

StartChar: pi
Encoding: 960 960 295
Width: 1179
Flags: W
LayerCount: 2
Fore
SplineSet
962 861 m 1,0,-1
 962 292 l 2,1,2
 962 189 962 189 970.5 117 c 128,-1,3
 979 45 979 45 989 0 c 1,4,-1
 821 0 l 1,5,6
 805 32 805 32 795 100.5 c 128,-1,7
 785 169 785 169 785 281 c 2,8,-1
 785 861 l 1,9,-1
 461 861 l 1,10,11
 458 799 458 799 451.5 725 c 128,-1,12
 445 651 445 651 435.5 571.5 c 128,-1,13
 426 492 426 492 413.5 411 c 128,-1,14
 401 330 401 330 386.5 255 c 128,-1,15
 372 180 372 180 355.5 114.5 c 128,-1,16
 339 49 339 49 321 0 c 1,17,-1
 146 0 l 1,18,19
 164 55 164 55 180.5 123.5 c 128,-1,20
 197 192 197 192 211.5 267 c 128,-1,21
 226 342 226 342 238 421 c 128,-1,22
 250 500 250 500 259.5 577 c 128,-1,23
 269 654 269 654 276 726.5 c 128,-1,24
 283 799 283 799 286 861 c 1,25,26
 208 859 208 859 159.5 853 c 128,-1,27
 111 847 111 847 76 837 c 1,28,-1
 49 960 l 1,29,30
 93 984 93 984 163 1001 c 128,-1,31
 233 1018 233 1018 343 1018 c 2,32,-1
 1129 1018 l 1,33,-1
 1112 861 l 1,34,-1
 962 861 l 1,0,-1
EndSplineSet
EndChar

StartChar: endash
Encoding: 8211 8211 296
Width: 1207
Flags: W
LayerCount: 2
Fore
SplineSet
149 444 m 1,0,-1
 149 608 l 1,1,-1
 1057 608 l 1,2,-1
 1057 444 l 1,3,-1
 149 444 l 1,0,-1
EndSplineSet
EndChar

StartChar: emdash
Encoding: 8212 8212 297
Width: 1906
Flags: W
LayerCount: 2
Fore
SplineSet
150 444 m 1,0,-1
 150 608 l 1,1,-1
 1756 608 l 1,2,-1
 1756 444 l 1,3,-1
 150 444 l 1,0,-1
EndSplineSet
EndChar

StartChar: quoteleft
Encoding: 8216 8216 298
Width: 517
Flags: W
LayerCount: 2
Fore
SplineSet
92 923 m 1,0,-1
 290 1412 l 1,1,-1
 431 1412 l 1,2,-1
 312 923 l 1,3,-1
 92 923 l 1,0,-1
EndSplineSet
EndChar

StartChar: quoteright
Encoding: 8217 8217 299
Width: 501
Flags: W
LayerCount: 2
Fore
SplineSet
109 923 m 1,0,-1
 220 1412 l 1,1,-1
 443 1412 l 1,2,-1
 247 923 l 1,3,-1
 109 923 l 1,0,-1
EndSplineSet
EndChar

StartChar: quotesinglbase
Encoding: 8218 8218 300
Width: 511
Flags: W
LayerCount: 2
Fore
SplineSet
55 -256 m 1,0,-1
 166 223 l 1,1,-1
 387 223 l 1,2,-1
 194 -256 l 1,3,-1
 55 -256 l 1,0,-1
EndSplineSet
EndChar

StartChar: quotedblleft
Encoding: 8220 8220 301
Width: 878
Flags: W
LayerCount: 2
Fore
SplineSet
454 923 m 1,0,-1
 652 1412 l 1,1,-1
 793 1412 l 1,2,-1
 674 923 l 1,3,-1
 454 923 l 1,0,-1
92 923 m 1,4,-1
 290 1412 l 1,5,-1
 431 1412 l 1,6,-1
 312 923 l 1,7,-1
 92 923 l 1,4,-1
EndSplineSet
EndChar

StartChar: quotedblright
Encoding: 8221 8221 302
Width: 866
Flags: W
LayerCount: 2
Fore
SplineSet
474 923 m 1,0,-1
 585 1412 l 1,1,-1
 808 1412 l 1,2,-1
 612 923 l 1,3,-1
 474 923 l 1,0,-1
109 923 m 1,4,-1
 220 1412 l 1,5,-1
 443 1412 l 1,6,-1
 247 923 l 1,7,-1
 109 923 l 1,4,-1
EndSplineSet
EndChar

StartChar: quotedblbase
Encoding: 8222 8222 303
Width: 875
Flags: W
LayerCount: 2
Fore
SplineSet
419 -256 m 1,0,-1
 529 223 l 1,1,-1
 751 223 l 1,2,-1
 558 -256 l 1,3,-1
 419 -256 l 1,0,-1
55 -256 m 1,4,-1
 165 223 l 1,5,-1
 387 223 l 1,6,-1
 194 -256 l 1,7,-1
 55 -256 l 1,4,-1
EndSplineSet
EndChar

StartChar: dagger
Encoding: 8224 8224 304
Width: 948
Flags: W
LayerCount: 2
Fore
SplineSet
394 929 m 1,0,-1
 65 929 l 1,1,-1
 65 1088 l 1,2,-1
 394 1088 l 1,3,-1
 394 1412 l 1,4,-1
 558 1412 l 1,5,-1
 558 1088 l 1,6,-1
 883 1088 l 1,7,-1
 883 929 l 1,8,-1
 558 929 l 1,9,-1
 558 0 l 1,10,-1
 394 0 l 1,11,-1
 394 929 l 1,0,-1
EndSplineSet
EndChar

StartChar: daggerdbl
Encoding: 8225 8225 305
Width: 1073
Flags: W
LayerCount: 2
Fore
SplineSet
453 327 m 1,0,-1
 124 327 l 1,1,-1
 124 486 l 1,2,-1
 453 486 l 1,3,-1
 453 929 l 1,4,-1
 124 929 l 1,5,-1
 124 1089 l 1,6,-1
 453 1089 l 1,7,-1
 453 1412 l 1,8,-1
 619 1412 l 1,9,-1
 619 1089 l 1,10,-1
 948 1089 l 1,11,-1
 948 929 l 1,12,-1
 619 929 l 1,13,-1
 619 486 l 1,14,-1
 948 486 l 1,15,-1
 948 327 l 1,16,-1
 619 327 l 1,17,-1
 619 0 l 1,18,-1
 453 0 l 1,19,-1
 453 327 l 1,0,-1
EndSplineSet
EndChar

StartChar: bullet
Encoding: 8226 8226 306
Width: 807
Flags: W
LayerCount: 2
Fore
SplineSet
106 713 m 0,0,1
 106 785 106 785 129.5 843 c 128,-1,2
 153 901 153 901 193 941 c 128,-1,3
 233 981 233 981 287 1002.5 c 128,-1,4
 341 1024 341 1024 403 1024 c 0,5,6
 464 1024 464 1024 518.5 1002.5 c 128,-1,7
 573 981 573 981 613.5 940.5 c 128,-1,8
 654 900 654 900 677.5 842.5 c 128,-1,9
 701 785 701 785 701 713 c 0,10,11
 701 642 701 642 678 585 c 128,-1,12
 655 528 655 528 614.5 487.5 c 128,-1,13
 574 447 574 447 519.5 425 c 128,-1,14
 465 403 465 403 403 403 c 256,15,16
 341 403 341 403 287 425 c 128,-1,17
 233 447 233 447 192.5 487.5 c 128,-1,18
 152 528 152 528 129 585 c 128,-1,19
 106 642 106 642 106 713 c 0,0,1
EndSplineSet
EndChar

StartChar: ellipsis
Encoding: 8230 8230 307
Width: 1752
Flags: W
LayerCount: 2
Fore
SplineSet
144 248 m 1,0,-1
 369 248 l 1,1,-1
 369 0 l 1,2,-1
 144 0 l 1,3,-1
 144 248 l 1,0,-1
762 248 m 1,4,-1
 989 248 l 1,5,-1
 989 0 l 1,6,-1
 762 0 l 1,7,-1
 762 248 l 1,4,-1
1382 248 m 1,8,-1
 1608 248 l 1,9,-1
 1608 0 l 1,10,-1
 1382 0 l 1,11,-1
 1382 248 l 1,8,-1
EndSplineSet
EndChar

StartChar: perthousand
Encoding: 8240 8240 308
Width: 2361
Flags: W
LayerCount: 2
Fore
SplineSet
238 1046 m 256,0,1
 238 1002 238 1002 243 956 c 128,-1,2
 248 910 248 910 264 872 c 128,-1,3
 280 834 280 834 309.5 809.5 c 128,-1,4
 339 785 339 785 389 785 c 0,5,6
 437 785 437 785 466.5 810 c 128,-1,7
 496 835 496 835 511.5 873.5 c 128,-1,8
 527 912 527 912 532.5 958.5 c 128,-1,9
 538 1005 538 1005 538 1047 c 0,10,11
 538 1101 538 1101 531 1148.5 c 128,-1,12
 524 1196 524 1196 507 1231.5 c 128,-1,13
 490 1267 490 1267 461 1288 c 128,-1,14
 432 1309 432 1309 389 1309 c 0,15,16
 339 1309 339 1309 309.5 1284.5 c 128,-1,17
 280 1260 280 1260 264 1221.5 c 128,-1,18
 248 1183 248 1183 243 1136.5 c 128,-1,19
 238 1090 238 1090 238 1046 c 256,0,1
695 1052 m 0,20,21
 695 954 695 954 673.5 879.5 c 128,-1,22
 652 805 652 805 612 755 c 128,-1,23
 572 705 572 705 515 679 c 128,-1,24
 458 653 458 653 387 653 c 0,25,26
 319 653 319 653 263 677.5 c 128,-1,27
 207 702 207 702 167 751.5 c 128,-1,28
 127 801 127 801 104.5 874 c 128,-1,29
 82 947 82 947 82 1045 c 0,30,31
 82 1135 82 1135 101 1208 c 128,-1,32
 120 1281 120 1281 159 1333 c 128,-1,33
 198 1385 198 1385 257 1413.5 c 128,-1,34
 316 1442 316 1442 396 1442 c 0,35,36
 475 1442 475 1442 531.5 1412.5 c 128,-1,37
 588 1383 588 1383 624.5 1331 c 128,-1,38
 661 1279 661 1279 678 1207.5 c 128,-1,39
 695 1136 695 1136 695 1052 c 0,20,21
1106 358 m 0,40,41
 1106 310 1106 310 1112 264.5 c 128,-1,42
 1118 219 1118 219 1134.5 184.5 c 128,-1,43
 1151 150 1151 150 1179.5 129 c 128,-1,44
 1208 108 1208 108 1254 108 c 0,45,46
 1302 108 1302 108 1332 131 c 128,-1,47
 1362 154 1362 154 1379 191.5 c 128,-1,48
 1396 229 1396 229 1402 276 c 128,-1,49
 1408 323 1408 323 1408 371 c 0,50,51
 1408 418 1408 418 1401.5 465 c 128,-1,52
 1395 512 1395 512 1378.5 549.5 c 128,-1,53
 1362 587 1362 587 1332 610.5 c 128,-1,54
 1302 634 1302 634 1256 634 c 0,55,56
 1207 634 1207 634 1177.5 608.5 c 128,-1,57
 1148 583 1148 583 1132 542.5 c 128,-1,58
 1116 502 1116 502 1111 453 c 128,-1,59
 1106 404 1106 404 1106 358 c 0,40,41
1562 373 m 0,60,61
 1562 281 1562 281 1543.5 207.5 c 128,-1,62
 1525 134 1525 134 1487 82 c 128,-1,63
 1449 30 1449 30 1391.5 2 c 128,-1,64
 1334 -26 1334 -26 1255 -26 c 0,65,66
 1171 -26 1171 -26 1113 5.5 c 128,-1,67
 1055 37 1055 37 1018.5 90.5 c 128,-1,68
 982 144 982 144 966 215.5 c 128,-1,69
 950 287 950 287 950 368 c 0,70,71
 950 464 950 464 971.5 538 c 128,-1,72
 993 612 993 612 1033 662.5 c 128,-1,73
 1073 713 1073 713 1129.5 738.5 c 128,-1,74
 1186 764 1186 764 1255 764 c 0,75,76
 1286 764 1286 764 1321 756.5 c 128,-1,77
 1356 749 1356 749 1390 732 c 128,-1,78
 1424 715 1424 715 1455 685.5 c 128,-1,79
 1486 656 1486 656 1510 613 c 128,-1,80
 1534 570 1534 570 1548 510.5 c 128,-1,81
 1562 451 1562 451 1562 373 c 0,60,61
1305 1442 m 1,82,83
 1097 1072 1097 1072 893.5 699.5 c 128,-1,84
 690 327 690 327 480 -40 c 1,85,-1
 330 -40 l 1,86,-1
 1156 1442 l 1,87,-1
 1305 1442 l 1,82,83
1830 362 m 0,88,89
 1830 314 1830 314 1836 268.5 c 128,-1,90
 1842 223 1842 223 1858.5 188.5 c 128,-1,91
 1875 154 1875 154 1903.5 133 c 128,-1,92
 1932 112 1932 112 1978 112 c 0,93,94
 2026 112 2026 112 2056 135 c 128,-1,95
 2086 158 2086 158 2103 195.5 c 128,-1,96
 2120 233 2120 233 2126 280 c 128,-1,97
 2132 327 2132 327 2132 375 c 0,98,99
 2132 422 2132 422 2125.5 469 c 128,-1,100
 2119 516 2119 516 2102.5 553.5 c 128,-1,101
 2086 591 2086 591 2056 614.5 c 128,-1,102
 2026 638 2026 638 1980 638 c 0,103,104
 1931 638 1931 638 1901.5 612.5 c 128,-1,105
 1872 587 1872 587 1856 546.5 c 128,-1,106
 1840 506 1840 506 1835 457 c 128,-1,107
 1830 408 1830 408 1830 362 c 0,88,89
2286 377 m 0,108,109
 2286 285 2286 285 2267.5 211.5 c 128,-1,110
 2249 138 2249 138 2211 86 c 128,-1,111
 2173 34 2173 34 2115.5 6 c 128,-1,112
 2058 -22 2058 -22 1979 -22 c 0,113,114
 1895 -22 1895 -22 1837 9.5 c 128,-1,115
 1779 41 1779 41 1742.5 94.5 c 128,-1,116
 1706 148 1706 148 1690 219.5 c 128,-1,117
 1674 291 1674 291 1674 372 c 0,118,119
 1674 468 1674 468 1695.5 542 c 128,-1,120
 1717 616 1717 616 1757 666.5 c 128,-1,121
 1797 717 1797 717 1853.5 742.5 c 128,-1,122
 1910 768 1910 768 1979 768 c 0,123,124
 2010 768 2010 768 2045 760.5 c 128,-1,125
 2080 753 2080 753 2114 736 c 128,-1,126
 2148 719 2148 719 2179 689.5 c 128,-1,127
 2210 660 2210 660 2234 617 c 128,-1,128
 2258 574 2258 574 2272 514.5 c 128,-1,129
 2286 455 2286 455 2286 377 c 0,108,109
EndSplineSet
EndChar

StartChar: guilsinglleft
Encoding: 8249 8249 309
Width: 605
Flags: W
LayerCount: 2
Fore
SplineSet
347 108 m 1,0,-1
 93 495 l 1,1,-1
 93 514 l 1,2,-1
 348 900 l 1,3,-1
 490 863 l 1,4,-1
 282 503 l 1,5,-1
 492 141 l 1,6,-1
 347 108 l 1,0,-1
EndSplineSet
EndChar

StartChar: guilsinglright
Encoding: 8250 8250 310
Width: 605
Flags: W
LayerCount: 2
Fore
SplineSet
319 502 m 1,0,-1
 112 863 l 1,1,-1
 258 900 l 1,2,-1
 512 511 l 1,3,-1
 512 493 l 1,4,-1
 258 107 l 1,5,-1
 113 141 l 1,6,-1
 319 502 l 1,0,-1
EndSplineSet
EndChar

StartChar: fraction
Encoding: 8260 8260 311
Width: 910
Flags: W
LayerCount: 2
Fore
SplineSet
933 1400 m 1,0,-1
 121 -30 l 1,1,-1
 -28 -30 l 1,2,-1
 785 1400 l 1,3,-1
 933 1400 l 1,0,-1
EndSplineSet
EndChar

StartChar: foursuperior
Encoding: 8308 8308 312
Width: 944
Flags: W
LayerCount: 2
Fore
SplineSet
557 285 m 1,0,-1
 557 523 l 1,1,-1
 64 523 l 1,2,-1
 64 685 l 1,3,-1
 546 1390 l 1,4,-1
 707 1390 l 1,5,-1
 707 662 l 1,6,-1
 864 662 l 1,7,-1
 864 523 l 1,8,-1
 707 523 l 1,9,-1
 707 285 l 1,10,-1
 557 285 l 1,0,-1
206 662 m 1,11,-1
 557 662 l 1,12,-1
 557 929 l 1,13,-1
 557 1217 l 1,14,-1
 437 1012 l 1,15,-1
 206 662 l 1,11,-1
EndSplineSet
EndChar

StartChar: Euro
Encoding: 8364 8364 313
Width: 1265
Flags: W
LayerCount: 2
Fore
SplineSet
1147 363 m 1,0,1
 1146 331 1146 331 1137.5 290 c 128,-1,2
 1129 249 1129 249 1110 206 c 128,-1,3
 1091 163 1091 163 1060 121.5 c 128,-1,4
 1029 80 1029 80 983 47 c 128,-1,5
 937 14 937 14 873.5 -6 c 128,-1,6
 810 -26 810 -26 727 -26 c 0,7,8
 620 -26 620 -26 536.5 7.5 c 128,-1,9
 453 41 453 41 392 103.5 c 128,-1,10
 331 166 331 166 291.5 255 c 128,-1,11
 252 344 252 344 233 454 c 1,12,-1
 79 454 l 1,13,-1
 120 587 l 1,14,-1
 217 587 l 1,15,16
 215 604 215 604 214 621.5 c 128,-1,17
 213 639 213 639 213 657 c 0,18,19
 213 671 213 671 214 692.5 c 128,-1,20
 215 714 215 714 217 729 c 1,21,-1
 78 729 l 1,22,-1
 121 862 l 1,23,-1
 231 862 l 1,24,25
 250 975 250 975 293 1069.5 c 128,-1,26
 336 1164 336 1164 400 1232 c 128,-1,27
 464 1300 464 1300 548 1337.5 c 128,-1,28
 632 1375 632 1375 734 1375 c 0,29,30
 813 1375 813 1375 885.5 1349.5 c 128,-1,31
 958 1324 958 1324 1013.5 1273 c 128,-1,32
 1069 1222 1069 1222 1104 1145.5 c 128,-1,33
 1139 1069 1139 1069 1144 967 c 1,34,-1
 960 967 l 1,35,36
 956 1025 956 1025 940.5 1065.5 c 128,-1,37
 925 1106 925 1106 903 1133.5 c 128,-1,38
 881 1161 881 1161 855.5 1176.5 c 128,-1,39
 830 1192 830 1192 806.5 1200 c 128,-1,40
 783 1208 783 1208 763.5 1210 c 128,-1,41
 744 1212 744 1212 734 1212 c 0,42,43
 678 1212 678 1212 628.5 1186.5 c 128,-1,44
 579 1161 579 1161 538.5 1114.5 c 128,-1,45
 498 1068 498 1068 468.5 1003.5 c 128,-1,46
 439 939 439 939 423 862 c 1,47,-1
 875 862 l 1,48,-1
 832 729 l 1,49,-1
 410 729 l 1,50,51
 408 712 408 712 406.5 695 c 128,-1,52
 405 678 405 678 405 661 c 0,53,54
 405 624 405 624 411 587 c 1,55,-1
 812 587 l 1,56,-1
 770 454 l 1,57,-1
 426 454 l 1,58,59
 441 386 441 386 466 328 c 128,-1,60
 491 270 491 270 527 227.5 c 128,-1,61
 563 185 563 185 611.5 160.5 c 128,-1,62
 660 136 660 136 722 136 c 0,63,64
 825 136 825 136 892 195.5 c 128,-1,65
 959 255 959 255 973 370 c 1,66,-1
 1147 363 l 1,0,1
EndSplineSet
EndChar

StartChar: trademark
Encoding: 8482 8482 314
Width: 1603
Flags: W
LayerCount: 2
Fore
SplineSet
851 1222 m 1,0,-1
 826 1314 l 1,1,-1
 826 696 l 1,2,-1
 726 696 l 1,3,-1
 726 1412 l 1,4,-1
 897 1412 l 1,5,-1
 1080 846 l 1,6,-1
 1269 1412 l 1,7,-1
 1430 1412 l 1,8,-1
 1430 696 l 1,9,-1
 1330 696 l 1,10,-1
 1330 1318 l 1,11,-1
 1305 1226 l 1,12,-1
 1121 696 l 1,13,-1
 1027 696 l 1,14,-1
 851 1222 l 1,0,-1
310 1313 m 1,15,-1
 112 1313 l 1,16,-1
 112 1412 l 1,17,-1
 612 1412 l 1,18,-1
 612 1313 l 1,19,-1
 405 1313 l 1,20,-1
 405 696 l 1,21,-1
 310 696 l 1,22,-1
 310 1313 l 1,15,-1
EndSplineSet
EndChar

StartChar: partialdiff
Encoding: 8706 8706 315
Width: 1130
Flags: W
LayerCount: 2
Fore
SplineSet
822 702 m 1,0,1
 822 713 822 713 822.5 724.5 c 128,-1,2
 823 736 823 736 823 747 c 0,3,4
 823 808 823 808 816 870 c 128,-1,5
 809 932 809 932 792.5 990 c 128,-1,6
 776 1048 776 1048 749.5 1098.5 c 128,-1,7
 723 1149 723 1149 684.5 1186.5 c 128,-1,8
 646 1224 646 1224 594.5 1245.5 c 128,-1,9
 543 1267 543 1267 477 1267 c 0,10,11
 425 1267 425 1267 361 1252 c 128,-1,12
 297 1237 297 1237 228 1206 c 1,13,-1
 175 1328 l 1,14,15
 346 1408 346 1408 489 1408 c 0,16,17
 614 1408 614 1408 709.5 1355 c 128,-1,18
 805 1302 805 1302 870 1202.5 c 128,-1,19
 935 1103 935 1103 968 961.5 c 128,-1,20
 1001 820 1001 820 1001 643 c 0,21,22
 1001 512 1001 512 982.5 412 c 128,-1,23
 964 312 964 312 932 238 c 128,-1,24
 900 164 900 164 855.5 114 c 128,-1,25
 811 64 811 64 759.5 34 c 128,-1,26
 708 4 708 4 651 -9 c 128,-1,27
 594 -22 594 -22 536 -22 c 0,28,29
 447 -22 447 -22 368.5 6.5 c 128,-1,30
 290 35 290 35 231 92 c 128,-1,31
 172 149 172 149 137.5 234.5 c 128,-1,32
 103 320 103 320 103 435 c 0,33,34
 103 539 103 539 134.5 618.5 c 128,-1,35
 166 698 166 698 220.5 752 c 128,-1,36
 275 806 275 806 349.5 833.5 c 128,-1,37
 424 861 424 861 510 861 c 0,38,39
 693 861 693 861 822 702 c 1,0,1
542 723 m 0,40,41
 481 723 481 723 432 703 c 128,-1,42
 383 683 383 683 349 646 c 128,-1,43
 315 609 315 609 296.5 556 c 128,-1,44
 278 503 278 503 278 436 c 0,45,46
 278 364 278 364 296 306 c 128,-1,47
 314 248 314 248 347.5 207 c 128,-1,48
 381 166 381 166 429 144 c 128,-1,49
 477 122 477 122 537 122 c 256,50,51
 597 122 597 122 647.5 147 c 128,-1,52
 698 172 698 172 734.5 216 c 128,-1,53
 771 260 771 260 791.5 320 c 128,-1,54
 812 380 812 380 812 449 c 0,55,56
 812 506 812 506 793 555.5 c 128,-1,57
 774 605 774 605 739 642.5 c 128,-1,58
 704 680 704 680 654 701.5 c 128,-1,59
 604 723 604 723 542 723 c 0,40,41
EndSplineSet
EndChar

StartChar: Delta
Encoding: 8710 8710 316
Width: 1277
Flags: W
LayerCount: 2
Fore
SplineSet
63 119 m 1,0,-1
 542 1396 l 1,1,-1
 743 1396 l 1,2,-1
 1214 121 l 1,3,-1
 1214 0 l 1,4,-1
 63 0 l 1,5,-1
 63 119 l 1,0,-1
1027 150 m 1,6,-1
 761 889 l 1,7,-1
 643 1227 l 1,8,-1
 529 888 l 1,9,-1
 529 889 l 1,10,-1
 256 150 l 1,11,-1
 1027 150 l 1,6,-1
EndSplineSet
EndChar

StartChar: product
Encoding: 8719 8719 317
Width: 1404
Flags: W
LayerCount: 2
Fore
SplineSet
1131 1193 m 1,0,-1
 1131 -187 l 1,1,-1
 956 -187 l 1,2,-1
 956 1193 l 1,3,-1
 449 1193 l 1,4,-1
 449 -187 l 1,5,-1
 274 -187 l 1,6,-1
 274 1193 l 1,7,-1
 65 1193 l 1,8,-1
 65 1361 l 1,9,-1
 1338 1361 l 1,10,-1
 1338 1193 l 1,11,-1
 1131 1193 l 1,0,-1
EndSplineSet
EndChar

StartChar: summation
Encoding: 8721 8721 318
Width: 1162
Flags: W
LayerCount: 2
Fore
SplineSet
79 -187 m 1,0,-1
 79 -65 l 1,1,-1
 586 585 l 1,2,-1
 102 1231 l 1,3,-1
 102 1361 l 1,4,-1
 1047 1361 l 1,5,-1
 1047 1204 l 1,6,-1
 343 1204 l 1,7,-1
 792 611 l 1,8,-1
 305 -14 l 1,9,-1
 1079 -14 l 1,10,-1
 1079 -187 l 1,11,-1
 79 -187 l 1,0,-1
EndSplineSet
EndChar

StartChar: minus
Encoding: 8722 8722 319
Width: 1268
Flags: W
LayerCount: 2
Fore
SplineSet
160 505 m 1,0,-1
 160 665 l 1,1,-1
 1108 665 l 1,2,-1
 1108 505 l 1,3,-1
 160 505 l 1,0,-1
EndSplineSet
EndChar

StartChar: radical
Encoding: 8730 8730 320
Width: 1105
Flags: W
LayerCount: 2
Fore
SplineSet
924 1618 m 1,0,-1
 1064 1618 l 1,1,-1
 630 -283 l 1,2,-1
 478 -283 l 1,3,-1
 177 597 l 1,4,-1
 32 540 l 1,5,-1
 -5 654 l 1,6,-1
 284 770 l 1,7,-1
 548 -57 l 1,8,-1
 924 1618 l 1,0,-1
EndSplineSet
EndChar

StartChar: infinity
Encoding: 8734 8734 321
Width: 1568
Flags: W
LayerCount: 2
Fore
SplineSet
1443 564 m 2,0,1
 1443 490 1443 490 1417.5 431 c 128,-1,2
 1392 372 1392 372 1349 331 c 128,-1,3
 1306 290 1306 290 1251 267.5 c 128,-1,4
 1196 245 1196 245 1138 245 c 0,5,6
 1090 245 1090 245 1049 258.5 c 128,-1,7
 1008 272 1008 272 967.5 301 c 128,-1,8
 927 330 927 330 883.5 374 c 128,-1,9
 840 418 840 418 787 480 c 1,10,11
 747 433 747 433 707 390.5 c 128,-1,12
 667 348 667 348 623 315.5 c 128,-1,13
 579 283 579 283 529 264 c 128,-1,14
 479 245 479 245 420 245 c 256,15,16
 361 245 361 245 307 268.5 c 128,-1,17
 253 292 253 292 212 333.5 c 128,-1,18
 171 375 171 375 147 432 c 128,-1,19
 123 489 123 489 123 557 c 0,20,21
 123 626 123 626 146.5 684.5 c 128,-1,22
 170 743 170 743 212 785.5 c 128,-1,23
 254 828 254 828 311 852 c 128,-1,24
 368 876 368 876 436 876 c 0,25,26
 488 876 488 876 535 858.5 c 128,-1,27
 582 841 582 841 627 810 c 256,28,29
 672 779 672 779 712.5 730.5 c 128,-1,30
 753 682 753 682 793 636 c 1,31,32
 810 655 810 655 829 678 c 128,-1,33
 848 701 848 701 868 724 c 128,-1,34
 888 747 888 747 908.5 768 c 128,-1,35
 929 789 929 789 950 804 c 0,36,37
 995 836 995 836 1044.5 856 c 128,-1,38
 1094 876 1094 876 1152 876 c 0,39,40
 1216 876 1216 876 1269.5 853.5 c 128,-1,41
 1323 831 1323 831 1361.5 790 c 128,-1,42
 1400 749 1400 749 1421.5 692 c 128,-1,43
 1443 635 1443 635 1443 566 c 2,44,-1
 1443 564 l 2,0,1
438 357 m 2,45,46
 477 357 477 357 513.5 373.5 c 128,-1,47
 550 390 550 390 585.5 417 c 128,-1,48
 621 444 621 444 654.5 479 c 128,-1,49
 688 514 688 514 721 551 c 1,50,51
 689 591 689 591 657 629.5 c 128,-1,52
 625 668 625 668 590 698 c 128,-1,53
 555 728 555 728 514 746.5 c 128,-1,54
 473 765 473 765 424 765 c 0,55,56
 380 765 380 765 345.5 748 c 128,-1,57
 311 731 311 731 287.5 702 c 128,-1,58
 264 673 264 673 251.5 635 c 128,-1,59
 239 597 239 597 239 555 c 0,60,61
 239 515 239 515 253.5 479 c 128,-1,62
 268 443 268 443 294.5 416 c 128,-1,63
 321 389 321 389 357 373 c 128,-1,64
 393 357 393 357 436 357 c 2,65,-1
 438 357 l 2,45,46
1138 765 m 2,66,67
 1102 765 1102 765 1066.5 748.5 c 128,-1,68
 1031 732 1031 732 995.5 704 c 128,-1,69
 960 676 960 676 925 640 c 128,-1,70
 890 604 890 604 854 564 c 1,71,72
 900 511 900 511 937 472.5 c 128,-1,73
 974 434 974 434 1008 408 c 128,-1,74
 1042 382 1042 382 1074.5 369.5 c 128,-1,75
 1107 357 1107 357 1144 357 c 0,76,77
 1188 357 1188 357 1222 375 c 128,-1,78
 1256 393 1256 393 1279.5 421.5 c 128,-1,79
 1303 450 1303 450 1315 485.5 c 128,-1,80
 1327 521 1327 521 1327 557 c 0,81,82
 1327 605 1327 605 1313 643.5 c 128,-1,83
 1299 682 1299 682 1274 709 c 128,-1,84
 1249 736 1249 736 1214.5 750.5 c 128,-1,85
 1180 765 1180 765 1140 765 c 2,86,-1
 1138 765 l 2,66,67
EndSplineSet
EndChar

StartChar: integral
Encoding: 8747 8747 322
Width: 710
Flags: W
LayerCount: 2
Fore
SplineSet
653 1504 m 1,0,1
 634 1515 634 1515 615 1521 c 128,-1,2
 596 1527 596 1527 580 1527 c 0,3,4
 539 1527 539 1527 509 1506 c 128,-1,5
 479 1485 479 1485 460 1439.5 c 128,-1,6
 441 1394 441 1394 432 1322 c 128,-1,7
 423 1250 423 1250 423 1147 c 0,8,9
 423 1033 423 1033 427.5 914 c 128,-1,10
 432 795 432 795 437 673.5 c 128,-1,11
 442 552 442 552 446.5 429.5 c 128,-1,12
 451 307 451 307 451 187 c 0,13,14
 451 34 451 34 427.5 -64 c 128,-1,15
 404 -162 404 -162 364.5 -217.5 c 128,-1,16
 325 -273 325 -273 272 -294 c 128,-1,17
 219 -315 219 -315 161 -315 c 0,18,19
 124 -315 124 -315 86 -304 c 128,-1,20
 48 -293 48 -293 24 -280 c 1,21,-1
 51 -146 l 1,22,23
 75 -157 75 -157 95.5 -164.5 c 128,-1,24
 116 -172 116 -172 143 -172 c 0,25,26
 171 -172 171 -172 197.5 -159.5 c 128,-1,27
 224 -147 224 -147 244 -108 c 128,-1,28
 264 -69 264 -69 276.5 2 c 128,-1,29
 289 73 289 73 289 190 c 0,30,31
 289 312 289 312 285 436 c 128,-1,32
 281 560 281 560 276.5 683 c 128,-1,33
 272 806 272 806 268 927 c 128,-1,34
 264 1048 264 1048 264 1164 c 0,35,36
 264 1296 264 1296 283.5 1390.5 c 128,-1,37
 303 1485 303 1485 341 1546 c 128,-1,38
 379 1607 379 1607 435.5 1635.5 c 128,-1,39
 492 1664 492 1664 566 1664 c 0,40,41
 595 1664 595 1664 627.5 1655 c 128,-1,42
 660 1646 660 1646 683 1636 c 1,43,-1
 653 1504 l 1,0,1
EndSplineSet
EndChar

StartChar: approxequal
Encoding: 8776 8776 323
Width: 1229
Flags: W
LayerCount: 2
Fore
SplineSet
1079 452 m 1,0,1
 1057 413 1057 413 1029.5 377.5 c 128,-1,2
 1002 342 1002 342 969.5 316 c 128,-1,3
 937 290 937 290 899.5 274.5 c 128,-1,4
 862 259 862 259 820 259 c 0,5,6
 782 259 782 259 746 270 c 128,-1,7
 710 281 710 281 676.5 297 c 128,-1,8
 643 313 643 313 610 332 c 128,-1,9
 577 351 577 351 545.5 367 c 128,-1,10
 514 383 514 383 482 394 c 128,-1,11
 450 405 450 405 418 405 c 256,12,13
 386 405 386 405 359 393 c 128,-1,14
 332 381 332 381 309 361 c 128,-1,15
 286 341 286 341 265.5 314.5 c 128,-1,16
 245 288 245 288 226 259 c 1,17,-1
 152 324 l 1,18,19
 200 415 200 415 271 468 c 128,-1,20
 342 521 342 521 430 521 c 0,21,22
 467 521 467 521 501.5 510 c 128,-1,23
 536 499 536 499 568.5 483 c 128,-1,24
 601 467 601 467 632.5 448 c 128,-1,25
 664 429 664 429 695 413 c 128,-1,26
 726 397 726 397 757.5 386 c 128,-1,27
 789 375 789 375 822 375 c 0,28,29
 878 375 878 375 919.5 411 c 128,-1,30
 961 447 961 447 1005 519 c 1,31,-1
 1079 452 l 1,0,1
1079 789 m 1,32,33
 1057 749 1057 749 1029.5 714 c 128,-1,34
 1002 679 1002 679 969.5 652.5 c 128,-1,35
 937 626 937 626 899.5 611 c 128,-1,36
 862 596 862 596 820 596 c 0,37,38
 761 596 761 596 710 618.5 c 128,-1,39
 659 641 659 641 611 668.5 c 128,-1,40
 563 696 563 696 515.5 718.5 c 128,-1,41
 468 741 468 741 416 741 c 0,42,43
 384 741 384 741 357.5 729 c 128,-1,44
 331 717 331 717 308 696.5 c 128,-1,45
 285 676 285 676 265 650 c 128,-1,46
 245 624 245 624 226 596 c 1,47,-1
 153 660 l 1,48,49
 201 751 201 751 271.5 803.5 c 128,-1,50
 342 856 342 856 430 856 c 0,51,52
 485 856 485 856 534.5 833.5 c 128,-1,53
 584 811 584 811 631.5 783.5 c 128,-1,54
 679 756 679 756 726.5 733.5 c 128,-1,55
 774 711 774 711 825 711 c 0,56,57
 879 711 879 711 920 748 c 128,-1,58
 961 785 961 785 1005 857 c 1,59,-1
 1079 789 l 1,32,33
EndSplineSet
EndChar

StartChar: notequal
Encoding: 8800 8800 324
Width: 1167
Flags: W
LayerCount: 2
Fore
SplineSet
742 804 m 1,0,-1
 1032 804 l 1,1,-1
 1032 687 l 1,2,-1
 693 687 l 1,3,-1
 572 421 l 1,4,-1
 1032 421 l 1,5,-1
 1032 305 l 1,6,-1
 524 305 l 1,7,-1
 421 76 l 1,8,-1
 329 118 l 1,9,-1
 415 305 l 1,10,-1
 132 305 l 1,11,-1
 132 421 l 1,12,-1
 464 421 l 1,13,-1
 582 687 l 1,14,-1
 132 687 l 1,15,-1
 132 804 l 1,16,-1
 630 804 l 1,17,-1
 731 1028 l 1,18,-1
 824 986 l 1,19,-1
 742 804 l 1,0,-1
EndSplineSet
EndChar

StartChar: lessequal
Encoding: 8804 8804 325
Width: 1118
Flags: W
LayerCount: 2
Fore
SplineSet
76 622 m 1,0,-1
 76 744 l 1,1,-1
 957 1183 l 1,2,-1
 957 1044 l 1,3,-1
 200 684 l 1,4,-1
 959 324 l 1,5,-1
 959 184 l 1,6,-1
 76 622 l 1,0,-1
65 2 m 1,7,-1
 65 123 l 1,8,-1
 964 123 l 1,9,-1
 964 2 l 1,10,-1
 65 2 l 1,7,-1
EndSplineSet
EndChar

StartChar: greaterequal
Encoding: 8805 8805 326
Width: 1110
Flags: W
LayerCount: 2
Fore
SplineSet
1040 743 m 1,0,-1
 1040 622 l 1,1,-1
 156 184 l 1,2,-1
 156 324 l 1,3,-1
 911 683 l 1,4,-1
 156 1044 l 1,5,-1
 156 1183 l 1,6,-1
 1040 743 l 1,0,-1
144 2 m 1,7,-1
 156 123 l 1,8,-1
 1042 123 l 1,9,-1
 1042 2 l 1,10,-1
 144 2 l 1,7,-1
EndSplineSet
EndChar

StartChar: lozenge
Encoding: 9674 9674 327
Width: 1045
Flags: W
LayerCount: 2
Fore
SplineSet
590 -89 m 1,0,-1
 450 -89 l 1,1,-1
 63 680 l 1,2,-1
 454 1449 l 1,3,-1
 595 1449 l 1,4,-1
 983 678 l 1,5,-1
 590 -89 l 1,0,-1
523 1285 m 1,6,-1
 226 678 l 1,7,-1
 524 65 l 1,8,-1
 820 676 l 1,9,-1
 523 1285 l 1,6,-1
EndSplineSet
EndChar

StartChar: fi
Encoding: 64257 64257 329
Width: 1205
Flags: W
LayerCount: 2
Fore
SplineSet
1046 0 m 1,0,-1
 860 0 l 1,1,-1
 860 866 l 1,2,-1
 420 866 l 1,3,-1
 420 0 l 1,4,-1
 231 0 l 1,5,-1
 231 866 l 1,6,-1
 43 866 l 1,7,-1
 43 997 l 1,8,-1
 232 1014 l 1,9,-1
 232 1062 l 2,10,11
 232 1113 232 1113 235 1152 c 128,-1,12
 238 1191 238 1191 245.5 1221.5 c 128,-1,13
 253 1252 253 1252 264.5 1275.5 c 128,-1,14
 276 1299 276 1299 293 1319 c 0,15,16
 330 1364 330 1364 389.5 1388 c 128,-1,17
 449 1412 449 1412 535 1412 c 0,18,19
 577 1412 577 1412 622 1404.5 c 128,-1,20
 667 1397 667 1397 709 1386 c 1,21,22
 703 1344 703 1344 697 1309 c 128,-1,23
 691 1274 691 1274 685 1234 c 1,24,25
 654 1240 654 1240 622 1244.5 c 128,-1,26
 590 1249 590 1249 561 1249 c 0,27,28
 515 1249 515 1249 487.5 1238.5 c 128,-1,29
 460 1228 460 1228 445 1208 c 128,-1,30
 430 1188 430 1188 425 1157 c 128,-1,31
 420 1126 420 1126 420 1086 c 2,32,-1
 420 1015 l 1,33,-1
 1046 1015 l 1,34,-1
 1046 0 l 1,0,-1
1064 1377 m 1,35,-1
 1064 1205 l 1,36,-1
 842 1205 l 1,37,-1
 842 1377 l 1,38,-1
 1064 1377 l 1,35,-1
EndSplineSet
EndChar

StartChar: fl
Encoding: 64258 64258 330
Width: 1194
Flags: W
LayerCount: 2
Fore
SplineSet
836 1261 m 1,0,-1
 561 1261 l 2,1,2
 515 1261 515 1261 487.5 1249 c 128,-1,3
 460 1237 460 1237 445 1214 c 128,-1,4
 430 1191 430 1191 425 1158.5 c 128,-1,5
 420 1126 420 1126 420 1086 c 2,6,-1
 420 1015 l 1,7,-1
 649 1015 l 1,8,-1
 649 866 l 1,9,-1
 420 866 l 1,10,-1
 420 0 l 1,11,-1
 231 0 l 1,12,-1
 231 866 l 1,13,-1
 43 866 l 1,14,-1
 43 997 l 1,15,-1
 232 1014 l 1,16,-1
 232 1062 l 2,17,18
 232 1113 232 1113 235 1152 c 128,-1,19
 238 1191 238 1191 245.5 1221.5 c 128,-1,20
 253 1252 253 1252 264.5 1275.5 c 128,-1,21
 276 1299 276 1299 293 1319 c 0,22,23
 330 1364 330 1364 389.5 1388 c 128,-1,24
 449 1412 449 1412 535 1412 c 2,25,-1
 1025 1412 l 1,26,-1
 1025 0 l 1,27,-1
 836 0 l 1,28,-1
 836 1261 l 1,0,-1
EndSplineSet
EndChar

StartChar: g.alt
Encoding: 65539 -1 332
Width: 1166
Flags: W
LayerCount: 2
Fore
SplineSet
962 689 m 0,0,1
 962 594 962 594 926.5 527.5 c 128,-1,2
 891 461 891 461 832.5 418.5 c 128,-1,3
 774 376 774 376 698.5 356.5 c 128,-1,4
 623 337 623 337 544 337 c 0,5,6
 441 337 441 337 359 362 c 1,7,8
 331 331 331 331 316 301.5 c 128,-1,9
 301 272 301 272 301 256 c 0,10,11
 301 241 301 241 303 229.5 c 128,-1,12
 305 218 305 218 314 210 c 128,-1,13
 323 202 323 202 340.5 197.5 c 128,-1,14
 358 193 358 193 389 193 c 2,15,-1
 536 193 l 2,16,17
 595 193 595 193 658 190 c 128,-1,18
 721 187 721 187 780.5 178 c 128,-1,19
 840 169 840 169 893 152 c 128,-1,20
 946 135 946 135 986 107.5 c 128,-1,21
 1026 80 1026 80 1049 40 c 128,-1,22
 1072 0 1072 0 1072 -55 c 0,23,24
 1072 -248 1072 -248 942.5 -344.5 c 128,-1,25
 813 -441 813 -441 561 -453 c 1,26,27
 465 -453 465 -453 382.5 -434.5 c 128,-1,28
 300 -416 300 -416 239 -383 c 128,-1,29
 178 -350 178 -350 143 -305 c 128,-1,30
 108 -260 108 -260 108 -208 c 0,31,32
 108 -186 108 -186 116 -154.5 c 128,-1,33
 124 -123 124 -123 142 -88 c 128,-1,34
 160 -53 160 -53 188.5 -17.5 c 128,-1,35
 217 18 217 18 257 49 c 1,36,-1
 254 65 l 1,37,38
 238 66 238 66 216.5 73 c 128,-1,39
 195 80 195 80 176 95.5 c 128,-1,40
 157 111 157 111 143.5 136 c 128,-1,41
 130 161 130 161 130 197 c 0,42,43
 130 304 130 304 263 436 c 1,44,45
 188 481 188 481 153 544.5 c 128,-1,46
 118 608 118 608 118 677 c 0,47,48
 118 743 118 743 144.5 808.5 c 128,-1,49
 171 874 171 874 224.5 926 c 128,-1,50
 278 978 278 978 357.5 1010 c 128,-1,51
 437 1042 437 1042 543 1042 c 0,52,53
 637 1042 637 1042 705 1016 c 128,-1,54
 773 990 773 990 828 945 c 1,55,56
 852 961 852 961 881 977.5 c 128,-1,57
 910 994 910 994 943.5 1007.5 c 128,-1,58
 977 1021 977 1021 1014 1030.5 c 128,-1,59
 1051 1040 1051 1040 1091 1041 c 1,60,-1
 1121 836 l 1,61,-1
 1092 839 l 2,62,63
 1080 841 1080 841 1068.5 841 c 128,-1,64
 1057 841 1057 841 1051 842 c 1,65,66
 1022 842 1022 842 987 836.5 c 128,-1,67
 952 831 952 831 921 822 c 1,68,69
 948 787 948 787 955 754 c 128,-1,70
 962 721 962 721 962 689 c 0,0,1
565 -299 m 0,71,72
 635 -299 635 -299 694.5 -283.5 c 128,-1,73
 754 -268 754 -268 799 -241 c 256,74,75
 844 -214 844 -214 868 -171 c 128,-1,76
 892 -128 892 -128 892 -53 c 0,77,78
 892 -7 892 -7 811 16.5 c 128,-1,79
 730 40 730 40 570 40 c 0,80,81
 522 40 522 40 475 40 c 128,-1,82
 428 40 428 40 379 41 c 1,83,84
 358 17 358 17 341.5 -14.5 c 128,-1,85
 325 -46 325 -46 313.5 -79 c 128,-1,86
 302 -112 302 -112 296.5 -143.5 c 128,-1,87
 291 -175 291 -175 291 -197 c 0,88,89
 291 -248 291 -248 362 -273.5 c 128,-1,90
 433 -299 433 -299 565 -299 c 0,71,72
291 684 m 0,91,92
 291 638 291 638 306 599.5 c 128,-1,93
 321 561 321 561 352 533.5 c 128,-1,94
 383 506 383 506 430 490.5 c 128,-1,95
 477 475 477 475 542 475 c 0,96,97
 618 475 618 475 668 494 c 128,-1,98
 718 513 718 513 746.5 544 c 128,-1,99
 775 575 775 575 786.5 615 c 128,-1,100
 798 655 798 655 798 696 c 0,101,102
 798 735 798 735 785.5 772.5 c 128,-1,103
 773 810 773 810 744 840 c 128,-1,104
 715 870 715 870 667 888 c 128,-1,105
 619 906 619 906 548 906 c 0,106,107
 499 906 499 906 453 894.5 c 128,-1,108
 407 883 407 883 371 856.5 c 128,-1,109
 335 830 335 830 313 787.5 c 128,-1,110
 291 745 291 745 291 684 c 0,91,92
EndSplineSet
EndChar
